<?xml version="1.0" encoding="UTF-8"?>
<svg version="1.1" xmlns="http://www.w3.org/2000/svg" width="160" height="160">
<path d="M0 0 C52.8 0 105.6 0 160 0 C160 52.8 160 105.6 160 160 C107.2 160 54.4 160 0 160 C0 107.2 0 54.4 0 0 Z " fill="#FAFAFA" transform="translate(0,0)"/>
<path d="M0 0 C23.76 0 47.52 0 72 0 C72 23.1 72 46.2 72 70 C71.67 70 71.34 70 71 70 C70.78085938 68.83984375 70.56171875 67.6796875 70.3359375 66.484375 C68.57883379 57.67240542 66.59597973 50.07204308 62.171875 42.1875 C61 40 61 40 61 38 C60.34 38 59.68 38 59 38 C57.73828125 36.3125 57.73828125 36.3125 56.3125 34 C51.17825176 26.10686656 45.90515328 20.54875694 37.94140625 15.4453125 C37.30074219 14.96835938 36.66007812 14.49140625 36 14 C36 13.34 36 12.68 36 12 C35.21625 11.855625 34.4325 11.71125 33.625 11.5625 C31 11 31 11 29 10 C29 9.34 29 8.68 29 8 C28.278125 7.87496094 27.55625 7.74992188 26.8125 7.62109375 C24.040051 7.0088446 21.62882128 6.12444762 19 5.0625 C12.78969092 2.73257504 6.56201896 1.79286716 0 1 C0 0.67 0 0.34 0 0 Z " fill="#FDFDFD" transform="translate(88,0)"/>
<path d="M0 0 C0.33 0 0.66 0 1 0 C1.10957031 0.60585937 1.21914063 1.21171875 1.33203125 1.8359375 C3.53305277 13.46735206 6.98412078 23.11847827 13.4375 33.0625 C13.81970703 33.66126953 14.20191406 34.26003906 14.59570312 34.87695312 C24.95612543 50.93648718 41.7723489 62.8799772 60.375 67.4765625 C64.24477097 68.24821326 68.06773746 68.6776834 72 69 C72 69.33 72 69.66 72 70 C48.24 70 24.48 70 0 70 C0 46.9 0 23.8 0 0 Z " fill="#FDFDFD" transform="translate(0,90)"/>
<path d="M0 0 C22.77 0 45.54 0 69 0 C69 0.33 69 0.66 69 1 C67.96101563 1.24234375 66.92203125 1.4846875 65.8515625 1.734375 C44.88844312 6.72727162 27.8248075 16.21156367 15 34 C14.37480469 34.82757813 13.74960938 35.65515625 13.10546875 36.5078125 C5.77345873 46.95472874 1.41111966 60.25529041 1 73 C0.67 73 0.34 73 0 73 C0 48.91 0 24.82 0 0 Z " fill="#FDFDFD" transform="translate(0,0)"/>
<path d="M0 0 C0.33 0 0.66 0 1 0 C1 23.76 1 47.52 1 72 C-22.76 72 -46.52 72 -71 72 C-71 71.67 -71 71.34 -71 71 C-70.12859375 70.90203125 -69.2571875 70.8040625 -68.359375 70.703125 C-51.85702829 68.63140182 -40.7217394 63.3600855 -28 53 C-27.29488281 52.43152344 -26.58976562 51.86304688 -25.86328125 51.27734375 C-20.21645898 46.55552475 -15.95652302 41.35403947 -12.25 35 C-11.8375 34.34 -11.425 33.68 -11 33 C-10.34 33 -9.68 33 -9 33 C-8.82984375 32.46632812 -8.6596875 31.93265625 -8.484375 31.3828125 C-7.14240713 27.25697511 -5.69438982 23.28030734 -3.9375 19.3125 C-1.3774758 13.10370568 -0.72642297 6.63338872 0 0 Z " fill="#FDFDFD" transform="translate(159,88)"/>
<path d="M0 0 C1.32324753 0.37135544 2.65567148 0.71422084 4 1 C4 1.66 4 2.32 4 3 C6.31 3.66 8.62 4.32 11 5 C11 5.66 11 6.32 11 7 C11.57363281 7.26941406 12.14726563 7.53882813 12.73828125 7.81640625 C20.92357696 12.09990297 30.85705972 20.33679507 33.75 29.33203125 C33.8325 29.88246094 33.915 30.43289062 34 31 C34.66 31 35.32 31 36 31 C47.33112375 50.79763756 49.98017557 72.70112398 45 95 C43.89734041 98.45922855 42.53139641 101.71135376 41 105 C40.24937354 106.70805817 39.49934789 108.41638052 38.75 110.125 C38.16858462 111.41753112 37.58600461 112.70954304 37 114 C36.34 114 35.68 114 35 114 C34.75121094 114.71671875 34.50242188 115.4334375 34.24609375 116.171875 C30.41993852 124.85568812 22.83333438 131.36573353 15.484375 137.0703125 C13.5615924 138.56379458 11.82419747 140.08156886 10.0625 141.75 C-5.89777252 153.4759145 -28.61567904 154.77581054 -47.625 152.3125 C-63.46093634 149.49025392 -77.31577854 142.02524151 -89 131 C-89 130.34 -89 129.68 -89 129 C-89.56847656 128.79503906 -90.13695313 128.59007812 -90.72265625 128.37890625 C-93.81987129 126.50357708 -95.47868931 123.8975459 -97.4375 120.9375 C-97.83146973 120.35331299 -98.22543945 119.76912598 -98.63134766 119.16723633 C-103.35031821 112.09266922 -107.26449937 105.06886663 -110 97 C-110.37125 96.01 -110.7425 95.02 -111.125 94 C-116.46266121 75.69944728 -113.49758895 52.80754714 -105 36 C-102.08001934 31.0158079 -98.60879989 26.49972236 -95 22 C-94.34 21.15695313 -93.68 20.31390625 -93 19.4453125 C-72.36183669 -5.40647582 -29.08810986 -17.11065286 0 0 Z M-67.3125 2.9375 C-67.97572266 3.27201172 -68.63894531 3.60652344 -69.32226562 3.95117188 C-73.41075535 6.04586701 -77.30830509 8.25841572 -81 11 C-81 11.66 -81 12.32 -81 13 C-81.58394531 13.26296875 -82.16789062 13.5259375 -82.76953125 13.796875 C-96.81736607 21.37434107 -104.49519066 40.67508327 -109 55 C-110.32341814 60.67441435 -110.22271854 66.26177858 -110.25 72.0625 C-110.270625 73.13177734 -110.29125 74.20105469 -110.3125 75.30273438 C-110.37031841 87.26391693 -107.37341872 97.38939007 -102 108 C-101.51144531 108.97582031 -101.02289063 109.95164062 -100.51953125 110.95703125 C-97.84313605 116.09653566 -95.33115007 120.08134041 -91 124 C-89.83328456 125.43746041 -88.66662402 126.87496539 -87.5 128.3125 C-75.70406221 141.60773456 -55.50843359 149.63424359 -38.08203125 150.83984375 C-29.70441231 151.27518263 -22.18101871 150.98757938 -14 149 C-14 148.34 -14 147.68 -14 147 C-13.03707031 147.09152344 -12.07414062 147.18304688 -11.08203125 147.27734375 C-5.97604671 147.26579465 -2.0784439 144.96420795 2.3125 142.5625 C3.15264648 142.11092529 3.99279297 141.65935059 4.85839844 141.1940918 C11.47994315 137.52350865 16.73781282 133.46814362 22 128 C22.62777344 127.42894531 23.25554687 126.85789063 23.90234375 126.26953125 C29.02272804 121.55250327 32.45522376 115.94890666 36 110 C36.53109375 109.15695313 37.0621875 108.31390625 37.609375 107.4453125 C39.84624654 103.51193726 40.84219055 99.35217602 42 95 C42.28230469 93.98292969 42.56460938 92.96585937 42.85546875 91.91796875 C46.26239101 78.69015323 44.91406861 66.31303075 43 53 C42.34 53 41.68 53 41 53 C40.91105469 52.00871094 40.82210937 51.01742187 40.73046875 49.99609375 C40.09407088 45.57907046 38.3568206 41.99258285 36.3125 38.0625 C35.95019287 37.35665771 35.58788574 36.65081543 35.21459961 35.92358398 C26.68472897 19.63072084 13.52055848 8.73857739 -3 1 C-3.59578857 0.681521 -4.19157715 0.36304199 -4.80541992 0.03491211 C-13.89964369 -4.25370893 -23.69847575 -4.46781361 -33.5625 -4.375 C-34.79935547 -4.38660156 -36.03621094 -4.39820313 -37.31054688 -4.41015625 C-48.38917071 -4.37500461 -57.53314734 -2.20179945 -67.3125 2.9375 Z " fill="#969696" transform="translate(113,7)"/>
<path d="M0 0 C3.875 0.875 3.875 0.875 5 2 C5.47764004 8.42037074 4.89423846 13.843725 3 20 C2.92596322 22.33215844 2.90484114 24.66860788 3 27 C3.7425 26.21625 4.485 25.4325 5.25 24.625 C7.54433318 22.43495469 9.12158858 21.17268614 12 20 C11.84518205 22.70931419 11.51827919 24.46584039 9.59765625 26.4453125 C8.10228292 27.67679642 6.5537076 28.8429837 5 30 C5.57344937 32.86724686 5.8614515 33.8614515 8 36 C10.60280568 35.67958603 10.60280568 35.67958603 13 35 C13.14695312 34.15695313 13.29390625 33.31390625 13.4453125 32.4453125 C14.11309419 29.18316056 14.83365062 26.1204198 16 23 C18.875 21.3125 18.875 21.3125 22 21 C22.94875 20.79375 23.8975 20.5875 24.875 20.375 C25.57625 20.25125 26.2775 20.1275 27 20 C29.03165952 24.33420699 29.52060632 28.28596212 30 33 C30.33 33 30.66 33 31 33 C31.18175781 32.18015625 31.36351562 31.3603125 31.55078125 30.515625 C31.92783203 28.89914063 31.92783203 28.89914063 32.3125 27.25 C32.55613281 26.18265625 32.79976562 25.1153125 33.05078125 24.015625 C33.98191766 21.05744678 34.8812341 19.24403998 37 17 C37.66 17 38.32 17 39 17 C39 17.66 39 18.32 39 19 C39.78375 19.12375 40.5675 19.2475 41.375 19.375 C44 20 44 20 46 22 C46 23.32 46 24.64 46 26 C46.66 25.67 47.32 25.34 48 25 C48.69337792 21.9600352 48.69337792 21.9600352 49.125 18.4375 C49.29257813 17.23996094 49.46015625 16.04242188 49.6328125 14.80859375 C49.81457031 13.41833984 49.81457031 13.41833984 50 12 C46.7 12.33 43.4 12.66 40 13 C40 12.34 40 11.68 40 11 C43.3 10.34 46.6 9.68 50 9 C50 6.36 50 3.72 50 1 C50.99 1.33 51.98 1.66 53 2 C53 3.65 53 5.3 53 7 C54.0725 6.67 55.145 6.34 56.25 6 C60 5 60 5 64 5 C63.67 5.99 63.34 6.98 63 8 C60.93359375 8.94921875 60.93359375 8.94921875 58.4375 9.6875 C57.61121094 9.93886719 56.78492188 10.19023438 55.93359375 10.44921875 C55.29550781 10.63097656 54.65742188 10.81273437 54 11 C53.97289877 13.5625718 53.95311229 16.12485365 53.9375 18.6875 C53.92493164 19.7693457 53.92493164 19.7693457 53.91210938 20.87304688 C53.89456368 24.71555382 54.06475779 28.26639526 55 32 C57.94091587 31.81584568 57.94091587 31.81584568 61 31 C62.43637698 29.04836882 62.43637698 29.04836882 63 27 C63.8125 28.6875 63.8125 28.6875 64 31 C61.875 33.75 61.875 33.75 59 36 C56.1875 36.3125 56.1875 36.3125 54 36 C52.68 33.36 51.36 30.72 50 28 C48.68 28.33 47.36 28.66 46 29 C45.896875 29.763125 45.79375 30.52625 45.6875 31.3125 C44.92953731 34.27544506 44.41193803 35.19104648 42 37 C39.73828125 37.07421875 39.73828125 37.07421875 37.3125 36.6875 C36.50425781 36.56761719 35.69601563 36.44773438 34.86328125 36.32421875 C34.24839844 36.21722656 33.63351563 36.11023438 33 36 C32.505 36.99 32.505 36.99 32 38 C30.125 37.8125 30.125 37.8125 28 37 C25.46875325 32.82344286 25.83980786 28.72566806 26 24 C25.01 24 24.02 24 23 24 C22.86722656 24.69480469 22.73445313 25.38960937 22.59765625 26.10546875 C21.95897084 29.19870986 21.21143636 32.25040398 20.4375 35.3125 C20.16808594 36.38113281 19.89867188 37.44976562 19.62109375 38.55078125 C19.41613281 39.35902344 19.21117188 40.16726562 19 41 C18.01 41 17.02 41 16 41 C15.67 40.34 15.34 39.68 15 39 C14.01 39.66 13.02 40.32 12 41 C8.16896958 40.68074747 6.23319447 40.15546298 3 38 C3 39.65 3 41.3 3 43 C2.01 43 1.02 43 0 43 C-0.66 38.71 -1.32 34.42 -2 30 C-2.66 30 -3.32 30 -4 30 C-3.855625 29.154375 -3.71125 28.30875 -3.5625 27.4375 C-3.376875 26.303125 -3.19125 25.16875 -3 24 C-2.814375 22.96875 -2.62875 21.9375 -2.4375 20.875 C-1.94317541 16.49669653 -2.01734454 12.26578831 -2.16015625 7.8671875 C-1.99113101 4.84122346 -1.27501871 2.73004007 0 0 Z " fill="#8F8F8F" transform="translate(81,53)"/>
<path d="M0 0 C1.9375 0.3125 1.9375 0.3125 4 1 C5.14077657 4.42232972 5.09815117 7.08673217 5.0625 10.6875 C5.05347656 11.86699219 5.04445312 13.04648438 5.03515625 14.26171875 C5.02355469 15.16535156 5.01195312 16.06898437 5 17 C6.32 16.67 7.64 16.34 9 16 C10.53549231 19.07098462 10.4426817 22.29580377 10.71875 25.6875 C10.87136047 28.02268455 10.87136047 28.02268455 12 30 C12.99 30.33 13.98 30.66 15 31 C15 29.02 15 27.04 15 25 C15.495 26.485 15.495 26.485 16 28 C16.99 28 17.98 28 19 28 C19.33 24.7 19.66 21.4 20 18 C18.68 18.33 17.36 18.66 16 19 C15.505 21.475 15.505 21.475 15 24 C14.67 24 14.34 24 14 24 C13.75 18.375 13.75 18.375 16 15 C18.5 14.6875 18.5 14.6875 21 15 C23 17 23 17 23.3125 20.75 C23.23200938 24.75989658 22.07510554 27.54149077 20 31 C21.32 31 22.64 31 24 31 C24.66 28.69 25.32 26.38 26 24 C26.66 24 27.32 24 28 24 C26.98425197 31.4488189 26.98425197 31.4488189 25 34 C20.40035791 35.4584231 14.62529931 35.52634877 10 34 C7.59748047 30.41192345 6.96843817 26.15044931 6 22 C4.68 26.95 3.36 31.9 2 37 C1.01 37 0.02 37 -1 37 C-1 35.35 -1 33.7 -1 32 C-1.66 32 -2.32 32 -3 32 C-3 32.66 -3 33.32 -3 34 C-6 36 -6 36 -8.5625 35.75 C-11 35 -11 35 -13 33 C-13.86625 34.7015625 -13.86625 34.7015625 -14.75 36.4375 C-16.68760984 39.86983743 -16.68760984 39.86983743 -19.25 40.9375 C-19.8275 40.958125 -20.405 40.97875 -21 41 C-20.02702045 38.54583283 -19.04343553 36.10095367 -18 33.67578125 C-15.53946151 27.86083677 -14.00731231 22.2294314 -13 16 C-13.59167969 16.15597656 -14.18335938 16.31195313 -14.79296875 16.47265625 C-22.64147627 18.4059754 -22.64147627 18.4059754 -27 17 C-27 16.34 -27 15.68 -27 15 C-20.07 14.01 -20.07 14.01 -13 13 C-13 10.69 -13 8.38 -13 6 C-12.34 6 -11.68 6 -11 6 C-11 7.98 -11 9.96 -11 12 C-8.36 11.67 -5.72 11.34 -3 11 C-3.061875 9.9275 -3.12375 8.855 -3.1875 7.75 C-2.99456691 3.89133813 -2.60334924 2.71182212 0 0 Z " fill="#838383" transform="translate(41,64)"/>
<path d="M0 0 C0.98355469 0.43699219 1.96710938 0.87398437 2.98046875 1.32421875 C9.01507862 4.18035088 15.1757031 7.28921597 20 12 C20 12.66 20 13.32 20 14 C20.66 14 21.32 14 22 14 C23.4375 16.1875 23.4375 16.1875 25 19 C25.556875 19.86625 26.11375 20.7325 26.6875 21.625 C28 24 28 24 28 27 C27.34 27 26.68 27 26 27 C26 26.34 26 25.68 26 25 C25.34 25 24.68 25 24 25 C23.02734375 23.53125 23.02734375 23.53125 21.9375 21.5 C18.2067533 15.25988201 12.66783571 9.99372216 6 7 C6 6.34 6 5.68 6 5 C-8.66992 0.52307619 -23.17345969 -1.73061612 -37.8125 4.125 C-40 5 -40 5 -42 5 C-42 5.66 -42 6.32 -42 7 C-43.7578125 8.296875 -43.7578125 8.296875 -46.125 9.75 C-52.46087196 13.85436989 -56.95241359 17.88896505 -60 25 C-60.66 25 -61.32 25 -62 25 C-62.99 27.97 -63.98 30.94 -65 34 C-65.66 34 -66.32 34 -67 34 C-66.54956569 23.64001097 -59.86160175 16.14791019 -52.63671875 9.2578125 C-48.68938118 5.87772196 -44.65286097 3.29770912 -40 1 C-39.2059375 0.5875 -38.411875 0.175 -37.59375 -0.25 C-26.5309015 -5.16682156 -11.03305434 -4.95096724 0 0 Z " fill="#A1A1A1" transform="translate(98,31)"/>
<path d="M0 0 C0.66 0 1.32 0 2 0 C1.31265297 12.14313086 -5.03037418 22.97454532 -14 31 C-15.485 31.495 -15.485 31.495 -17 32 C-17 32.66 -17 33.32 -17 34 C-32.57554451 42.29937773 -46.49143855 46.9857564 -64.375 42.375 C-70.33418323 40.47614162 -75.12149786 37.87952457 -80 34 C-81.21042969 33.08927734 -81.21042969 33.08927734 -82.4453125 32.16015625 C-85.24627471 29.79175854 -87.48699623 27.27206927 -89.8125 24.4375 C-90.60269531 23.48746094 -91.39289063 22.53742188 -92.20703125 21.55859375 C-94 19 -94 19 -94 16 C-90.50394973 17.43642065 -88.91977494 19.12769602 -86.75 22.1875 C-79.82641138 31.32605023 -71.40106924 37.55923703 -60 40 C-45.19818228 41.25911877 -32.45966233 40.66565154 -20.125 31.6875 C-9.91862571 23.07294555 -3.42159003 12.89676243 0 0 Z " fill="#999999" transform="translate(129,88)"/>
<path d="M0 0 C0.99 0.33 1.98 0.66 3 1 C3 2.65 3 4.3 3 6 C4.0725 5.67 5.145 5.34 6.25 5 C10 4 10 4 14 4 C13.67 4.99 13.34 5.98 13 7 C10.93359375 7.94921875 10.93359375 7.94921875 8.4375 8.6875 C7.19806641 9.06455078 7.19806641 9.06455078 5.93359375 9.44921875 C5.29550781 9.63097656 4.65742188 9.81273437 4 10 C3.97289877 12.5625718 3.95311229 15.12485365 3.9375 17.6875 C3.92912109 18.40873047 3.92074219 19.12996094 3.91210938 19.87304688 C3.89456368 23.71555382 4.06475779 27.26639526 5 31 C7.94091587 30.81584568 7.94091587 30.81584568 11 30 C12.43637698 28.04836882 12.43637698 28.04836882 13 26 C13.8125 27.6875 13.8125 27.6875 14 30 C11.875 32.75 11.875 32.75 9 35 C6.1875 35.3125 6.1875 35.3125 4 35 C2.68 32.36 1.36 29.72 0 27 C-1.32 27.33 -2.64 27.66 -4 28 C-4.33 29.65 -4.66 31.3 -5 33 C-6.98 33.495 -6.98 33.495 -9 34 C-8.34 32.02 -7.68 30.04 -7 28 C-7.66 27.608125 -8.32 27.21625 -9 26.8125 C-11 25 -11 25 -11.25 22.3125 C-11.12625 21.1678125 -11.12625 21.1678125 -11 20 C-8.625 19.375 -8.625 19.375 -6 19 C-4 21 -4 21 -4 25 C-3.34 24.67 -2.68 24.34 -2 24 C-1.30662208 20.9600352 -1.30662208 20.9600352 -0.875 17.4375 C-0.70742187 16.23996094 -0.53984375 15.04242188 -0.3671875 13.80859375 C-0.24601563 12.88175781 -0.12484375 11.95492187 0 11 C-3.3 11.33 -6.6 11.66 -10 12 C-10 11.34 -10 10.68 -10 10 C-5.05 9.01 -5.05 9.01 0 8 C0 5.36 0 2.72 0 0 Z " fill="#8A8A8A" transform="translate(131,54)"/>
<path d="M0 0 C3.91044024 1.30348008 4.20030052 2.71669281 6.0625 6.3125 C6.56910156 7.27800781 7.07570313 8.24351563 7.59765625 9.23828125 C8.42946704 10.8764156 9.22423018 12.53571311 9.93359375 14.23046875 C11.28675585 16.47582563 12.6580721 16.90800279 15 18 C15.804375 19.03125 16.60875 20.0625 17.4375 21.125 C26.55903748 32.11645267 46.1290468 40.79471019 60.06958008 42.34033203 C63.54471191 42.63934862 67.01985699 42.89171569 70.5 43.125 C71.70398438 43.21136719 72.90796875 43.29773438 74.1484375 43.38671875 C77.09857397 43.59744278 80.04900717 43.8016943 83 44 C79.15389224 46.11843594 75.88422415 46.30998122 71.5625 46.25 C70.8523877 46.24250732 70.14227539 46.23501465 69.41064453 46.22729492 C48.51574484 45.80846099 30.26021509 38.3995522 15 24 C15 23.34 15 22.68 15 22 C14.43539063 21.80148438 13.87078125 21.60296875 13.2890625 21.3984375 C10.10082759 19.45067624 8.39442048 16.68105632 6.375 13.625 C5.78332031 12.75875 5.78332031 12.75875 5.1796875 11.875 C0 4.21046242 0 4.21046242 0 0 Z " fill="#929292" transform="translate(9,114)"/>
<path d="M0 0 C0.99 0 1.98 0 3 0 C0.97565711 7.34591094 -1.59283444 14.18566888 -5 21 C-5.66 21 -6.32 21 -7 21 C-7.24878906 21.71671875 -7.49757812 22.4334375 -7.75390625 23.171875 C-11.58006148 31.85568812 -19.16666562 38.36573353 -26.515625 44.0703125 C-28.4384076 45.56379458 -30.17580253 47.08156886 -31.9375 48.75 C-39.90847785 54.60622863 -52.63264951 59.90680524 -62.6875 58.6875 C-63.780625 58.460625 -64.87375 58.23375 -66 58 C-66 57.67 -66 57.34 -66 57 C-61.05 56.505 -61.05 56.505 -56 56 C-56 55.34 -56 54.68 -56 54 C-54.55560547 53.89171875 -54.55560547 53.89171875 -53.08203125 53.78125 C-48.12969597 53.06435 -44.05561834 50.84476063 -39.6875 48.5 C-38.84590332 48.05076172 -38.00430664 47.60152344 -37.13720703 47.13867188 C-30.56930984 43.52499426 -25.14418579 39.48336287 -20 34 C-19.21367187 33.20851562 -18.42734375 32.41703125 -17.6171875 31.6015625 C-10.14330473 23.78235181 -5.50496178 15.16438917 -2 5 C-1.33933281 3.33094605 -0.67561748 1.6630584 0 0 Z " fill="#9E9E9E" transform="translate(155,100)"/>
<path d="M0 0 C0.66 0 1.32 0 2 0 C2 0.66 2 1.32 2 2 C3.32 2.33 4.64 2.66 6 3 C5.01 3.33 4.02 3.66 3 4 C2.66574265 6.37374861 2.66574265 6.37374861 3 9 C4.9004467 10.84315671 4.9004467 10.84315671 7 12 C6.67 12.763125 6.34 13.52625 6 14.3125 C4.82563314 16.99069135 4.82563314 16.99069135 5 20 C2.03 19.67 -0.94 19.34 -4 19 C-4.33 19.66 -4.66 20.32 -5 21 C-6.875 20.8125 -6.875 20.8125 -9 20 C-11.53124675 15.82344286 -11.16019214 11.72566806 -11 7 C-13.31 7 -15.62 7 -18 7 C-17 5 -17 5 -14 3 C-12.35 3.33 -10.7 3.66 -9 4 C-8.34 7.96 -7.68 11.92 -7 16 C-6.67 16 -6.34 16 -6 16 C-5.81824219 15.18015625 -5.63648437 14.3603125 -5.44921875 13.515625 C-5.19785156 12.43796875 -4.94648437 11.3603125 -4.6875 10.25 C-4.44386719 9.18265625 -4.20023438 8.1153125 -3.94921875 7.015625 C-3.01808234 4.05744678 -2.1187659 2.24403998 0 0 Z " fill="#939393" transform="translate(118,70)"/>
<path d="M0 0 C1.32810319 0.67702596 2.66033478 1.34615038 4 2 C3.67 2.66 3.34 3.32 3 4 C2.43152344 3.80664062 1.86304687 3.61328125 1.27734375 3.4140625 C-3.45321078 1.81878368 -8.19538315 0.35979722 -13 -1 C-14.38505737 -1.51469849 -14.38505737 -1.51469849 -15.7980957 -2.03979492 C-21.48245032 -3.74445117 -27.29504755 -3.32729772 -33.1875 -3.3125 C-34.45142578 -3.32861328 -35.71535156 -3.34472656 -37.01757812 -3.36132812 C-49.29381864 -3.367679 -58.47089598 -0.56969426 -69.25 4.98828125 C-70.61125 5.48908203 -70.61125 5.48908203 -72 6 C-72.99 5.34 -73.98 4.68 -75 4 C-53.44024641 -7.65392086 -22.38203011 -13.6047634 0 0 Z " fill="#909090" transform="translate(113,7)"/>
<path d="M0 0 C21.01632968 -0.58258819 21.01632968 -0.58258819 29 3 C29.98355469 3.43699219 30.96710938 3.87398437 31.98046875 4.32421875 C38.01507862 7.18035088 44.1757031 10.28921597 49 15 C49 15.66 49 16.32 49 17 C49.66 17 50.32 17 51 17 C52.4375 19.1875 52.4375 19.1875 54 22 C54.556875 22.86625 55.11375 23.7325 55.6875 24.625 C57 27 57 27 57 30 C56.34 30 55.68 30 55 30 C55 29.34 55 28.68 55 28 C54.34 28 53.68 28 53 28 C52.02734375 26.53125 52.02734375 26.53125 50.9375 24.5 C47.2067533 18.25988201 41.66783571 12.99372216 35 10 C35 9.34 35 8.68 35 8 C25.58835758 5.34099458 16.93424463 3.55030275 7.109375 3.37109375 C3.77927556 2.97365726 2.41832016 2.25669975 0 0 Z " fill="#A1A1A1" transform="translate(69,28)"/>
<path d="M0 0 C0.66 0 1.32 0 2 0 C2 1.98 2 3.96 2 6 C3.98 6 5.96 6 8 6 C8 6.66 8 7.32 8 8 C6.02 8.33 4.04 8.66 2 9 C2 14.61 2 20.22 2 26 C1.34 26.33 0.68 26.66 0 27 C-0.61875 28.155 -1.2375 29.31 -1.875 30.5 C-3.71408109 33.88086712 -3.71408109 33.88086712 -6.25 34.9375 C-6.8275 34.958125 -7.405 34.97875 -8 35 C-7.02702045 32.54583283 -6.04343553 30.10095367 -5 27.67578125 C-2.53946151 21.86083677 -1.00731231 16.2294314 0 10 C-0.59167969 10.15597656 -1.18335938 10.31195313 -1.79296875 10.47265625 C-9.64147627 12.4059754 -9.64147627 12.4059754 -14 11 C-14 10.34 -14 9.68 -14 9 C-7.07 8.01 -7.07 8.01 0 7 C0 4.69 0 2.38 0 0 Z " fill="#828282" transform="translate(28,70)"/>
<path d="M0 0 C2.5 -0.3125 2.5 -0.3125 5 0 C7 2 7 2 7.3125 5.75 C7.23200938 9.75989658 6.07510554 12.54149077 4 16 C5.32 16 6.64 16 8 16 C8.66 13.69 9.32 11.38 10 9 C10.66 9 11.32 9 12 9 C10.98425197 16.4488189 10.98425197 16.4488189 9 19 C5.9375 19.8125 5.9375 19.8125 3 20 C2.67 19.67 2.34 19.34 2 19 C-0.32817964 18.63239269 -2.6618385 18.29758419 -5 18 C-5.33 17.01 -5.66 16.02 -6 15 C-3.525 15.495 -3.525 15.495 -1 16 C-1 14.02 -1 12.04 -1 10 C-0.67 10.99 -0.34 11.98 0 13 C0.99 13 1.98 13 3 13 C3.33 9.7 3.66 6.4 4 3 C2.68 3.33 1.36 3.66 0 4 C-0.33 5.65 -0.66 7.3 -1 9 C-1.33 9 -1.66 9 -2 9 C-2.25 3.375 -2.25 3.375 0 0 Z " fill="#898989" transform="translate(57,79)"/>
<path d="M0 0 C0.08139142 2.39652528 0.14067009 4.79025436 0.1875 7.1875 C0.21263672 7.86103516 0.23777344 8.53457031 0.26367188 9.22851562 C0.3284946 13.65806882 -0.1313416 16.55627255 -3 20 C-3.99 20 -4.98 20 -6 20 C-8.61281488 14.12116651 -8.18328202 8.29268272 -8 2 C-1.125 0 -1.125 0 0 0 Z " fill="#F8F8F8" transform="translate(38,77)"/>
<path d="M0 0 C1 1 1 1 1.375 4.75 C1.33033673 8.29115939 1.00480676 8.99327054 -1.1875 12.0625 C-4 14 -4 14 -6.75 13.875 C-9 13 -9 13 -10 12 C-9.984375 10.0390625 -9.984375 10.0390625 -9.75 7.625 C-9.64945312 6.43777344 -9.64945312 6.43777344 -9.546875 5.2265625 C-8.23189035 -0.12730359 -5.03718383 -0.43801599 0 0 Z " fill="#878787" transform="translate(113,16)"/>
<path d="M0 0 C0.33 0 0.66 0 1 0 C1.03738281 1.30453125 1.07476562 2.6090625 1.11328125 3.953125 C1.55380412 16.5569067 2.55002416 27.82722171 8.328125 39.2578125 C8.54984375 39.83273438 8.7715625 40.40765625 9 41 C8.67 41.66 8.34 42.32 8 43 C7.01 43 6.02 43 5 43 C3.9991372 40.2694908 3.00360106 37.5373994 2.01953125 34.80078125 C1.31853004 32.8750423 0.58057765 30.96248155 -0.1875 29.0625 C-1.49655537 24.12836823 -1.68749817 19.08226659 -2 14 C-1.67 14 -1.34 14 -1 14 C-0.67 9.38 -0.34 4.76 0 0 Z " fill="#A6A6A6" transform="translate(2,72)"/>
<path d="M0 0 C3.875 0.875 3.875 0.875 5 2 C5.47201787 8.34479831 5.1310677 14.0063721 3 20 C2.34 19.01 1.68 18.02 1 17 C0.01 17 -0.98 17 -2 17 C-2.05441656 15.10448978 -2.09298035 13.2085208 -2.125 11.3125 C-2.14820312 10.25675781 -2.17140625 9.20101562 -2.1953125 8.11328125 C-1.99858729 4.97748141 -1.33057654 2.82354627 0 0 Z " fill="#939393" transform="translate(81,53)"/>
<path d="M0 0 C4.02760477 0.43778313 7.57297183 1.15401715 11.40625 2.46875 C17.73657656 4.40369538 24.04630072 4.78779085 30.625 5.1875 C31.81996094 5.26935547 33.01492187 5.35121094 34.24609375 5.43554688 C37.16354276 5.63393341 40.08125702 5.82185625 43 6 C39.15355512 8.11862163 35.88442192 8.30899359 31.5625 8.25 C30.85601318 8.24395752 30.14952637 8.23791504 29.42163086 8.23168945 C20.21996286 8.06100084 9.24568095 7.50310246 1 3 C0.67 2.01 0.34 1.02 0 0 Z " fill="#8E8E8E" transform="translate(49,152)"/>
<path d="M0 0 C1.32 0.33 2.64 0.66 4 1 C4.33 3.64 4.66 6.28 5 9 C5.66 6.69 6.32 4.38 7 2 C7.66 2 8.32 2 9 2 C8.68872484 3.58357459 8.37592711 5.16684993 8.0625 6.75 C7.88847656 7.63171875 7.71445313 8.5134375 7.53515625 9.421875 C7.07631512 11.63235053 6.56663926 13.81512068 6 16 C3 15 3 15 1.8125 12.9375 C1.544375 12.298125 1.27625 11.65875 1 11 C0.67 11.99 0.34 12.98 0 14 C-0.66 14 -1.32 14 -2 14 C-2.1799928 8.78020872 -1.97094808 4.92737019 0 0 Z " fill="#8D8D8D" transform="translate(92,10)"/>
<path d="M0 0 C0.99 0 1.98 0 3 0 C3.09688221 5.44693314 3.12862175 10.63904667 2 16 C1.01 16 0.02 16 -1 16 C-1 14.35 -1 12.7 -1 11 C-2.98 11.66 -4.96 12.32 -7 13 C-7.33 12.34 -7.66 11.68 -8 11 C-6.85539001 9.35331565 -5.70927742 7.70767566 -4.5625 6.0625 C-3.92441406 5.14597656 -3.28632812 4.22945312 -2.62890625 3.28515625 C-1 1 -1 1 0 0 Z " fill="#999999" transform="translate(59,134)"/>
<path d="M0 0 C1.66650743 0.66706461 3.3331274 1.3338484 5 2 C4.67 2.99 4.34 3.98 4 5 C3.43152344 4.80664062 2.86304688 4.61328125 2.27734375 4.4140625 C-2.45321078 2.81878368 -7.19538315 1.35979722 -12 0 C-12.80308594 -0.33644531 -13.60617188 -0.67289062 -14.43359375 -1.01953125 C-19.70540558 -2.46884644 -24.93019831 -2.47108334 -30.375 -2.625 C-32.05142578 -2.68300781 -32.05142578 -2.68300781 -33.76171875 -2.7421875 C-36.50765161 -2.83606555 -39.25358476 -2.92174911 -42 -3 C-42 -3.33 -42 -3.66 -42 -4 C-14.00787076 -5.78206503 -14.00787076 -5.78206503 0 0 Z " fill="#AAAAAA" transform="translate(112,6)"/>
<path d="M0 0 C1.85625 0.1546875 1.85625 0.1546875 3.75 0.3125 C4.08 1.9625 4.41 3.6125 4.75 5.3125 C3.43 5.3125 2.11 5.3125 0.75 5.3125 C0.75 4.3225 0.75 3.3325 0.75 2.3125 C-2.41717283 3.89608642 -3.98268318 4.76513699 -5.5625 8 C-5.9028125 9.1446875 -5.9028125 9.1446875 -6.25 10.3125 C-5.26 10.3125 -4.27 10.3125 -3.25 10.3125 C-3.25 8.9925 -3.25 7.6725 -3.25 6.3125 C-1.93 6.6425 -0.61 6.9725 0.75 7.3125 C0.75 11.3125 0.75 11.3125 -1 13.125 C-3.25 14.3125 -3.25 14.3125 -5.375 14.1875 C-7.25 13.3125 -7.25 13.3125 -9.25 10.3125 C-9.08400929 7.15867655 -8.22468519 5.26693334 -6.6875 2.5 C-3.98749312 0.0769169 -3.44650923 0 0 0 Z " fill="#9E9E9E" transform="translate(39.25,121.6875)"/>
<path d="M0 0 C0.66 0 1.32 0 2 0 C4.28571429 8.42857143 4.28571429 8.42857143 4 13 C2.125 12.6875 2.125 12.6875 0 12 C-0.66 11.01 -1.32 10.02 -2 9 C-2 10.98 -2 12.96 -2 15 C-3.32 14.34 -4.64 13.68 -6 13 C-6 9.04 -6 5.08 -6 1 C-2 3 -2 3 0 6 C0 4.02 0 2.04 0 0 Z " fill="#8E8E8E" transform="translate(96,136)"/>
<path d="M0 0 C1.32 0 2.64 0 4 0 C4 1.32 4 2.64 4 4 C4.66 4 5.32 4 6 4 C6.33 7.3 6.66 10.6 7 14 C6.01 14 5.02 14 4 14 C4 13.01 4 12.02 4 11 C2.68 11 1.36 11 0 11 C0 11.66 0 12.32 0 13 C-0.66 13 -1.32 13 -2 13 C-1.85915204 11.20793453 -1.71216299 9.41635083 -1.5625 7.625 C-1.48128906 6.62726563 -1.40007812 5.62953125 -1.31640625 4.6015625 C-1 2 -1 2 0 0 Z " fill="#A8A8A8" transform="translate(80,138)"/>
<path d="M0 0 C0.99 0.495 0.99 0.495 2 1 C5.77207997 12.52579989 5.50094915 28.43822349 2 40 C1.01 40.495 1.01 40.495 0 41 C0.0721875 40.28457031 0.144375 39.56914063 0.21875 38.83203125 C1.43253684 25.80068082 0.93597834 13.02012721 0 0 Z " fill="#838383" transform="translate(156,60)"/>
<path d="M0 0 C-2.39351505 4.78703011 -11.13722127 6.35367967 -15.9609375 8.02734375 C-21.76381911 9.79096463 -26.05098003 10.23470226 -32 9 C-32 8.67 -32 8.34 -32 8 C-28.7 7.67 -25.4 7.34 -22 7 C-22 6.34 -22 5.68 -22 5 C-20.576875 4.9071875 -20.576875 4.9071875 -19.125 4.8125 C-14.699672 4.22785301 -11.25253267 2.17159238 -7.4296875 -0.0390625 C-4.51304833 -1.1925886 -2.96334902 -0.87529526 0 0 Z " fill="#ADADAD" transform="translate(121,149)"/>
<path d="M0 0 C0.66 0 1.32 0 2 0 C3.03041513 1.95330868 4.0490893 3.91281528 5.0625 5.875 C5.63097656 6.96554688 6.19945312 8.05609375 6.78515625 9.1796875 C7.38650391 10.57574219 7.38650391 10.57574219 8 12 C7.67 12.66 7.34 13.32 7 14 C6.34 14 5.68 14 5 14 C4.34 12.35 3.68 10.7 3 9 C2.01 9.33 1.02 9.66 0 10 C0.33 11.98 0.66 13.96 1 16 C-2 15 -2 15 -3.16796875 13.0390625 C-3.50441406 12.24242187 -3.84085938 11.44578125 -4.1875 10.625 C-4.53167969 9.83351563 -4.87585937 9.04203125 -5.23046875 8.2265625 C-6 6 -6 6 -6 3 C-5.34 3 -4.68 3 -4 3 C-3.67 4.32 -3.34 5.64 -3 7 C-1.68 7 -0.36 7 1 7 C0.67 4.69 0.34 2.38 0 0 Z " fill="#939393" transform="translate(52,14)"/>
<path d="M0 0 C0.33 0 0.66 0 1 0 C1 8.25 1 16.5 1 25 C1.66 25 2.32 25 3 25 C3 27.64 3 30.28 3 33 C2.67 33 2.34 33 2 33 C2 31.35 2 29.7 2 28 C1.34 28 0.68 28 0 28 C0 28.66 0 29.32 0 30 C-3 32 -3 32 -5.6875 31.625 C-6.8321875 31.315625 -6.8321875 31.315625 -8 31 C-9.09658936 27.71023192 -8.79953138 26.28696233 -8 23 C-6 26.75 -6 26.75 -6 29 C-4.00016466 28.20882096 -4.00016466 28.20882096 -2 27 C-0.82754226 23.48262679 -0.86733715 20.6424868 -0.875 16.9375 C-0.87242188 15.68839844 -0.86984375 14.43929687 -0.8671875 13.15234375 C-0.78051724 10.09799287 -0.78051724 10.09799287 -2 8 C-2.66 7.67 -3.32 7.34 -4 7 C-2.68 7 -1.36 7 0 7 C0 4.69 0 2.38 0 0 Z " fill="#A9A9A9" transform="translate(38,68)"/>
<path d="M0 0 C0.84755859 0.00322266 1.69511719 0.00644531 2.56835938 0.00976562 C3.44943359 0.01814453 4.33050781 0.02652344 5.23828125 0.03515625 C6.57729492 0.04192383 6.57729492 0.04192383 7.94335938 0.04882812 C10.14590112 0.06060642 12.34830724 0.07705461 14.55078125 0.09765625 C14.55078125 0.42765625 14.55078125 0.75765625 14.55078125 1.09765625 C13.40416016 1.11892578 13.40416016 1.11892578 12.234375 1.140625 C4.03484739 1.50570625 -2.80123413 3.25223181 -10.4296875 6.0390625 C-13.44921875 7.09765625 -13.44921875 7.09765625 -15.44921875 7.09765625 C-15.44921875 7.75765625 -15.44921875 8.41765625 -15.44921875 9.09765625 C-17.75921875 9.75765625 -20.06921875 10.41765625 -22.44921875 11.09765625 C-20.23216556 6.50958785 -18.17132738 5.13002078 -13.44921875 3.34765625 C-11.87140625 2.73664062 -11.87140625 2.73664062 -10.26171875 2.11328125 C-6.63349763 0.80309029 -3.8449535 -0.02580506 0 0 Z " fill="#8F8F8F" transform="translate(71.44921875,28.90234375)"/>
<path d="M0 0 C0.66 0 1.32 0 2 0 C1.33989524 2.84550012 0.48275034 5.52325999 -0.5625 8.25 C-0.83191406 8.95640625 -1.10132813 9.6628125 -1.37890625 10.390625 C-1.58386719 10.92171875 -1.78882813 11.4528125 -2 12 C2.66154042 10.50164772 3.86610751 7.11536409 6 3 C6.66 3 7.32 3 8 3 C7.04870572 7.5910289 5.03865556 11.42809848 2 15 C-0.6875 15.625 -0.6875 15.625 -3 15 C-3.66 14.34 -4.32 13.68 -5 13 C-4.96712417 10.27130593 -4.43602229 7.7033382 -4 5 C-3.01 4.67 -2.02 4.34 -1 4 C-0.26676204 1.98491642 -0.26676204 1.98491642 0 0 Z " fill="#909090" transform="translate(46,128)"/>
<path d="M0 0 C0.66 0 1.32 0 2 0 C2 1.98 2 3.96 2 6 C3.98 6 5.96 6 8 6 C8 6.66 8 7.32 8 8 C6.02 8.33 4.04 8.66 2 9 C2 11.64 2 14.28 2 17 C1.67 17 1.34 17 1 17 C1 14.69 1 12.38 1 10 C0.33613281 10.15597656 -0.32773437 10.31195313 -1.01171875 10.47265625 C-1.89472656 10.66730469 -2.77773438 10.86195312 -3.6875 11.0625 C-4.55761719 11.25972656 -5.42773438 11.45695312 -6.32421875 11.66015625 C-9.16001276 12.02032279 -11.24789982 11.70909969 -14 11 C-14 10.34 -14 9.68 -14 9 C-7.07 8.01 -7.07 8.01 0 7 C0 4.69 0 2.38 0 0 Z " fill="#8A8A8A" transform="translate(28,70)"/>
<path d="M0 0 C2 0 4 0 6 0 C7.4807848 2.9615696 7.35314037 5.83506295 7.5625 9.125 C7.64628906 10.40632813 7.73007812 11.68765625 7.81640625 13.0078125 C7.87699219 13.99523437 7.93757813 14.98265625 8 16 C10.31 16.33 12.62 16.66 15 17 C15 17.33 15 17.66 15 18 C12.36 18 9.72 18 7 18 C4.78600697 14.20458337 3.99019802 10.24370579 3 6 C2.34 6 1.68 6 1 6 C-0.63676257 7.9600281 -0.63676257 7.9600281 -2 10 C-2.22036864 6.14354879 -1.60355101 3.50776784 0 0 Z " fill="#9A9A9A" transform="translate(44,80)"/>
<path d="M0 0 C1.65 0 3.3 0 5 0 C5.66 0.66 6.32 1.32 7 2 C6.625 4.125 6.625 4.125 6 6 C6 5.01 6 4.02 6 3 C4.68 3 3.36 3 2 3 C2 4.32 2 5.64 2 7 C2.99 7 3.98 7 5 7 C5.33 9.64 5.66 12.28 6 15 C5.01 14.67 4.02 14.34 3 14 C3 13.01 3 12.02 3 11 C2.34 11 1.68 11 1 11 C0.67 11.99 0.34 12.98 0 14 C-0.66 14 -1.32 14 -2 14 C-1.34 9.38 -0.68 4.76 0 0 Z " fill="#909090" transform="translate(67,137)"/>
<path d="M0 0 C0.66 0 1.32 0 2 0 C6.01880768 7.55406899 9.67296379 14.44798884 11 23 C9.125 22.84375 9.125 22.84375 7 22 C5.875 19.59375 5.875 19.59375 5 16.5 C3.3748483 11.10862373 1.41276598 6.0822092 -1 1 C-0.67 0.67 -0.34 0.34 0 0 Z " fill="#A9A9A9" transform="translate(147,38)"/>
<path d="M0 0 C0.99 0 1.98 0 3 0 C3 0.99 3 1.98 3 3 C2.34 3 1.68 3 1 3 C1 3.99 1 4.98 1 6 C2.65 5.67 4.3 5.34 6 5 C6 8 6 8 5 11 C6.98 10.67 8.96 10.34 11 10 C10.01 11.32 9.02 12.64 8 14 C3.75153925 13.52794881 1.73180712 11.11122478 -1 8 C-1 7.34 -1 6.68 -1 6 C-1.66 6 -2.32 6 -3 6 C-3 5.01 -3 4.02 -3 3 C-2.34 3 -1.68 3 -1 3 C-0.67 2.01 -0.34 1.02 0 0 Z " fill="#A6A6A6" transform="translate(119,121)"/>
<path d="M0 0 C0.66 0 1.32 0 2 0 C2.33 1.32 2.66 2.64 3 4 C3.66 2.68 4.32 1.36 5 0 C5.99 0 6.98 0 8 0 C7.01 2.97 6.02 5.94 5 9 C5.66 9 6.32 9 7 9 C7.33 10.65 7.66 12.3 8 14 C5 13 5 13 3.8125 10.9375 C3.544375 10.298125 3.27625 9.65875 3 9 C2.67 10.65 2.34 12.3 2 14 C1.34 14 0.68 14 0 14 C0 9.38 0 4.76 0 0 Z " fill="#888888" transform="translate(78,9)"/>
<path d="M0 0 C0 0.66 0 1.32 0 2 C-0.66 2 -1.32 2 -2 2 C-1.01 3.485 -1.01 3.485 0 5 C0.99 5 1.98 5 3 5 C2.67 6.65 2.34 8.3 2 10 C3.65 10 5.3 10 7 10 C6.67 10.99 6.34 11.98 6 13 C4.35 13.33 2.7 13.66 1 14 C-0.17232685 12.3790787 -1.3377077 10.75313167 -2.5 9.125 C-3.1496875 8.22007812 -3.799375 7.31515625 -4.46875 6.3828125 C-6 4 -6 4 -6 2 C-3 0 -3 0 0 0 Z " fill="#989898" transform="translate(114,128)"/>
<path d="M0 0 C0.268125 1.2375 0.53625 2.475 0.8125 3.75 C1.64498853 7.17044202 2.83472755 9.21607827 5 12 C4.67 12.99 4.34 13.98 4 15 C-1.78461538 10.56923077 -1.78461538 10.56923077 -2.875 7.6875 C-2.91625 7.130625 -2.9575 6.57375 -3 6 C-4.32 6.33 -5.64 6.66 -7 7 C-6.61402985 4.20171644 -6.19863427 3.1794116 -4.0625 1.25 C-2 0 -2 0 0 0 Z " fill="#B6B6B6" transform="translate(42,20)"/>
<path d="M0 0 C1.98 0 3.96 0 6 0 C5.67 0.66 5.34 1.32 5 2 C4.34 2 3.68 2 3 2 C3 2.99 3 3.98 3 5 C4.32 5 5.64 5 7 5 C7 5.66 7 6.32 7 7 C6.01 7.495 6.01 7.495 5 8 C5 8.66 5 9.32 5 10 C6.32 10.33 7.64 10.66 9 11 C9 11.66 9 12.32 9 13 C8.01 13 7.02 13 6 13 C6 13.66 6 14.32 6 15 C5.01 15 4.02 15 3 15 C2.49564306 13.0636296 1.99666126 11.12585854 1.5 9.1875 C1.2215625 8.10855469 0.943125 7.02960937 0.65625 5.91796875 C0 3 0 3 0 0 Z " fill="#8F8F8F" transform="translate(60,11)"/>
<path d="M0 0 C0.99 0 1.98 0 3 0 C0.97565711 7.34591094 -1.59283444 14.18566888 -5 21 C-6.32 20.67 -7.64 20.34 -9 20 C-8.67386719 19.53851563 -8.34773437 19.07703125 -8.01171875 18.6015625 C-4.87945629 13.92626809 -3.02512688 9.53623235 -1.578125 4.1015625 C-1 2 -1 2 0 0 Z " fill="#ABABAB" transform="translate(155,100)"/>
<path d="M0 0 C-4.7970816 4.7970816 -12.63637148 5.15906447 -19.1340332 5.20654297 C-22.09112519 5.17912017 -25.04480112 5.10767931 -28 5 C-28 4.34 -28 3.68 -28 3 C-26.62328125 2.92652344 -26.62328125 2.92652344 -25.21875 2.8515625 C-17.27888148 2.44248639 -17.27888148 2.44248639 -9.5 0.9375 C-6.15405159 0.04126382 -3.44137298 -0.17206865 0 0 Z " fill="#969596" transform="translate(100,127)"/>
<path d="M0 0 C1.9375 0.3125 1.9375 0.3125 4 1 C5.00496852 4.01490557 5.10335303 6.04181692 5.0625 9.1875 C5.05347656 10.08855469 5.04445313 10.98960938 5.03515625 11.91796875 C5.02355469 12.60503906 5.01195312 13.29210937 5 14 C4.34 13.34 3.68 12.68 3 12 C2.67 12.99 2.34 13.98 2 15 C1.34 15 0.68 15 0 15 C0 10 0 5 0 0 Z " fill="#BBBBBB" transform="translate(41,64)"/>
<path d="M0 0 C3.00024947 -0.05444001 5.99949039 -0.0938836 9 -0.125 C9.83917969 -0.14175781 10.67835937 -0.15851562 11.54296875 -0.17578125 C17.05254877 -0.21849117 21.71048292 0.44497993 27 2 C26.01 3.485 26.01 3.485 25 5 C21.58141112 4.75063462 18.16584851 4.47178097 14.75 4.1875 C13.78191406 4.11724609 12.81382813 4.04699219 11.81640625 3.97460938 C10.41455078 3.85375977 10.41455078 3.85375977 8.984375 3.73046875 C8.12553711 3.66239014 7.26669922 3.59431152 6.38183594 3.52416992 C3.62342479 2.91712721 2.12125437 1.82711282 0 0 Z " fill="#B1B1B1" transform="translate(69,28)"/>
<path d="M0 0 C5.78706199 5.48247978 5.78706199 5.48247978 7 9 C6.67 9.66 6.34 10.32 6 11 C4.00045254 11.04254356 1.99958364 11.04080783 0 11 C-1 10 -1 10 -1.1328125 7.96875 C-1.13023438 7.1540625 -1.12765625 6.339375 -1.125 5.5 C-1.12757812 4.6853125 -1.13015625 3.870625 -1.1328125 3.03125 C-1 1 -1 1 0 0 Z " fill="#EDEDED" transform="translate(118,75)"/>
<path d="M0 0 C1.65 0 3.3 0 5 0 C4.95875 1.093125 4.9175 2.18625 4.875 3.3125 C4.67925334 7.08892229 4.67925334 7.08892229 7 10 C7 11.32 7 12.64 7 14 C6.34 14 5.68 14 5 14 C4.67 12.68 4.34 11.36 4 10 C3.34 10 2.68 10 2 10 C1.67 8.02 1.34 6.04 1 4 C0.01 4 -0.98 4 -2 4 C-1.34 2.68 -0.68 1.36 0 0 Z " fill="#AAAAAA" transform="translate(102,132)"/>
<path d="M0 0 C3.69230769 0.69230769 3.69230769 0.69230769 5 2 C5.07226502 3.85287502 5.0838122 5.70833878 5.0625 7.5625 C5.05347656 8.57441406 5.04445313 9.58632813 5.03515625 10.62890625 C5.02355469 11.41136719 5.01195313 12.19382812 5 13 C4.34 12.34 3.68 11.68 3 11 C2.67 12.32 2.34 13.64 2 15 C1.34 15 0.68 15 0 15 C-0.02708567 13.39592672 -0.04643483 11.7917215 -0.0625 10.1875 C-0.07410156 9.29417969 -0.08570312 8.40085937 -0.09765625 7.48046875 C0 5 0 5 1 2 C0.34 1.67 -0.32 1.34 -1 1 C-0.67 0.67 -0.34 0.34 0 0 Z " fill="#BEBEBE" transform="translate(81,53)"/>
<path d="M0 0 C0.125 6.625 0.125 6.625 -1 10 C-1.99 10 -2.98 10 -4 10 C-4.66 10.99 -5.32 11.98 -6 13 C-6.98248524 8.9472484 -7.08159574 5.16138263 -7 1 C-6.34 2.32 -5.68 3.64 -5 5 C-4.87625 4.360625 -4.7525 3.72125 -4.625 3.0625 C-4.41875 2.381875 -4.2125 1.70125 -4 1 C-2 0 -2 0 0 0 Z " fill="#B0B0B0" transform="translate(61,82)"/>
<path d="M0 0 C0.8125 1.6875 0.8125 1.6875 1 4 C-1.32315341 7.00643383 -2.88016358 8.73337228 -6.625 9.625 C-9 9 -9 9 -10.875 6.625 C-11.24625 5.75875 -11.6175 4.8925 -12 4 C-11.67 3.34 -11.34 2.68 -11 2 C-10.67 2.33 -10.34 2.66 -10 3 C-9.34 2.34 -8.68 1.68 -8 1 C-8 2.32 -8 3.64 -8 5 C-5.05908413 4.81584568 -5.05908413 4.81584568 -2 4 C-0.56362302 2.04836882 -0.56362302 2.04836882 0 0 Z " fill="#9F9F9F" transform="translate(144,80)"/>
<path d="M0 0 C0.515625 0.45375 1.03125 0.9075 1.5625 1.375 C4.57300574 3.38200383 7.50927237 4.12731809 11 5 C9.875 6.5625 9.875 6.5625 8 8 C4.14751405 7.75921963 2.23960066 7.15973378 -1 5 C-1 6.65 -1 8.3 -1 10 C-1.33 10 -1.66 10 -2 10 C-2 7.69 -2 5.38 -2 3 C-1.34 2.67 -0.68 2.34 0 2 C0 1.34 0 0.68 0 0 Z " fill="#A3A3A3" transform="translate(85,86)"/>
<path d="M0 0 C0.99 0.33 1.98 0.66 3 1 C2.67 4.96 2.34 8.92 2 13 C2.66 13 3.32 13 4 13 C4.33 9.7 4.66 6.4 5 3 C5.33 3 5.66 3 6 3 C6.05429959 4.74965358 6.09292823 6.49979787 6.125 8.25 C6.14820313 9.22453125 6.17140625 10.1990625 6.1953125 11.203125 C5.99862781 14.0196498 5.44568916 15.60949036 4 18 C4 17.34 4 16.68 4 16 C3.01 15.67 2.02 15.34 1 15 C0.67 10.05 0.34 5.1 0 0 Z " fill="#969696" transform="translate(39,66)"/>
<path d="M0 0 C2.96175123 0.61277612 4.38058783 1.25372522 7 3 C7 3.66 7 4.32 7 5 C6.39671875 5.09152344 5.7934375 5.18304687 5.171875 5.27734375 C2.46742737 6.17720492 1.7917686 7.20702019 0.25 9.5625 C-0.17796875 10.20316406 -0.6059375 10.84382813 -1.046875 11.50390625 C-1.36140625 11.99761719 -1.6759375 12.49132813 -2 13 C-2.99 12.67 -3.98 12.34 -5 12 C-4.6390625 11.46890625 -4.278125 10.9378125 -3.90625 10.390625 C-3.4421875 9.68421875 -2.978125 8.9778125 -2.5 8.25 C-2.0359375 7.55390625 -1.571875 6.8578125 -1.09375 6.140625 C0.30333102 3.80698194 0.30333102 3.80698194 0 0 Z " fill="#ACACAC" transform="translate(118,21)"/>
<path d="M0 0 C0.99 0 1.98 0 3 0 C3 0.66 3 1.32 3 2 C-1.43076255 6.02796595 -6.65858561 9.32929281 -12 12 C-12.66 11.67 -13.32 11.34 -14 11 C-11.55237648 8.35786336 -8.84117309 6.40721772 -5.875 4.375 C-2.79611641 2.36194568 -2.79611641 2.36194568 0 0 Z " fill="#8F8F8F" transform="translate(131,138)"/>
<path d="M0 0 C0.99 0.33 1.98 0.66 3 1 C3 2.65 3 4.3 3 6 C4.0725 5.67 5.145 5.34 6.25 5 C10 4 10 4 14 4 C13.67 4.99 13.34 5.98 13 7 C11.00390625 7.80078125 11.00390625 7.80078125 8.5625 8.3125 C7.75941406 8.49425781 6.95632812 8.67601562 6.12890625 8.86328125 C5.42636719 8.90839844 4.72382813 8.95351563 4 9 C3.34 8.34 2.68 7.68 2 7 C1.01 7.495 1.01 7.495 0 8 C0 5.36 0 2.72 0 0 Z " fill="#9E9E9E" transform="translate(131,54)"/>
<path d="M0 0 C0.66 0 1.32 0 2 0 C2 0.66 2 1.32 2 2 C3.32 2.33 4.64 2.66 6 3 C5.01 3.33 4.02 3.66 3 4 C2.01 5.485 2.01 5.485 1 7 C0.67 6.67 0.34 6.34 0 6 C-0.33 8.64 -0.66 11.28 -1 14 C-2.5625 12.375 -2.5625 12.375 -4 10 C-3.82495637 5.79895295 -2.93059323 3.04781696 0 0 Z " fill="#A7A7A7" transform="translate(118,70)"/>
<path d="M0 0 C0.66 0 1.32 0 2 0 C2.33 1.32 2.66 2.64 3 4 C5.97 4.495 5.97 4.495 9 5 C8.01 5.66 7.02 6.32 6 7 C6.33 8.98 6.66 10.96 7 13 C4 12 4 12 2.83203125 10.0390625 C2.49558594 9.24242187 2.15914062 8.44578125 1.8125 7.625 C1.46832031 6.83351563 1.12414063 6.04203125 0.76953125 5.2265625 C0 3 0 3 0 0 Z " fill="#A0A0A0" transform="translate(46,17)"/>
<path d="M0 0 C0.33 0.66 0.66 1.32 1 2 C-13.85 1.505 -13.85 1.505 -29 1 C-29 0.67 -29 0.34 -29 0 C-25.85483435 -0.2000026 -22.70887688 -0.38264359 -19.5625 -0.5625 C-18.68400391 -0.61857422 -17.80550781 -0.67464844 -16.90039062 -0.73242188 C-11.12630285 -1.05202083 -5.71498536 -0.95535791 0 0 Z " fill="#ABABAB" transform="translate(99,2)"/>
<path d="M0 0 C1.32 0 2.64 0 4 0 C3.5020163 3.73487777 3.12508244 5.81237635 1 9 C0.01 9 -0.98 9 -2 9 C-2.25 3.375 -2.25 3.375 0 0 Z " fill="#F1F1F1" transform="translate(108,18)"/>
<path d="M0 0 C2 1 2 1 3 3 C1.56328432 3.64757625 0.12559584 4.29299453 -1.3125 4.9375 C-2.11300781 5.29714844 -2.91351563 5.65679688 -3.73828125 6.02734375 C-6 7 -6 7 -9 8 C-9.99 7.34 -10.98 6.68 -12 6 C-10.04669132 4.96958487 -8.08718472 3.9509107 -6.125 2.9375 C-5.03445312 2.36902344 -3.94390625 1.80054688 -2.8203125 1.21484375 C-1.42425781 0.61349609 -1.42425781 0.61349609 0 0 Z " fill="#A4A4A4" transform="translate(50,5)"/>
<path d="M0 0 C0.66 0 1.32 0 2 0 C1.55643705 6.20988129 0.08467498 10.60540561 -3 16 C-3.33 16 -3.66 16 -4 16 C-3.39891424 10.34979382 -1.92471317 5.33835539 0 0 Z " fill="#8D8D8D" transform="translate(129,88)"/>
<path d="M0 0 C0 0.66 0 1.32 0 2 C-1.98 2.66 -3.96 3.32 -6 4 C-6 4.66 -6 5.32 -6 6 C-8.31 6.66 -10.62 7.32 -13 8 C-10.14285271 2.12697501 -6.51752775 0 0 0 Z " fill="#999999" transform="translate(62,32)"/>
<path d="M0 0 C1.49838501 2.37978795 2.02556668 3.65911099 1.8125 6.5 C0.92576682 9.2284098 -0.01076408 10.93425501 -2 13 C-2.99 13 -3.98 13 -5 13 C-4.731875 12.34 -4.46375 11.68 -4.1875 11 C-2.74294953 7.35060933 -1.37128822 3.67754567 0 0 Z " fill="#ACACAC" transform="translate(25,92)"/>
<path d="M0 0 C2 0 4 0 6 0 C5.67 2.64 5.34 5.28 5 8 C3.68 7.34 2.36 6.68 1 6 C0.01 7.32 -0.98 8.64 -2 10 C-2.22036864 6.14354879 -1.60355101 3.50776784 0 0 Z " fill="#A1A1A1" transform="translate(44,80)"/>
<path d="M0 0 C4.95 1.98 4.95 1.98 10 4 C9.01 5.485 9.01 5.485 8 7 C0.42857143 5.14285714 0.42857143 5.14285714 -2 2 C-1.34 2 -0.68 2 0 2 C0 1.34 0 0.68 0 0 Z " fill="#9E9E9E" transform="translate(42,147)"/>
<path d="M0 0 C0.33 1.32 0.66 2.64 1 4 C1.99 4 2.98 4 4 4 C4.33 3.01 4.66 2.02 5 1 C5.33 3.31 5.66 5.62 6 8 C5.34 8 4.68 8 4 8 C4 7.34 4 6.68 4 6 C2.68 6 1.36 6 0 6 C0 6.66 0 7.32 0 8 C-0.66 8 -1.32 8 -2 8 C-1.125 1.125 -1.125 1.125 0 0 Z " fill="#868686" transform="translate(80,143)"/>
<path d="M0 0 C0.66 0 1.32 0 2 0 C0.98425197 7.4488189 0.98425197 7.4488189 -1 10 C-4.125 10.75 -4.125 10.75 -7 11 C-7 8 -7 8 -6 6 C-4.02 6.495 -4.02 6.495 -2 7 C-1.34 4.69 -0.68 2.38 0 0 Z " fill="#9E9E9E" transform="translate(67,88)"/>
<path d="M0 0 C0.66 0 1.32 0 2 0 C1.84518205 2.70931419 1.51827919 4.46584039 -0.40234375 6.4453125 C-1.89771708 7.67679642 -3.4462924 8.8429837 -5 10 C-5.66 9.67 -6.32 9.34 -7 9 C-7 7 -7 7 -4.625 4.5 C-3.75875 3.675 -2.8925 2.85 -2 2 C-1.34 1.34 -0.68 0.68 0 0 Z " fill="#909090" transform="translate(91,73)"/>
<path d="M0 0 C-2.41930709 2.41930709 -4.15707218 2.79442204 -7.4375 3.6875 C-8.40558594 3.95949219 -9.37367187 4.23148437 -10.37109375 4.51171875 C-13 5 -13 5 -16 4 C-11.26264015 0.8417601 -5.69043486 -2.27617394 0 0 Z " fill="#A2A2A2" transform="translate(67,2)"/>
<path d="M0 0 C0.33 0.99 0.66 1.98 1 3 C1.99 3 2.98 3 4 3 C5.6875 4.25 5.6875 4.25 7 6 C7 7.32 7 8.64 7 10 C6.01 9.67 5.02 9.34 4 9 C4 8.01 4 7.02 4 6 C3.34 6 2.68 6 2 6 C1.67 6.99 1.34 7.98 1 9 C0.34 9 -0.32 9 -1 9 C-0.67 6.03 -0.34 3.06 0 0 Z " fill="#AAAAAA" transform="translate(66,142)"/>
<path d="M0 0 C0.66 0 1.32 0 2 0 C4.28571429 8.42857143 4.28571429 8.42857143 4 13 C2.68 12.67 1.36 12.34 0 12 C0 8.04 0 4.08 0 0 Z " fill="#898989" transform="translate(96,136)"/>
<path d="M0 0 C0.66 0 1.32 0 2 0 C1.33717447 2.7826166 0.56760146 5.48638937 -0.375 8.1875 C-0.60960937 8.88230469 -0.84421875 9.57710937 -1.0859375 10.29296875 C-2 12 -2 12 -5 13 C-4.67 10.36 -4.34 7.72 -4 5 C-3.01 4.67 -2.02 4.34 -1 4 C-0.26676204 1.98491642 -0.26676204 1.98491642 0 0 Z " fill="#A0A0A0" transform="translate(46,128)"/>
<path d="M0 0 C1.65 0 3.3 0 5 0 C5 1.32 5 2.64 5 4 C6.98 3.67 8.96 3.34 11 3 C10.01 4.32 9.02 5.64 8 7 C6.25 6.875 6.25 6.875 4 6 C1.75 2.9375 1.75 2.9375 0 0 Z " fill="#929292" transform="translate(119,128)"/>
<path d="M0 0 C3.47132095 1.40929697 4.88093274 2.90605083 6.75 6.125 C7.39195313 7.21167969 7.39195313 7.21167969 8.046875 8.3203125 C8.51867187 9.15175781 8.51867187 9.15175781 9 10 C4.36771604 9.1883605 2.71297718 6.76802386 0 3 C0 2.01 0 1.02 0 0 Z " fill="#A1A1A1" transform="translate(35,104)"/>
<path d="M0 0 C0.66 0 1.32 0 2 0 C2.66 1.65 3.32 3.3 4 5 C3.01 5 2.02 5 1 5 C1 7.31 1 9.62 1 12 C0.34 12 -0.32 12 -1 12 C-1.02687279 10.18757948 -1.04633715 8.37504767 -1.0625 6.5625 C-1.07410156 5.55316406 -1.08570312 4.54382813 -1.09765625 3.50390625 C-1 1 -1 1 0 0 Z " fill="#838383" transform="translate(82,84)"/>
<path d="M0 0 C0.33 0.99 0.66 1.98 1 3 C1.66 3 2.32 3 3 3 C3.33 4.98 3.66 6.96 4 9 C3.34 8.67 2.68 8.34 2 8 C1.67 8.99 1.34 9.98 1 11 C0.34 11 -0.32 11 -1 11 C-1.125 3.375 -1.125 3.375 0 0 Z " fill="#B3B3B3" transform="translate(91,13)"/>
<path d="M0 0 C1.3805087 3.76668598 0.59568159 6.44789173 -0.4375 10.25 C-0.72496094 11.32765625 -1.01242188 12.4053125 -1.30859375 13.515625 C-1.53675781 14.33546875 -1.76492187 15.1553125 -2 16 C-2.97591583 12.61682513 -2.85856655 10.4342662 -2 7 C-2.66 7 -3.32 7 -4 7 C-4 5.35 -4 3.7 -4 2 C-3.01 2.495 -3.01 2.495 -2 3 C-1.34 2.01 -0.68 1.02 0 0 Z " fill="#969696" transform="translate(45,85)"/>
<path d="M0 0 C2 1 2 1 2.66796875 2.92578125 C2.83941406 3.71339844 3.01085937 4.50101562 3.1875 5.3125 C3.36667969 6.09238281 3.54585937 6.87226562 3.73046875 7.67578125 C4.01642142 10.14160498 3.85557282 11.68055693 3 14 C2.34 14.66 1.68 15.32 1 16 C0.67 10.72 0.34 5.44 0 0 Z " fill="#989898" transform="translate(156,60)"/>
<path d="M0 0 C0.66 0 1.32 0 2 0 C2 1.65 2 3.3 2 5 C2.66 5.33 3.32 5.66 4 6 C3.67 6.33 3.34 6.66 3 7 C2.63239269 9.32817964 2.29758419 11.6618385 2 14 C1.34 14 0.68 14 0 14 C0 9.38 0 4.76 0 0 Z " fill="#848484" transform="translate(78,9)"/>
<path d="M0 0 C0.33 1.65 0.66 3.3 1 5 C-0.32 5 -1.64 5 -3 5 C-3 4.01 -3 3.02 -3 2 C-3.763125 2.165 -4.52625 2.33 -5.3125 2.5 C-8 3 -8 3 -11 3 C-8.21756596 -1.17365106 -4.53441502 -0.22300402 0 0 Z " fill="#ABABAB" transform="translate(43,122)"/>
<path d="M0 0 C0.66 0.66 1.32 1.32 2 2 C1.625 5.125 1.625 5.125 1 8 C-0.65 7.67 -2.3 7.34 -4 7 C-2.92598892 4.08482708 -2.22189824 2.22189824 0 0 Z " fill="#B7B7B7" transform="translate(58,135)"/>
<path d="M0 0 C0.66 1.32 1.32 2.64 2 4 C0.35 6.31 -1.3 8.62 -3 11 C-3.66 10.01 -4.32 9.02 -5 8 C-3.35 5.36 -1.7 2.72 0 0 Z " fill="#A3A3A3" transform="translate(124,102)"/>
<path d="M0 0 C4.97306516 0.49730652 8.63799813 1.55302334 13 4 C13 4.66 13 5.32 13 6 C11.39253944 5.57476184 9.78910164 5.13429874 8.1875 4.6875 C7.29417969 4.44386719 6.40085937 4.20023438 5.48046875 3.94921875 C2.94752262 2.9799181 1.7283504 2.04990396 0 0 Z " fill="#8D8D8D" transform="translate(93,31)"/>
<path d="M0 0 C0.99 0.33 1.98 0.66 3 1 C3 2.32 3 3.64 3 5 C4.65 5.33 6.3 5.66 8 6 C7.34 6.66 6.68 7.32 6 8 C1.44444444 7.44444444 1.44444444 7.44444444 0 6 C-0.04080783 4.00041636 -0.04254356 1.99954746 0 0 Z " fill="#A1A1A1" transform="translate(103,22)"/>
<path d="M0 0 C2.3129482 2.3129482 2.49580975 3.47904875 3.125 6.625 C3.29257813 7.44226562 3.46015625 8.25953125 3.6328125 9.1015625 C3.81457031 10.04128906 3.81457031 10.04128906 4 11 C2.68 10.67 1.36 10.34 0 10 C-1.125 3.375 -1.125 3.375 0 0 Z " fill="#AEAEAE" transform="translate(154,50)"/>
<path d="M0 0 C0.99 0.33 1.98 0.66 3 1 C3 2.98 3 4.96 3 7 C0 8 0 8 -3 7 C-3 5.68 -3 4.36 -3 3 C-1.68 2.67 -0.36 2.34 1 2 C0.67 1.34 0.34 0.68 0 0 Z " fill="#B4B4B4" transform="translate(72,137)"/>
<path d="M0 0 C0.66 0.33 1.32 0.66 2 1 C1.0409375 1.804375 1.0409375 1.804375 0.0625 2.625 C-2.38529404 5.44367193 -2.66714612 7.33860732 -3 11 C-3.66 11 -4.32 11 -5 11 C-5.8125 8.8125 -5.8125 8.8125 -6 6 C-3.625 3.25 -3.625 3.25 -1 1 C-0.67 0.67 -0.34 0.34 0 0 Z " fill="#8E8E8E" transform="translate(36,123)"/>
<path d="M0 0 C4.20390632 1.50139512 5.89110738 4.17275043 8 8 C7.67 8.99 7.34 9.98 7 11 C5.82750647 9.54634731 4.66216184 8.08692581 3.5 6.625 C2.52546875 5.40683594 2.52546875 5.40683594 1.53125 4.1640625 C0 2 0 2 0 0 Z " fill="#8E8E8E" transform="translate(139,28)"/>
<path d="M0 0 C0.66 0 1.32 0 2 0 C0.63312778 3.98671063 -1.15195093 6.88494633 -4 10 C-4.66 10 -5.32 10 -6 10 C-4.63312778 6.01328937 -2.84804907 3.11505367 0 0 Z " fill="#999999" transform="translate(146,121)"/>
<path d="M0 0 C1.39195915 4.17587745 -0.17676781 6.13474776 -2 10 C-2.66 10 -3.32 10 -4 10 C-3.38461538 3.47692308 -3.38461538 3.47692308 -1.4375 1.0625 C-0.7259375 0.5365625 -0.7259375 0.5365625 0 0 Z " fill="#989898" transform="translate(35,55)"/>
<path d="M0 0 C-2.2528047 2.2528047 -3.39092488 2.5496379 -6.4375 3.25 C-7.21996094 3.44078125 -8.00242187 3.6315625 -8.80859375 3.828125 C-11 4 -11 4 -14 2 C-9.15758367 0.66416101 -5.06562383 -0.25328119 0 0 Z " fill="#8E8E8E" transform="translate(100,127)"/>
<path d="M0 0 C0.99 0.33 1.98 0.66 3 1 C2.67 4.3 2.34 7.6 2 11 C1.34 11 0.68 11 0 11 C0 7.37 0 3.74 0 0 Z " fill="#7F7F7F" transform="translate(80,69)"/>
<path d="M0 0 C0.66 0 1.32 0 2 0 C2.125 6.75 2.125 6.75 1 9 C0.34 9 -0.32 9 -1 9 C-1.09765625 2.84765625 -1.09765625 2.84765625 -1 1 C-0.67 0.67 -0.34 0.34 0 0 Z " fill="#E9E9E9" transform="translate(59,82)"/>
<path d="M0 0 C0.99 0.66 1.98 1.32 3 2 C3 3.32 3 4.64 3 6 C1.35 5.67 -0.3 5.34 -2 5 C-2 3.68 -2 2.36 -2 1 C-1.34 0.67 -0.68 0.34 0 0 Z " fill="#A4A4A4" transform="translate(124,73)"/>
<path d="M0 0 C0.33 0 0.66 0 1 0 C1 1.65 1 3.3 1 5 C1.99 5.33 2.98 5.66 4 6 C3.67 6.66 3.34 7.32 3 8 C2.34 8 1.68 8 1 8 C1 9.98 1 11.96 1 14 C0.67 14 0.34 14 0 14 C0 12.02 0 10.04 0 8 C-0.66 7.67 -1.32 7.34 -2 7 C-1.34 4.69 -0.68 2.38 0 0 Z " fill="#818181" transform="translate(132,56)"/>
<path d="M0 0 C0.99 0 1.98 0 3 0 C3.66 1.65 4.32 3.3 5 5 C4.01 5 3.02 5 2 5 C1.67 5.66 1.34 6.32 1 7 C0.34 5.02 -0.32 3.04 -1 1 C-0.67 0.67 -0.34 0.34 0 0 Z " fill="#E8E8E8" transform="translate(52,23)"/>
<path d="M0 0 C3.67230705 3.07999946 4.56802365 5.2482602 5 10 C4.34 10 3.68 10 3 10 C0 3.375 0 3.375 0 0 Z " fill="#969696" transform="translate(104,136)"/>
<path d="M0 0 C0.66 0.33 1.32 0.66 2 1 C1.8864371 2.64666203 1.75882619 4.29236082 1.625 5.9375 C1.52058594 7.31228516 1.52058594 7.31228516 1.4140625 8.71484375 C1.27742187 9.46894531 1.14078125 10.22304687 1 11 C0.01 11.495 0.01 11.495 -1 12 C-0.67 8.04 -0.34 4.08 0 0 Z " fill="#929292" transform="translate(157,89)"/>
<path d="M0 0 C1.32 0.33 2.64 0.66 4 1 C4 1.99 4 2.98 4 4 C-2.75 3.25 -2.75 3.25 -5 1 C-3.35 1 -1.7 1 0 1 C0 0.67 0 0.34 0 0 Z " fill="#B1B1B1" transform="translate(119,86)"/>
<path d="M0 0 C0.66 0 1.32 0 2 0 C0.68775452 3.93673644 -0.91910327 6.22719294 -4 9 C-3.4739075 5.21213403 -2.61896089 2.82847776 0 0 Z " fill="#8E8E8E" transform="translate(16,32)"/>
<path d="M0 0 C2.79651501 1.46817038 3.43411431 2.40553901 4.5 5.3125 C1.04074837 4.0633258 -1.64693203 2.63722205 -4.5 0.3125 C-2.5 -0.6875 -2.5 -0.6875 0 0 Z " fill="#9D9D9D" transform="translate(108.5,36.6875)"/>
<path d="M0 0 C-0.33 0.66 -0.66 1.32 -1 2 C-8.3625 3.425 -8.3625 3.425 -12 1 C-7.93631321 0.22596442 -4.13574827 -0.0984702 0 0 Z " fill="#989898" transform="translate(101,156)"/>
<path d="M0 0 C2 2 2 2 2.125 5.625 C2.08375 6.73875 2.0425 7.8525 2 9 C0.68 8.34 -0.64 7.68 -2 7 C-2.125 4.625 -2.125 4.625 -2 2 C-1.34 1.34 -0.68 0.68 0 0 Z " fill="#B2B2B2" transform="translate(92,142)"/>
<path d="M0 0 C2 1 2 1 2.8515625 3.28515625 C3.10679688 4.20167969 3.36203125 5.11820312 3.625 6.0625 C3.88539062 6.98160156 4.14578125 7.90070313 4.4140625 8.84765625 C4.60742188 9.55792969 4.80078125 10.26820312 5 11 C4.01 11.33 3.02 11.66 2 12 C0.85110867 8.06094403 0.47417305 4.06434042 0 0 Z " fill="#B4B4B4" transform="translate(6,104)"/>
<path d="M0 0 C0.99 0.33 1.98 0.66 3 1 C2.01 1.66 1.02 2.32 0 3 C-0.72965366 5.56282742 -0.72965366 5.56282742 -1 8 C-1.99 8 -2.98 8 -4 8 C-3.50168276 4.31245243 -2.89932357 2.39509338 0 0 Z " fill="#E5E5E5" transform="translate(37,124)"/>
<path d="M0 0 C0.8971875 0.309375 0.8971875 0.309375 1.8125 0.625 C0.69176138 1.46405565 -0.43424547 2.29607831 -1.5625 3.125 C-2.18898438 3.5890625 -2.81546875 4.053125 -3.4609375 4.53125 C-5.1875 5.625 -5.1875 5.625 -7.1875 5.625 C-5.69046729 2.17030914 -4.27938051 -0.73360809 0 0 Z " fill="#949494" transform="translate(39.1875,12.375)"/>
<path d="M0 0 C2.99324263 1.0975223 3.84610901 1.67682892 5.25 4.625 C5.4975 5.40875 5.745 6.1925 6 7 C5.01 7 4.02 7 3 7 C0 2.77777778 0 2.77777778 0 0 Z " fill="#959595" transform="translate(41,27)"/>
<path d="M0 0 C0 0.66 0 1.32 0 2 C-0.99 2 -1.98 2 -3 2 C-3 2.66 -3 3.32 -3 4 C-3.99 4 -4.98 4 -6 4 C-6.33 2.68 -6.66 1.36 -7 0 C-4.3333581 -1.33332095 -2.83319697 -0.67102033 0 0 Z " fill="#A0A0A0" transform="translate(69,22)"/>
<path d="M0 0 C0.99 0.33 1.98 0.66 3 1 C4.1875 4.5625 4.1875 4.5625 5 8 C2 7 2 7 0.8125 5.125 C0 3 0 3 0 0 Z " fill="#8A8A8A" transform="translate(48,22)"/>
<path d="M0 0 C0 3 0 3 -1.875 5.1875 C-4 7 -4 7 -6 7 C-5.37162381 3.35541809 -4.14650034 0 0 0 Z " fill="#949494" transform="translate(120,111)"/>
<path d="M0 0 C0 2.64 0 5.28 0 8 C-0.33 8 -0.66 8 -1 8 C-1 6.35 -1 4.7 -1 3 C-1.66 3 -2.32 3 -3 3 C-3.33 3.66 -3.66 4.32 -4 5 C-4.66 4.34 -5.32 3.68 -6 3 C-1.125 0 -1.125 0 0 0 Z " fill="#9C9C9C" transform="translate(41,93)"/>
<path d="M0 0 C0.99 0.33 1.98 0.66 3 1 C3.99 1 4.98 1 6 1 C4.02 2.32 2.04 3.64 0 5 C-0.99 4.34 -1.98 3.68 -3 3 C-2.01 2.01 -1.02 1.02 0 0 Z " fill="#AFAFAF" transform="translate(48,38)"/>
<path d="M0 0 C0.66 0.33 1.32 0.66 2 1 C0.68 3.31 -0.64 5.62 -2 8 C-2.33 8 -2.66 8 -3 8 C-3.36923077 3.44615385 -3.36923077 3.44615385 -1.5 1.1875 C-1.005 0.795625 -0.51 0.40375 0 0 Z " fill="#929292" transform="translate(107,16)"/>
<path d="M0 0 C0.33 0.99 0.66 1.98 1 3 C-1.375 4.5625 -1.375 4.5625 -4 6 C-4.66 5.67 -5.32 5.34 -6 5 C-4.06745228 2.9754262 -2.36841312 1.57894208 0 0 Z " fill="#989898" transform="translate(123,144)"/>
<path d="M0 0 C0.6875 1.75 0.6875 1.75 1 4 C-0.25 6.25 -0.25 6.25 -2 8 C-2.99 8 -3.98 8 -5 8 C-4.67 7.01 -4.34 6.02 -4 5 C-3.01 5 -2.02 5 -1 5 C-0.67 3.35 -0.34 1.7 0 0 Z " fill="#8F8F8F" transform="translate(25,97)"/>
<path d="M0 0 C0.66 0 1.32 0 2 0 C1.67 1.65 1.34 3.3 1 5 C0.01 5 -0.98 5 -2 5 C-2 2 -2 2 0 0 Z " fill="#9D9D9D" transform="translate(91,73)"/>
<path d="M0 0 C0.598125 0.20625 1.19625 0.4125 1.8125 0.625 C0.8225 1.12 0.8225 1.12 -0.1875 1.625 C0.1425 2.285 0.4725 2.945 0.8125 3.625 C-1.4975 3.625 -3.8075 3.625 -6.1875 3.625 C-4.74381887 0.73763775 -3.28406529 -0.56298262 0 0 Z " fill="#A7A7A7" transform="translate(106.1875,73.375)"/>
<path d="M0 0 C2.0625 0.4375 2.0625 0.4375 4 1 C3.67 1.66 3.34 2.32 3 3 C2.01 3 1.02 3 0 3 C0 3.66 0 4.32 0 5 C-0.66 5 -1.32 5 -2 5 C-1.125 1.125 -1.125 1.125 0 0 Z " fill="#A1A1A1" transform="translate(37,22)"/>
<path d="M0 0 C2.97 0.99 5.94 1.98 9 3 C7.02 3.99 7.02 3.99 5 5 C3.35 3.35 1.7 1.7 0 0 Z " fill="#A1A1A1" transform="translate(115,9)"/>
<path d="M0 0 C1.98 0.99 1.98 0.99 4 2 C4 3.65 4 5.3 4 7 C3.34 7 2.68 7 2 7 C0 4 0 4 0 0 Z " fill="#CACACA" transform="translate(79,140)"/>
<path d="M0 0 C-1.98 0.99 -3.96 1.98 -6 3 C-6.99 2.34 -7.98 1.68 -9 1 C-5.57367167 -0.61798838 -3.61944899 -1.34053666 0 0 Z " fill="#989898" transform="translate(106,125)"/>
<path d="M0 0 C0.99 0 1.98 0 3 0 C2.39816251 2.02045442 1.72693904 4.02111039 1 6 C0.01 6.495 0.01 6.495 -1 7 C-0.67 4.69 -0.34 2.38 0 0 Z " fill="#A4A4A4" transform="translate(155,100)"/>
<path d="M0 0 C0.66 0.99 1.32 1.98 2 3 C0.625 6.6875 0.625 6.6875 -1 10 C-1.33 10 -1.66 10 -2 10 C-2.22036864 6.14354879 -1.60355101 3.50776784 0 0 Z " fill="#C6C6C6" transform="translate(44,80)"/>
<path d="M0 0 C0.99 0.33 1.98 0.66 3 1 C2.34 1 1.68 1 1 1 C1.33 2.98 1.66 4.96 2 7 C1.01 6.67 0.02 6.34 -1 6 C-1.042721 4.33388095 -1.04063832 2.66617115 -1 1 C-0.67 0.67 -0.34 0.34 0 0 Z " fill="#959595" transform="translate(121,73)"/>
<path d="M0 0 C0.99 0 1.98 0 3 0 C3 3 3 3 2 5 C0.68 5 -0.64 5 -2 5 C-1.34 3.35 -0.68 1.7 0 0 Z " fill="#AFAFAF" transform="translate(36,51)"/>
<path d="M0 0 C0.66 0.99 1.32 1.98 2 3 C1.01 4.32 0.02 5.64 -1 7 C-1.66 6.67 -2.32 6.34 -3 6 C-1.125 1.125 -1.125 1.125 0 0 Z " fill="#A2A2A2" transform="translate(11,39)"/>
<path d="M0 0 C2.97 0.495 2.97 0.495 6 1 C5.67 1.99 5.34 2.98 5 4 C2.69 3.67 0.38 3.34 -2 3 C-1.34 2.01 -0.68 1.02 0 0 Z " fill="#C1C1C1" transform="translate(99,2)"/>
<path d="M0 0 C2 1 2 1 3 3 C0.625 3.625 0.625 3.625 -2 4 C-2.66 3.34 -3.32 2.68 -4 2 C-2.125 0.9375 -2.125 0.9375 0 0 Z " fill="#B3B3B3" transform="translate(50,5)"/>
<path d="M0 0 C0.185625 0.9590625 0.185625 0.9590625 0.375 1.9375 C0.684375 2.9584375 0.684375 2.9584375 1 4 C1.66 4.33 2.32 4.66 3 5 C1.35 5.33 -0.3 5.66 -2 6 C-1.125 1.125 -1.125 1.125 0 0 Z " fill="#909090" transform="translate(80,143)"/>
<path d="M0 0 C1.98 0.66 3.96 1.32 6 2 C6 2.66 6 3.32 6 4 C3.69 3.34 1.38 2.68 -1 2 C-0.67 1.34 -0.34 0.68 0 0 Z " fill="#949494" transform="translate(100,33)"/>
<path d="M0 0 C0.66 0 1.32 0 2 0 C2.66 1.65 3.32 3.3 4 5 C3.01 5.33 2.02 5.66 1 6 C0.67 4.02 0.34 2.04 0 0 Z " fill="#A5A5A5" transform="translate(52,14)"/>
<path d="M0 0 C1.32 0.66 2.64 1.32 4 2 C2.02 2.99 2.02 2.99 0 4 C-0.99 3.34 -1.98 2.68 -3 2 C-2.01 1.34 -1.02 0.68 0 0 Z " fill="#AAAAAA" transform="translate(48,150)"/>
<path d="M0 0 C-0.33 0.99 -0.66 1.98 -1 3 C-2.65 3.33 -4.3 3.66 -6 4 C-5.67 3.01 -5.34 2.02 -5 1 C-2 0 -2 0 0 0 Z " fill="#9D9D9D" transform="translate(121,138)"/>
<path d="M0 0 C1.32 1.65 2.64 3.3 4 5 C3.01 5.33 2.02 5.66 1 6 C0 5 0 5 -0.0625 2.4375 C-0.041875 1.633125 -0.02125 0.82875 0 0 Z " fill="#8F8F8F" transform="translate(113,135)"/>
<path d="M0 0 C1.32 0.33 2.64 0.66 4 1 C4 2.32 4 3.64 4 5 C3.34 4.67 2.68 4.34 2 4 C1.34 4 0.68 4 0 4 C0 2.68 0 1.36 0 0 Z " fill="#B1B1B1" transform="translate(36,128)"/>
<path d="M0 0 C0.33 0.99 0.66 1.98 1 3 C0.01 3.99 -0.98 4.98 -2 6 C-2.33 5.01 -2.66 4.02 -3 3 C-2.01 2.01 -1.02 1.02 0 0 Z " fill="#9C9C9C" transform="translate(122,107)"/>
<path d="M0 0 C0.33 0.99 0.66 1.98 1 3 C0.01 4.485 0.01 4.485 -1 6 C-1.99 5.67 -2.98 5.34 -4 5 C-3.34 4.01 -2.68 3.02 -2 2 C-1.34 2 -0.68 2 0 2 C0 1.34 0 0.68 0 0 Z " fill="#8E8E8E" transform="translate(126,82)"/>
<path d="M0 0 C0.99 0 1.98 0 3 0 C1.25 3.875 1.25 3.875 -1 5 C-0.67 3.35 -0.34 1.7 0 0 Z " fill="#999999" transform="translate(38,48)"/>
<path d="M0 0 C0.66 0 1.32 0 2 0 C2.33 1.65 2.66 3.3 3 5 C2.01 4.67 1.02 4.34 0 4 C-0.33 3.01 -0.66 2.02 -1 1 C-0.67 0.67 -0.34 0.34 0 0 Z " fill="#9D9D9D" transform="translate(147,38)"/>
<path d="M0 0 C1.32 0.33 2.64 0.66 4 1 C2.35 2.32 0.7 3.64 -1 5 C-1.66 4.67 -2.32 4.34 -3 4 C-2.01 2.68 -1.02 1.36 0 0 Z " fill="#E3E3E3" transform="translate(121,26)"/>
<path d="M0 0 C1.0625 1.875 1.0625 1.875 2 4 C1.67 4.66 1.34 5.32 1 6 C0.01 6 -0.98 6 -2 6 C-1.34 4.02 -0.68 2.04 0 0 Z " fill="#949494" transform="translate(111,22)"/>
<path d="M0 0 C0.66 0 1.32 0 2 0 C1.67 1.98 1.34 3.96 1 6 C0.34 6 -0.32 6 -1 6 C-0.67 4.02 -0.34 2.04 0 0 Z " fill="#979797" transform="translate(99,12)"/>
<path d="M0 0 C3.125 -0.1875 3.125 -0.1875 6 0 C3.08235 1.9451 1.37462715 2.45276317 -2 3 C-1.34 2.01 -0.68 1.02 0 0 Z " fill="#969696" transform="translate(53,4)"/>
<path d="M0 0 C1.98 0.495 1.98 0.495 4 1 C4 1.66 4 2.32 4 3 C2.35 2.67 0.7 2.34 -1 2 C-0.67 1.34 -0.34 0.68 0 0 Z " fill="#949494" transform="translate(38,146)"/>
<path d="M0 0 C0.33 0.66 0.66 1.32 1 2 C1.66 2.33 2.32 2.66 3 3 C1.02 3.99 1.02 3.99 -1 5 C-1.33 4.34 -1.66 3.68 -2 3 C-1.34 2.01 -0.68 1.02 0 0 Z " fill="#A2A2A2" transform="translate(53,142)"/>
<path d="M0 0 C0.66 0 1.32 0 2 0 C1.6875 1.9375 1.6875 1.9375 1 4 C0.01 4.33 -0.98 4.66 -2 5 C-1.34 3.35 -0.68 1.7 0 0 Z " fill="#8F8F8F" transform="translate(142,126)"/>
<path d="M0 0 C1.9375 0.3125 1.9375 0.3125 4 1 C4.33 1.99 4.66 2.98 5 4 C4.01 4 3.02 4 2 4 C1.34 2.68 0.68 1.36 0 0 Z " fill="#909090" transform="translate(42,114)"/>
<path d="M0 0 C1.32 0.33 2.64 0.66 4 1 C2.68 1.99 1.36 2.98 0 4 C-0.66 3.67 -1.32 3.34 -2 3 C-1.34 2.01 -0.68 1.02 0 0 Z " fill="#909090" transform="translate(51,36)"/>
<path d="M0 0 C0 3 0 3 -1 5 C-1.99 4.67 -2.98 4.34 -4 4 C-2.68 2.68 -1.36 1.36 0 0 Z " fill="#8F8F8F" transform="translate(117,29)"/>
<path d="M0 0 C0.33 0 0.66 0 1 0 C1 1.65 1 3.3 1 5 C-0.32 4.67 -1.64 4.34 -3 4 C-2.02727325 2.64664105 -1.0260734 1.31337396 0 0 Z " fill="#939393" transform="translate(99,144)"/>
<path d="M0 0 C0.33 1.32 0.66 2.64 1 4 C1.66 4 2.32 4 3 4 C2.67 4.99 2.34 5.98 2 7 C1.34 6.67 0.68 6.34 0 6 C0 4.02 0 2.04 0 0 Z " fill="#949494" transform="translate(26,90)"/>
<path d="M0 0 C2 2 2 2 2 5 C1.34 5 0.68 5 0 5 C0 4.34 0 3.68 0 3 C-0.66 3 -1.32 3 -2 3 C-1 1 -1 1 0 0 Z " fill="#ABABAB" transform="translate(124,53)"/>
<path d="M0 0 C0.66 0 1.32 0 2 0 C2 0.66 2 1.32 2 2 C2.66 2 3.32 2 4 2 C4 2.66 4 3.32 4 4 C3.01 4.33 2.02 4.66 1 5 C0.67 3.35 0.34 1.7 0 0 Z " fill="#BABABA" transform="translate(116,43)"/>
<path d="M0 0 C1.32 1.32 2.64 2.64 4 4 C3.01 4.33 2.02 4.66 1 5 C0.67 3.35 0.34 1.7 0 0 Z " fill="#A1A1A1" transform="translate(133,20)"/>
<path d="M0 0 C2 2 2 2 2 5 C1.01 4.67 0.02 4.34 -1 4 C-0.67 2.68 -0.34 1.36 0 0 Z " fill="#A3A3A3" transform="translate(84,18)"/>
<path d="M0 0 C0.99 0.33 1.98 0.66 3 1 C3 1.99 3 2.98 3 4 C2.01 3.67 1.02 3.34 0 3 C0 2.01 0 1.02 0 0 Z " fill="#DCDCDC" transform="translate(122,75)"/>
<path d="M0 0 C2.125 0.9375 2.125 0.9375 4 2 C2.125 2.625 2.125 2.625 0 3 C-0.66 2.34 -1.32 1.68 -2 1 C-1.34 0.67 -0.68 0.34 0 0 Z " fill="#AEAEAE" transform="translate(106,36)"/>
<path d="M0 0 C0.33 0.99 0.66 1.98 1 3 C-0.32 3.33 -1.64 3.66 -3 4 C-2.67 3.01 -2.34 2.02 -2 1 C-1.34 0.67 -0.68 0.34 0 0 Z " fill="#999999" transform="translate(119,26)"/>
<path d="M0 0 C1.67542976 0.28604898 3.34385343 0.61781233 5 1 C4.01 1.66 3.02 2.32 2 3 C1.01 2.34 0.02 1.68 -1 1 C-0.67 0.67 -0.34 0.34 0 0 Z " fill="#B2B2B2" transform="translate(39,10)"/>
<path d="M0 0 C0.99 0 1.98 0 3 0 C3 0.99 3 1.98 3 3 C2.01 3 1.02 3 0 3 C0 2.01 0 1.02 0 0 Z " fill="#EAEAEA" transform="translate(69,140)"/>
<path d="M0 0 C0.66 0 1.32 0 2 0 C1.67 1.32 1.34 2.64 1 4 C0.34 3.67 -0.32 3.34 -1 3 C-0.67 2.01 -0.34 1.02 0 0 Z " fill="#9F9F9F" transform="translate(52,131)"/>
<path d="M0 0 C0.66 0 1.32 0 2 0 C1.67 1.32 1.34 2.64 1 4 C0.34 4 -0.32 4 -1 4 C-0.67 2.68 -0.34 1.36 0 0 Z " fill="#8B8B8B" transform="translate(46,128)"/>
<path d="M0 0 C0.66 0 1.32 0 2 0 C1.67 1.32 1.34 2.64 1 4 C0.34 3.67 -0.32 3.34 -1 3 C-0.67 2.01 -0.34 1.02 0 0 Z " fill="#A4A4A4" transform="translate(129,88)"/>
<path d="M0 0 C0.66 0 1.32 0 2 0 C1.67 1.32 1.34 2.64 1 4 C0.34 4 -0.32 4 -1 4 C-0.67 2.68 -0.34 1.36 0 0 Z " fill="#888888" transform="translate(16,32)"/>
<path d="M0 0 C1.98 0.99 1.98 0.99 4 2 C2.68 2.33 1.36 2.66 0 3 C0 2.01 0 1.02 0 0 Z " fill="#8B8B8B" transform="translate(120,22)"/>
<path d="M0 0 C0.66 0 1.32 0 2 0 C2.33 1.32 2.66 2.64 3 4 C2.01 3.67 1.02 3.34 0 3 C0 2.01 0 1.02 0 0 Z " fill="#8C8C8C" transform="translate(46,17)"/>
<path d="M0 0 C0.99 0 1.98 0 3 0 C2.67 0.99 2.34 1.98 2 3 C1.01 2.67 0.02 2.34 -1 2 C-0.67 1.34 -0.34 0.68 0 0 Z " fill="#A4A4A4" transform="translate(83,9)"/>
<path d="M0 0 C0.99 0.33 1.98 0.66 3 1 C2.34 1.66 1.68 2.32 1 3 C0.01 2.34 -0.98 1.68 -2 1 C-1.34 0.67 -0.68 0.34 0 0 Z " fill="#B3B3B3" transform="translate(123,126)"/>
<path d="M0 0 C0.66 0.99 1.32 1.98 2 3 C1.01 3.495 1.01 3.495 0 4 C-0.66 3.34 -1.32 2.68 -2 2 C-1.34 1.34 -0.68 0.68 0 0 Z " fill="#A5A5A5" transform="translate(113,116)"/>
<path d="M0 0 C0.99 0 1.98 0 3 0 C2.34 1.32 1.68 2.64 1 4 C0.67 2.68 0.34 1.36 0 0 Z " fill="#949494" transform="translate(60,89)"/>
<path d="M0 0 C0.66 1.32 1.32 2.64 2 4 C1.01 3.67 0.02 3.34 -1 3 C-0.67 2.01 -0.34 1.02 0 0 Z " fill="#919191" transform="translate(51,26)"/>
<path d="M0 0 C0.66 0 1.32 0 2 0 C1.34 1.32 0.68 2.64 0 4 C0 2.68 0 1.36 0 0 Z " fill="#E8E8E8" transform="translate(65,18)"/>
<path d="M0 0 C0.99 0.33 1.98 0.66 3 1 C1.02 1.99 1.02 1.99 -1 3 C-0.67 2.01 -0.34 1.02 0 0 Z " fill="#858585" transform="translate(33,15)"/>
<path d="M0 0 C0.66 0.99 1.32 1.98 2 3 C1.34 3.66 0.68 4.32 0 5 C-0.33 4.01 -0.66 3.02 -1 2 C-0.67 1.34 -0.34 0.68 0 0 Z " fill="#989898" transform="translate(14,34)"/>
<path d="M0 0 C0.66 0.99 1.32 1.98 2 3 C1.01 3.33 0.02 3.66 -1 4 C-0.67 2.68 -0.34 1.36 0 0 Z " fill="#AEAEAE" transform="translate(58,24)"/>
<path d="M0 0 C0.66 0 1.32 0 2 0 C1.34 1.32 0.68 2.64 0 4 C-0.33 3.01 -0.66 2.02 -1 1 C-0.67 0.67 -0.34 0.34 0 0 Z " fill="#919191" transform="translate(82,12)"/>
<path d="M0 0 C0.99 0.33 1.98 0.66 3 1 C2.34 1.66 1.68 2.32 1 3 C0.67 2.01 0.34 1.02 0 0 Z " fill="#9C9C9C" transform="translate(140,84)"/>
<path d="M0 0 C0.99 0.33 1.98 0.66 3 1 C2.34 1.66 1.68 2.32 1 3 C0.67 2.01 0.34 1.02 0 0 Z " fill="#979797" transform="translate(118,47)"/>
<path d="M0 0 C0.66 0.66 1.32 1.32 2 2 C1.01 2.495 1.01 2.495 0 3 C-0.66 2.34 -1.32 1.68 -2 1 C-1.34 0.67 -0.68 0.34 0 0 Z " fill="#9C9C9C" transform="translate(36,13)"/>
</svg>
