<svg version="1.1" xmlns="http://www.w3.org/2000/svg" width="50" height="50" viewBox="0 0 1024 1024"><title></title><g id="icomoon-ignore"></g><path fill="" d="M512.038 561.916c-90.882 0-165.122-73.813-165.122-165.118 0-91.307 74.24-164.693 165.122-164.693 90.88 0 165.12 73.813 165.12 165.12 0 91.305-74.24 164.692-165.12 164.692zM512.038 296.104c-55.467 0-101.122 45.227-101.122 101.12 0 55.892 45.228 101.118 101.122 101.118s101.12-45.227 101.12-101.118c0-55.893-45.653-101.12-101.12-101.12z"></path><path fill="" d="M512.009 1024c-63.147 0-142.534-101.973-192.027-149.333-106.668-128-249.162-331.947-196.682-561.92 47.36-208.64 229.547-302.080 388.692-302.080 0 0 0 0 0.427 0 159.147 0 341.333 93.44 388.693 302.507 52.053 229.973-90.466 433.493-197.133 561.493-60.147 64-128.823 149.333-191.97 149.333zM511.991 74.667c-124.158 0-283.732 66.133-325.972 252.16-46.080 200.96 83.613 416.853 197.959 526.507 128 128 136.29 136.226 263.253 0 99.413-106.667 236.813-325.547 191.586-526.507-42.667-186.027-202.667-252.16-326.827-252.16z"></path></svg>