<svg version="1.1" xmlns="http://www.w3.org/2000/svg" width="560" height="79">
<path d="M0 0 C0.495 3.96 0.495 3.96 1 8 C2.32 7.34 3.64 6.68 5 6 C5.66 6.66 6.32 7.32 7 8 C7.33 5.36 7.66 2.72 8 0 C11.22745524 1.41901662 13.37258107 3.12855765 15.85058594 5.62353516 C16.59105164 6.36415192 17.33151733 7.10476868 18.09442139 7.86782837 C18.88310608 8.66683563 19.67179077 9.4658429 20.484375 10.2890625 C21.29996887 11.10748627 22.11556274 11.92591003 22.95587158 12.76913452 C25.55864562 15.38309973 28.15437762 18.00393505 30.75 20.625 C32.5138634 22.39889454 34.2781809 24.17233766 36.04296875 25.9453125 C40.36726136 30.29165142 44.6857933 34.64365081 49 39 C44.63900261 44.20925115 40.06436308 49.09580519 35.265625 53.90234375 C34.54638855 54.6249086 33.8271521 55.34747345 33.08612061 56.0919342 C31.57809074 57.60499385 30.06873313 59.11673124 28.55810547 60.62719727 C26.23767234 62.94983939 23.92537861 65.28039146 21.61328125 67.61132812 C20.14371809 69.08382145 18.67368295 70.55584391 17.203125 72.02734375 C16.51043518 72.72721909 15.81774536 73.42709442 15.10406494 74.1481781 C14.46289734 74.78626907 13.82172974 75.42436005 13.16113281 76.08178711 C12.59742981 76.64691513 12.03372681 77.21204315 11.45294189 77.79429626 C10 79 10 79 8 79 C7.505 75.04 7.505 75.04 7 71 C5.02 71.99 5.02 71.99 3 73 C2.01 72.01 2.01 72.01 1 71 C0.67 73.64 0.34 76.28 0 79 C-3.22745524 77.58098338 -5.37258107 75.87144235 -7.85058594 73.37646484 C-8.59105164 72.63584808 -9.33151733 71.89523132 -10.09442139 71.13217163 C-11.27744843 69.93366074 -11.27744843 69.93366074 -12.484375 68.7109375 C-13.29996887 67.89251373 -14.11556274 67.07408997 -14.95587158 66.23086548 C-17.55864562 63.61690027 -20.15437762 60.99606495 -22.75 58.375 C-24.5138634 56.60110546 -26.2781809 54.82766234 -28.04296875 53.0546875 C-32.36726136 48.70834858 -36.6857933 44.35634919 -41 40 C-36.63900261 34.79074885 -32.06436308 29.90419481 -27.265625 25.09765625 C-26.54638855 24.3750914 -25.8271521 23.65252655 -25.08612061 22.9080658 C-23.57809074 21.39500615 -22.06873313 19.88326876 -20.55810547 18.37280273 C-18.23767234 16.05016061 -15.92537861 13.71960854 -13.61328125 11.38867188 C-12.14371809 9.91617855 -10.67368295 8.44415609 -9.203125 6.97265625 C-8.16409027 5.92284325 -8.16409027 5.92284325 -7.10406494 4.8518219 C-6.46289734 4.21373093 -5.82172974 3.57563995 -5.16113281 2.91821289 C-4.59742981 2.35308487 -4.03372681 1.78795685 -3.45294189 1.20570374 C-2 0 -2 0 0 0 Z M-4 5 C-5.23386451 6.33094522 -6.43509913 7.69210855 -7.625 9.0625 C-11.79489743 13.76031713 -16.16029163 18.20760709 -20.625 22.625 C-28.34785969 29.85920813 -28.34785969 29.85920813 -35 38 C-35 41.6081513 -34.44033422 41.96147256 -32.02734375 44.484375 C-31.381604 45.1657251 -30.73586426 45.8470752 -30.07055664 46.54907227 C-29.36664795 47.27537842 -28.66273926 48.00168457 -27.9375 48.75 C-27.22392334 49.49628662 -26.51034668 50.24257324 -25.77514648 51.01147461 C-20.75289268 56.2424598 -15.67418165 61.41893676 -10.5625 66.5625 C-9.59654907 67.53558105 -9.59654907 67.53558105 -8.61108398 68.52832031 C-6.1842465 71.55498031 -6.1842465 71.55498031 -3 73 C-2.47702208 68.43651481 -2.58302348 66.55581229 -5.38671875 62.81860352 C-6.46917318 61.73724854 -7.57070347 60.67475599 -8.6875 59.62890625 C-9.26459717 59.06171371 -9.84169434 58.49452118 -10.4362793 57.91014099 C-12.27502528 56.1104376 -14.13662244 54.33665285 -16 52.5625 C-17.25419506 51.34343147 -18.50681892 50.12274425 -19.7578125 48.90039062 C-22.82065754 45.91453595 -25.90422823 42.95168665 -29 40 C-25.5644082 35.79396817 -21.98380925 31.95849349 -18.0390625 28.22265625 C-17.15605469 27.37896484 -16.27304687 26.53527344 -15.36328125 25.66601562 C-13.52734986 23.92044034 -11.67814187 22.18873037 -9.81640625 20.47070312 C-5.08073595 16.18348189 -5.08073595 16.18348189 -2.40136719 10.58935547 C-2.33273586 8.16433093 -2.33273586 8.16433093 -3 5 C-3.33 5 -3.66 5 -4 5 Z M10 5 C9.47613057 9.55605487 9.55378096 11.4209264 12.40258789 15.11791992 C13.49244895 16.17309973 14.60035708 17.20985808 15.72265625 18.23046875 C16.30212509 18.78817459 16.88159393 19.34588043 17.47862244 19.92048645 C19.32400779 21.69381326 21.19062043 23.44219308 23.0625 25.1875 C24.93599344 26.94523599 26.80369253 28.70772434 28.65708923 30.48664856 C29.80894065 31.59135878 30.97276196 32.68374701 32.14918518 33.76225281 C35.93981386 37.38562469 35.93981386 37.38562469 36.19726562 40.01367188 C34.39323096 43.0066625 31.96959988 45.25257367 29.43359375 47.61328125 C28.29696516 48.70709975 27.16091511 49.8015197 26.02539062 50.89648438 C24.23256904 52.60874075 22.4348719 54.31496374 20.6262207 56.01049805 C18.87959356 57.65411592 17.15579063 59.31913347 15.43359375 60.98828125 C14.88988632 61.48644852 14.34617889 61.98461578 13.78599548 62.49787903 C10.86250397 65.36133712 10.02342942 66.73260812 9.66040039 70.87573242 C9.77246826 71.90674072 9.88453613 72.93774902 10 74 C17.65210283 67.65038276 24.56235306 60.74544347 31.02734375 53.1953125 C35.15067658 48.60657379 39.60344902 44.32499771 44 40 C39.95876492 35.08498437 35.63424343 30.59308793 31.10473633 26.12426758 C27.82470936 22.87099359 24.76515147 19.50134225 21.765625 15.9921875 C18.36581509 12.15611879 14.7590871 8.48481894 11 5 C10.67 5 10.34 5 10 5 Z M3 10 C0.85305436 11.71437549 0.06615843 12.59851335 -0.38768005 15.35266113 C-0.39308304 16.27848999 -0.39848602 17.20431885 -0.40405273 18.15820312 C-0.41673691 19.20939331 -0.42942108 20.2605835 -0.44248962 21.34362793 C-0.43955399 22.47804321 -0.43661835 23.6124585 -0.43359375 24.78125 C-0.4388356 25.94628052 -0.44407745 27.11131104 -0.44947815 28.31164551 C-0.45590527 30.77627769 -0.45455249 33.24094052 -0.44604492 35.70556641 C-0.43753321 39.48525347 -0.46629226 43.26343103 -0.49804688 47.04296875 C-0.49965882 49.43489538 -0.49908149 51.82682469 -0.49609375 54.21875 C-0.50732773 55.35316528 -0.51856171 56.48758057 -0.53013611 57.65637207 C-0.52075516 58.70756226 -0.51137421 59.75875244 -0.50170898 60.84179688 C-0.50154282 61.76762573 -0.50137665 62.69345459 -0.50120544 63.64733887 C-0.20364902 66.17713208 -0.20364902 66.17713208 2.03135681 67.8223877 C3.00583519 68.40530579 3.00583519 68.40530579 4 69 C7.11251533 66.34456975 7.11251533 66.34456975 8.5146637 62.60974121 C8.52086227 61.72467896 8.52706085 60.8396167 8.53344727 59.92773438 C8.5492836 58.91988892 8.56511993 57.91204346 8.58143616 56.87365723 C8.57647629 55.79128784 8.57151642 54.70891846 8.56640625 53.59375 C8.57260483 52.47689819 8.57880341 51.36004639 8.58518982 50.20935059 C8.59229084 47.84904858 8.58910914 45.48869652 8.57641602 43.12841797 C8.5625501 39.51306214 8.59662088 35.90029343 8.63476562 32.28515625 C8.63571679 29.99218687 8.63385814 27.69921423 8.62890625 25.40625 C8.64216446 24.32388062 8.65542267 23.24151123 8.66908264 22.12634277 C8.73266541 16.10340166 8.73266541 16.10340166 5.46069336 11.28710938 C4.64866455 10.86236328 3.83663574 10.43761719 3 10 Z M10 17 C10 31.85 10 46.7 10 62 C12.475 59.525 12.475 59.525 15 57 C15.65742187 56.35417969 16.31484375 55.70835938 16.9921875 55.04296875 C20.4150725 51.6697937 23.76895958 48.2455688 27 44.6875 C27.5775 44.05199219 28.155 43.41648437 28.75 42.76171875 C30.28933471 40.95224023 30.28933471 40.95224023 30 38 C28.69036448 36.18184815 28.69036448 36.18184815 26.89453125 34.3828125 C26.24033203 33.69316406 25.58613281 33.00351562 24.91210938 32.29296875 C24.21923828 31.57753906 23.52636719 30.86210937 22.8125 30.125 C22.13896484 29.41730469 21.46542969 28.70960937 20.77148438 27.98046875 C17.22877159 24.26839701 13.62932616 20.62932616 10 17 Z M-5.42700195 19.37353516 C-7.39342637 21.45313699 -9.35657735 23.53551107 -11.3125 25.625 C-11.98990234 26.33785156 -12.66730469 27.05070312 -13.36523438 27.78515625 C-17.00516408 31.66347822 -20.2168699 35.46399876 -23 40 C-22.21496094 40.845625 -21.42992188 41.69125 -20.62109375 42.5625 C-19.55963493 43.70809164 -18.49845538 44.85394209 -17.4375 46 C-16.8911792 46.58998779 -16.3448584 47.17997559 -15.78198242 47.7878418 C-12.17594695 51.69389088 -8.64434847 55.65082966 -5.20703125 59.70703125 C-4.80871094 60.13371094 -4.41039063 60.56039062 -4 61 C-3.67 61 -3.34 61 -3 61 C-3 46.81 -3 32.62 -3 18 C-4.21002739 17.8844199 -4.21002739 17.8844199 -5.42700195 19.37353516 Z " fill="#4C444F" transform="translate(42,0)"/>
<path d="M0 0 C3.64567713 -0.08816905 7.29107474 -0.14077948 10.9375 -0.1875 C12.46987305 -0.22520508 12.46987305 -0.22520508 14.03320312 -0.26367188 C21.84688019 -0.33856335 28.69332759 0.26840105 34.875 5.375 C40.25325158 12.01872254 41.72337295 17.56992298 41 26 C39.8683261 32.13367256 36.88807508 35.55714115 32.23046875 39.5546875 C25.73780084 43.76184534 19.09220243 43.23933879 11.625 43.125 C10.50738281 43.11597656 9.38976562 43.10695312 8.23828125 43.09765625 C5.49196538 43.07418346 2.74609528 43.04134728 0 43 C0.32452148 42.50306641 0.64904297 42.00613281 0.98339844 41.49414062 C2.38735966 38.04964787 2.28585999 34.75437112 2.265625 31.09375 C2.26753845 30.33203491 2.2694519 29.57031982 2.27142334 28.78552246 C2.27278156 27.17846343 2.2691105 25.57139329 2.26074219 23.96435547 C2.25003722 21.50853768 2.26064946 19.05345136 2.2734375 16.59765625 C2.27211584 15.03385256 2.26955331 13.47004932 2.265625 11.90625 C2.27169769 10.80766663 2.27169769 10.80766663 2.27789307 9.68688965 C2.24379078 5.9678877 2.06284225 3.15879121 0 0 Z M10 4 C9.97534902 8.96622349 9.95716351 13.93241166 9.94506836 18.89868164 C9.9400281 20.58944316 9.93319595 22.28020029 9.92456055 23.97094727 C9.91248143 26.39600707 9.90676877 28.82100944 9.90234375 31.24609375 C9.89718246 32.00651474 9.89202118 32.76693573 9.88670349 33.55039978 C9.88650762 35.3673257 9.93802723 37.18413127 10 39 C11.63109367 40.63109367 13.44187222 40.24872283 15.6875 40.3125 C20.59820496 40.25645772 23.23593466 39.31596232 27 36 C31.0288641 31.859223 33 27.62301678 33 21.76171875 C32.51257193 15.71964162 31.14364419 11.08570786 26.6875 6.75 C21.23042463 3.19655557 16.30185022 2.19947137 10 4 Z " fill="#4C424E" transform="translate(113,17)"/>
<path d="M0 0 C3.45816686 -0.08847317 6.91603579 -0.14087725 10.375 -0.1875 C11.34050781 -0.21263672 12.30601562 -0.23777344 13.30078125 -0.26367188 C20.359085 -0.33472862 28.30910104 -0.1222484 33.94433594 4.64477539 C39.33417084 10.42286111 40.50052699 16.44998091 40.30078125 24.1875 C39.70308942 29.77630669 38.17352476 34.10564355 33.87109375 37.85546875 C28.28030679 41.73309859 24.16394338 43.13385076 17.359375 43.09765625 C16.28945313 43.09443359 15.21953125 43.09121094 14.1171875 43.08789062 C13.00601562 43.07951172 11.89484375 43.07113281 10.75 43.0625 C9.06003906 43.05573242 9.06003906 43.05573242 7.3359375 43.04882812 C4.55723783 43.03705397 1.77864591 43.0206084 -1 43 C-0.67475342 42.50306641 -0.34950684 42.00613281 -0.0144043 41.49414062 C1.38783112 38.04643016 1.26639331 34.75538624 1.23046875 31.09375 C1.23001053 30.33203491 1.22955231 29.57031982 1.2290802 28.78552246 C1.22606535 27.17845091 1.218202 25.57138208 1.20581055 23.96435547 C1.18756452 21.50868336 1.18530096 19.05338907 1.18554688 16.59765625 C1.1806307 15.03385092 1.17480194 13.47004813 1.16796875 11.90625 C1.16685593 11.17386108 1.1657431 10.44147217 1.16459656 9.68688965 C1.13336651 6.32143882 1.04604298 3.21795166 0 0 Z M9 4 C9 15.55 9 27.1 9 39 C12.52166602 40.76083301 16.15641168 40.52106062 20 40 C25.04535323 38.18862099 28.13090896 35.49218289 30.5 30.6875 C32.93233871 24.15802186 32.73689469 18.28280375 30.046875 11.82421875 C27.42362727 7.2531117 23.02639735 4.41770182 18 3 C14.58702236 2.75026993 12.39322505 3.15169374 9 4 Z " fill="#4B414E" transform="translate(386,17)"/>
<path d="M0 0 C2.97 0 5.94 0 9 0 C11.97 6.6 14.94 13.2 18 20 C20.1572806 17.12362587 21.47849755 15.2578548 22.82421875 12.109375 C23.13037109 11.40039062 23.43652344 10.69140625 23.75195312 9.9609375 C24.06068359 9.23132812 24.36941406 8.50171875 24.6875 7.75 C25.16799805 6.63238281 25.16799805 6.63238281 25.65820312 5.4921875 C26.44359663 3.66351009 27.22245338 1.83202764 28 0 C30.64 0 33.28 0 36 0 C35.67 0.99 35.34 1.98 35 3 C34.76717192 6.97529486 34.81482966 10.95610461 34.8125 14.9375 C34.79413086 16.58395508 34.79413086 16.58395508 34.77539062 18.26367188 C34.77345703 19.32005859 34.77152344 20.37644531 34.76953125 21.46484375 C34.76542236 22.430271 34.76131348 23.39569824 34.75708008 24.39038086 C34.87373338 27.35144669 34.87373338 27.35144669 37 31 C33.37 31 29.74 31 26 31 C26.66 30.01 27.32 29.02 28 28 C28.27356843 26.06862318 28.27356843 26.06862318 28.1953125 23.98828125 C28.19031738 23.30548096 28.18532227 22.62268066 28.18017578 21.91918945 C28.16196777 21.05898193 28.14375977 20.19877441 28.125 19.3125 C28.08375 16.569375 28.0425 13.82625 28 11 C25.03 17.27 22.06 23.54 19 30 C18.01 30 17.02 30 16 30 C13.03 23.73 10.06 17.46 7 11 C6.979375 13.743125 6.95875 16.48625 6.9375 19.3125 C6.928396 20.17270752 6.91929199 21.03291504 6.90991211 21.91918945 C6.90741455 22.60198975 6.90491699 23.28479004 6.90234375 23.98828125 C6.89710693 24.68477783 6.89187012 25.38127441 6.88647461 26.09887695 C6.93104009 28.22497968 6.93104009 28.22497968 8 31 C5.69 31 3.38 31 1 31 C1.33 30.01 1.66 29.02 2 28 C2.23367039 23.8371326 2.1851711 19.6687315 2.1875 15.5 C2.19974609 14.34628906 2.21199219 13.19257812 2.22460938 12.00390625 C2.22654297 10.89917969 2.22847656 9.79445313 2.23046875 8.65625 C2.23457764 7.64369141 2.23868652 6.63113281 2.24291992 5.58789062 C2.18414158 2.7621583 2.18414158 2.7621583 0 0 Z " fill="#4C434F" transform="translate(205,30)"/>
<path d="M0 0 C13.68653422 -0.41059603 13.68653422 -0.41059603 20 2 C22.55991963 4.7926396 23 6.22557162 23 10 C21.768606 13.69418201 19.79208646 15.35109746 17 18 C17.6496875 18.84304687 18.299375 19.68609375 18.96875 20.5546875 C19.81275117 21.66126681 20.65648749 22.76804815 21.5 23.875 C21.92925781 24.43058594 22.35851562 24.98617187 22.80078125 25.55859375 C26 29.7734375 26 29.7734375 26 32 C23.3046875 32.3671875 23.3046875 32.3671875 20 32 C18.02879143 30.02879143 16.65093219 28.3931373 15.125 26.125 C14.7228125 25.56941406 14.320625 25.01382813 13.90625 24.44140625 C11 20.33904656 11 20.33904656 11 18 C10.01 18 9.02 18 8 18 C8.14133499 19.77119803 8.28823208 21.54195287 8.4375 23.3125 C8.51871094 24.29863281 8.59992188 25.28476562 8.68359375 26.30078125 C8.91812559 29.09375599 8.91812559 29.09375599 10 32 C6.7 32 3.4 32 0 32 C0.495 30.515 0.495 30.515 1 29 C1.09447646 27.043446 1.13071717 25.08383255 1.1328125 23.125 C1.13410156 21.97515625 1.13539063 20.8253125 1.13671875 19.640625 C1.13091797 17.83851562 1.13091797 17.83851562 1.125 16 C1.12886719 14.79859375 1.13273437 13.5971875 1.13671875 12.359375 C1.13542969 11.20953125 1.13414062 10.0596875 1.1328125 8.875 C1.13168457 7.82054687 1.13055664 6.76609375 1.12939453 5.6796875 C1.11597653 2.89775656 1.11597653 2.89775656 0 0 Z M8 3 C8 6.96 8 10.92 8 15 C11.36798609 14.70062346 13.41632905 14.51071208 16 12.25 C17.28764946 9.98370279 17.28764946 9.98370279 16.3125 7.375 C15.09178154 4.90720055 15.09178154 4.90720055 13 3 C11.35 3 9.7 3 8 3 Z " fill="#4D444F" transform="translate(446,29)"/>
<path d="M0 0 C3.18718443 -0.117292 6.37380568 -0.18760766 9.5625 -0.25 C10.45775391 -0.28351562 11.35300781 -0.31703125 12.27539062 -0.3515625 C18.42065362 -0.44160298 22.01471119 0.3266293 27 4 C30.06343313 9.13866202 30.553478 13.18848104 30 19 C28.28348124 23.69784081 26.18350004 26.27586044 22 29 C17.07431843 31.05176101 12.85685207 31.2479911 7.625 31.125 C6.52091797 31.11146484 6.52091797 31.11146484 5.39453125 31.09765625 C3.5962112 31.07430144 1.79806089 31.03843836 0 31 C0.32452148 30.28142822 0.64904297 29.56285645 0.98339844 28.82250977 C2.01966704 25.94539608 2.25774548 23.87880666 2.265625 20.83984375 C2.26820313 19.88142578 2.27078125 18.92300781 2.2734375 17.93554688 C2.26570313 16.94619141 2.25796875 15.95683594 2.25 14.9375 C2.25773437 13.94427734 2.26546875 12.95105469 2.2734375 11.92773438 C2.26957031 10.49204102 2.26957031 10.49204102 2.265625 9.02734375 C2.26336914 8.15843506 2.26111328 7.28952637 2.25878906 6.39428711 C1.98312702 3.84389312 1.2840262 2.20114222 0 0 Z M8 3 C7.91262355 4.85369611 7.89301847 6.71067541 7.90234375 8.56640625 C7.90556641 9.69111328 7.90878906 10.81582031 7.91210938 11.97460938 C7.92048828 13.15861328 7.92886719 14.34261719 7.9375 15.5625 C7.94201172 16.75037109 7.94652344 17.93824219 7.95117188 19.16210938 C7.96300325 22.10812226 7.97948713 25.05403681 8 28 C13.15747944 28.35045148 13.15747944 28.35045148 18.0234375 27.08203125 C21.04178516 24.2468781 23.16457564 22.08429689 24 18 C24.05857513 13.41440426 23.61765628 10.00102915 21.1875 6.0625 C17.98237528 3.04052526 16.2463882 2.07331695 11.8125 1.8125 C9.09701184 1.68348662 9.09701184 1.68348662 8 3 Z " fill="#4C4450" transform="translate(309,30)"/>
<path d="M0 0 C4.46560729 2.15306066 7.06687518 4.42154648 9 9 C10.2821501 14.67351421 10.4431985 19.6046033 8 25 C4.91614035 28.284014 1.45539383 31.73061327 -3.171875 32.23828125 C-7.45378408 32.36154833 -10.41157293 32.26152314 -14.375 30.5 C-18.64391583 26.43436588 -21.14785943 21.96291359 -21.5 16 C-21.1491087 10.05824072 -18.63998858 5.59998886 -14.4375 1.5 C-9.55693237 -0.62970224 -5.24491229 -0.77268797 0 0 Z M-9.75 2.875 C-13.55452165 6.46815934 -14.89705986 10.3276739 -15.09765625 15.53515625 C-14.76351446 20.93847346 -13.84023925 24.95218025 -10 29 C-6.5502571 30.24777935 -4.78848684 30.25671665 -1.3125 29.125 C2.13835863 25.95394072 3.19409315 22.56200841 4 18 C4.13306824 12.86023921 3.55816192 7.91397811 0 4 C-3.72085137 2.34628828 -5.82660201 1.62664609 -9.75 2.875 Z " fill="#4C424F" transform="translate(265,29)"/>
<path d="M0 0 C2.92985058 -0.30460397 5.13985623 -0.50227234 8 0 C10.36102008 2.0364181 11.88188104 3.61897771 13.6875 6.0625 C14.38903198 6.95134888 14.38903198 6.95134888 15.10473633 7.8581543 C16.43129705 9.55285592 17.72125069 11.26906138 19 13 C19.598125 13.79921875 20.19625 14.5984375 20.8125 15.421875 C21.9062004 16.92571304 22.9602807 18.45834725 24 20 C24.05407567 17.41638482 24.093707 14.83390745 24.125 12.25 C24.14175781 11.52039062 24.15851563 10.79078125 24.17578125 10.0390625 C24.21072239 6.1955376 24.17499684 3.25393228 22 0 C24.64 0 27.28 0 30 0 C29.67 0.66 29.34 1.32 29 2 C28.84530633 4.17674783 28.74997894 6.3578348 28.68359375 8.5390625 C28.64169922 9.84101562 28.59980469 11.14296875 28.55664062 12.484375 C28.51682701 13.86458045 28.47711478 15.24478883 28.4375 16.625 C28.39430593 18.01303415 28.35069135 19.40105528 28.30664062 20.7890625 C28.20028 24.19260256 28.09825286 27.59621778 28 31 C27.01 31 26.02 31 25 31 C23.10327683 28.85315949 21.39125513 26.72938413 19.6875 24.4375 C18.7068636 23.15147791 17.72510258 21.86631257 16.7421875 20.58203125 C16.03594238 19.65318115 16.03594238 19.65318115 15.31542969 18.70556641 C12.99527268 15.69728562 10.51035504 12.84959221 8 10 C7.9730499 12.93756119 7.95318526 15.87487555 7.9375 18.8125 C7.92912109 19.64587891 7.92074219 20.47925781 7.91210938 21.33789062 C7.90888672 22.14033203 7.90566406 22.94277344 7.90234375 23.76953125 C7.89710693 24.50792236 7.89187012 25.24631348 7.88647461 26.00708008 C7.92476787 28.21057409 7.92476787 28.21057409 9 31 C6.69 31 4.38 31 2 31 C2.24121582 30.17338867 2.24121582 30.17338867 2.48730469 29.33007812 C3.4849302 24.79610769 3.22719342 20.12403488 3.25 15.5 C3.270625 14.45457031 3.29125 13.40914062 3.3125 12.33203125 C3.32023437 10.82189453 3.32023437 10.82189453 3.328125 9.28125 C3.34214355 7.90549805 3.34214355 7.90549805 3.35644531 6.50195312 C2.9380257 3.56499137 1.94460144 2.19489668 0 0 Z " fill="#4C444E" transform="translate(276,30)"/>
<path d="M0 0 C0.33 0 0.66 0 1 0 C1 2.64 1 5.28 1 8 C0.46890625 7.68804687 -0.0621875 7.37609375 -0.609375 7.0546875 C-1.31578125 6.66539063 -2.0221875 6.27609375 -2.75 5.875 C-3.44609375 5.48054688 -4.1421875 5.08609375 -4.859375 4.6796875 C-7.03747354 3.7414529 -7.03747354 3.7414529 -9.265625 4.8828125 C-9.83796875 5.25148438 -10.4103125 5.62015625 -11 6 C-10.9506863 7.89765428 -10.9506863 7.89765428 -10 10 C-7.30917066 11.91529935 -7.30917066 11.91529935 -4.0625 13.5625 C1.79987647 16.6998147 1.79987647 16.6998147 4 20 C4.6779661 27.11864407 4.6779661 27.11864407 2.125 30.4375 C-2.24907619 33.65373249 -5.8570074 33.040447 -11.15234375 32.9375 C-14.07655696 32.86144395 -14.07655696 32.86144395 -17 34 C-17 30.7 -17 27.4 -17 24 C-13 26 -13 26 -11.5625 27.5625 C-9.43103755 29.52344545 -7.86949455 29.85652527 -5 30 C-3.1645201 28.66621425 -3.1645201 28.66621425 -2 27 C-4.1138565 22.06766817 -7.22438829 20.53358631 -11.84375 18.30859375 C-14.29402711 16.82155963 -15.51057321 15.43554067 -17 13 C-17.59117941 8.36909458 -16.77245838 5.73215552 -14 2 C-11.3618463 0.68092315 -9.37722213 0.93867594 -6.4375 1 C-4.62539219 1.03770315 -2.81190256 1.04653361 -1 1 C-0.67 0.67 -0.34 0.34 0 0 Z " fill="#4C434E" transform="translate(359,28)"/>
<path d="M0 0 C7.59 0 15.18 0 23 0 C23 1.65 23 3.3 23 5 C22.45859375 4.68289062 21.9171875 4.36578125 21.359375 4.0390625 C18.5842851 2.81692026 16.26791902 2.59056564 13.25 2.375 C11.5175 2.25125 9.785 2.1275 8 2 C8 5.63 8 9.26 8 13 C14.38899228 12.64508889 14.38899228 12.64508889 20 10 C20 12.64 20 15.28 20 18 C14.06 17.01 14.06 17.01 8 16 C8 19.96 8 23.92 8 28 C15.27534213 27.7050537 18.88778486 27.24674712 24 22 C24 24.97 24 27.94 24 31 C16.08 31 8.16 31 0 31 C0.66 29.68 1.32 28.36 2 27 C2.30588487 24.34223871 2.30588487 24.34223871 2.265625 21.46484375 C2.26820313 20.40845703 2.27078125 19.35207031 2.2734375 18.26367188 C2.26570313 17.16603516 2.25796875 16.06839844 2.25 14.9375 C2.25773437 13.83599609 2.26546875 12.73449219 2.2734375 11.59960938 C2.27085937 10.54451172 2.26828125 9.48941406 2.265625 8.40234375 C2.26336914 7.43804443 2.26111328 6.47374512 2.25878906 5.48022461 C2.16817908 2.74813194 2.16817908 2.74813194 0 0 Z " fill="#4D4350" transform="translate(475,30)"/>
<path d="M0 0 C0.99 0 1.98 0 3 0 C3.47626831 1.15000488 3.47626831 1.15000488 3.9621582 2.32324219 C5.14855708 5.1802932 6.34002379 8.03516207 7.53491211 10.88867188 C8.30257281 12.72623708 9.06441181 14.56623085 9.82617188 16.40625 C10.55610352 18.14648438 10.55610352 18.14648438 11.30078125 19.921875 C11.74591064 20.99018555 12.19104004 22.05849609 12.6496582 23.15917969 C13.87923243 25.74593175 15.27409882 27.73762302 17 30 C17 30.66 17 31.32 17 32 C13.37 32 9.74 32 6 32 C6.185625 31.113125 6.37125 30.22625 6.5625 29.3125 C7.22048893 25.70354365 7.22048893 25.70354365 6 21 C2.37 21.33 -1.26 21.66 -5 22 C-6.77759876 26.96920684 -6.77759876 26.96920684 -6 32 C-8.64 32 -11.28 32 -14 32 C-13.72816895 31.47438477 -13.45633789 30.94876953 -13.17626953 30.40722656 C-11.74235868 27.47273902 -10.46299734 24.48786612 -9.1796875 21.484375 C-8.91616486 20.86854553 -8.65264221 20.25271606 -8.38113403 19.6182251 C-7.54461581 17.66263524 -6.70978442 15.70633051 -5.875 13.75 C-5.30610101 12.41922319 -4.73709179 11.08849351 -4.16796875 9.7578125 C-2.77736908 6.50575292 -1.38828072 3.25305031 0 0 Z M0 9 C-1.32 12.3 -2.64 15.6 -4 19 C-1.36 19 1.28 19 4 19 C3.39009109 15.44219804 2.4216319 12.3171411 1 9 C0.67 9 0.34 9 0 9 Z " fill="#4B444E" transform="translate(186,29)"/>
<path d="M0 0 C0.87527344 -0.00257812 1.75054688 -0.00515625 2.65234375 -0.0078125 C5.0625 0.125 5.0625 0.125 8.0625 1.125 C9.0525 0.795 10.0425 0.465 11.0625 0.125 C11.0625 2.765 11.0625 5.405 11.0625 8.125 C8.79095746 7.03129433 6.83886507 5.9572738 4.8125 4.4375 C0.86387522 2.55292908 -1.67999493 3.33122787 -5.9375 4.125 C-8.694304 10.57311784 -9.86697382 16.24600637 -7.9375 23.125 C-6.08108251 26.3989971 -6.08108251 26.3989971 -2.9375 28.125 C2.20665982 28.9547032 4.81139103 28.63691931 9.0625 25.625 C10.0525 24.8 11.0425 23.975 12.0625 23.125 C11.29064807 26.92060174 9.99157777 28.55096196 7.0625 31.125 C3.11599633 33.09825184 -1.63616713 32.56849901 -5.9375 32.125 C-10.48212891 29.85268555 -13.79566742 27.13528589 -15.625 22.3125 C-16.59541449 15.51959858 -15.76158525 10.78120327 -11.9375 5.125 C-7.90369401 1.37932301 -5.44421006 -0.01598887 0 0 Z " fill="#4C444F" transform="translate(516.9375,28.875)"/>
<path d="M0 0 C9.24 0 18.48 0 28 0 C28 2.31 28 4.62 28 7 C27.505 6.731875 27.01 6.46375 26.5 6.1875 C24.30079484 5.14287755 22.12403396 4.27161829 19.84375 3.42578125 C19.12380859 3.15805908 18.40386719 2.89033691 17.66210938 2.61450195 C16.83936523 2.31032349 16.83936523 2.31032349 16 2 C16.10967098 6.27137254 16.2403499 10.54184766 16.375 14.8125 C16.4059375 16.02744141 16.436875 17.24238281 16.46875 18.49414062 C16.50742187 19.65751953 16.54609375 20.82089844 16.5859375 22.01953125 C16.63306885 23.62985229 16.63306885 23.62985229 16.68115234 25.27270508 C16.81592307 28.2160765 16.81592307 28.2160765 19 31 C15.37 31 11.74 31 8 31 C8.66 29.68 9.32 28.36 10 27 C10.36448829 24.19682164 10.36448829 24.19682164 10.4140625 21.140625 C10.45273437 20.02558594 10.49140625 18.91054688 10.53125 17.76171875 C10.5621875 16.60285156 10.593125 15.44398437 10.625 14.25 C10.68300781 12.48849609 10.68300781 12.48849609 10.7421875 10.69140625 C10.8363982 7.79442732 10.92201602 4.89745374 11 2 C5.59212615 3.09786425 5.59212615 3.09786425 2 7 C1.34 7 0.68 7 0 7 C0 4.69 0 2.38 0 0 Z " fill="#4D4251" transform="translate(531,30)"/>
<path d="M0 0 C3.63 0 7.26 0 11 0 C10.34 1.32 9.68 2.64 9 4 C8.69414336 6.6412964 8.69414336 6.6412964 8.734375 9.5 C8.73179687 10.551875 8.72921875 11.60375 8.7265625 12.6875 C8.73429688 13.780625 8.74203125 14.87375 8.75 16 C8.74226562 17.093125 8.73453125 18.18625 8.7265625 19.3125 C8.72914063 20.364375 8.73171875 21.41625 8.734375 22.5 C8.73663086 23.4590625 8.73888672 24.418125 8.74121094 25.40625 C8.8797132 28.35310031 8.8797132 28.35310031 11 32 C7.37 32 3.74 32 0 32 C0.66 30.68 1.32 29.36 2 28 C2.30585664 25.3587036 2.30585664 25.3587036 2.265625 22.5 C2.26820313 21.448125 2.27078125 20.39625 2.2734375 19.3125 C2.26570312 18.219375 2.25796875 17.12625 2.25 16 C2.25773438 14.906875 2.26546875 13.81375 2.2734375 12.6875 C2.27085937 11.635625 2.26828125 10.58375 2.265625 9.5 C2.26336914 8.5409375 2.26111328 7.581875 2.25878906 6.59375 C2.1202868 3.64689969 2.1202868 3.64689969 0 0 Z " fill="#49434B" transform="translate(158,29)"/>
<path d="M0 0 C3.63 0 7.26 0 11 0 C10.01 1.485 10.01 1.485 9 3 C8.69164133 5.54900241 8.69164133 5.54900241 8.734375 8.40234375 C8.73179687 9.45744141 8.72921875 10.51253906 8.7265625 11.59960938 C8.73429687 12.70111328 8.74203125 13.80261719 8.75 14.9375 C8.74226563 16.03513672 8.73453125 17.13277344 8.7265625 18.26367188 C8.72914063 19.32005859 8.73171875 20.37644531 8.734375 21.46484375 C8.73663086 22.430271 8.73888672 23.39569824 8.74121094 24.39038086 C8.8780906 27.35079061 8.8780906 27.35079061 11 31 C7.37 31 3.74 31 0 31 C0.66 29.68 1.32 28.36 2 27 C2.30588487 24.34223871 2.30588487 24.34223871 2.265625 21.46484375 C2.26820313 20.40845703 2.27078125 19.35207031 2.2734375 18.26367188 C2.26570313 17.16603516 2.25796875 16.06839844 2.25 14.9375 C2.25773437 13.83599609 2.26546875 12.73449219 2.2734375 11.59960938 C2.27085937 10.54451172 2.26828125 9.48941406 2.265625 8.40234375 C2.26336914 7.43804443 2.26111328 6.47374512 2.25878906 5.48022461 C2.16817908 2.74813194 2.16817908 2.74813194 0 0 Z " fill="#4E4653" transform="translate(430,30)"/>
<path d="M0 0 C0.99 0.33 1.98 0.66 3 1 C2.01 3.64 1.02 6.28 0 9 C-1.32 9 -2.64 9 -4 9 C-2.94124926 5.59687262 -1.99097846 2.98646769 0 0 Z " fill="#524A52" transform="translate(183,38)"/>
</svg>
