<?xml version="1.0" encoding="UTF-8"?>
<svg version="1.1" xmlns="http://www.w3.org/2000/svg" width="270" height="126">
<path d="M0 0 C89.1 0 178.2 0 270 0 C270 41.58 270 83.16 270 126 C180.9 126 91.8 126 0 126 C0 84.42 0 42.84 0 0 Z " fill="#FCFDFD" transform="translate(0,0)"/>
<path d="M0 0 C12.54 0 25.08 0 38 0 C38 12.87 38 25.74 38 39 C25.46 39 12.92 39 0 39 C0 26.13 0 13.26 0 0 Z " fill="#0EB372" transform="translate(3,50)"/>
<path d="M0 0 C12.54 0 25.08 0 38 0 C38 12.54 38 25.08 38 38 C25.46 38 12.92 38 0 38 C0 25.46 0 12.92 0 0 Z " fill="#0BB172" transform="translate(85,51)"/>
<path d="M0 0 C12.54 0 25.08 0 38 0 C38 12.54 38 25.08 38 38 C25.46 38 12.92 38 0 38 C0 25.46 0 12.92 0 0 Z " fill="#0AB271" transform="translate(44,51)"/>
<path d="M0 0 C12.21 0 24.42 0 37 0 C37 12.54 37 25.08 37 38 C24.79 38 12.58 38 0 38 C0 25.46 0 12.92 0 0 Z " fill="#08B06F" transform="translate(167,51)"/>
<path d="M0 0 C12.21 0 24.42 0 37 0 C37 12.54 37 25.08 37 38 C24.79 38 12.58 38 0 38 C0 25.46 0 12.92 0 0 Z " fill="#07B16F" transform="translate(126,51)"/>
<path d="M0 0 C5.48620923 0 10.57465354 0.11221603 16 1 C16.495 1.495 16.495 1.495 17 2 C17.33 1.34 17.66 0.68 18 0 C19.875 0.3125 19.875 0.3125 22 1 C22.99 2.485 22.99 2.485 24 4 C24.33 2.68 24.66 1.36 25 0 C27.64 0 30.28 0 33 0 C33.495 1.98 33.495 1.98 34 4 C34.391875 3.34 34.78375 2.68 35.1875 2 C37 0 37 0 39.5 -0.375 C42 0 42 0 45 2 C45 1.34 45 0.68 45 0 C46.65 0.33 48.3 0.66 50 1 C50 2.32 50 3.64 50 5 C50.66 5 51.32 5 52 5 C52.33 3.35 52.66 1.7 53 0 C53.99 0 54.98 0 56 0 C56.99 1.98 56.99 1.98 58 4 C58.33 2.68 58.66 1.36 59 0 C62.96 0 66.92 0 71 0 C71.495 1.485 71.495 1.485 72 3 C70.35 2.67 68.7 2.34 67 2 C68.39195915 4.7839183 70.15575779 4.97898997 73 6 C72.42655063 8.86724686 72.1385485 9.8614515 70 12 C71.32 12.33 72.64 12.66 74 13 C74 13.66 74 14.32 74 15 C35.72 15 -2.56 15 -42 15 C-42 14.34 -42 13.68 -42 13 C-23.52 12.67 -5.04 12.34 14 12 C12.02 11.34 10.04 10.68 8 10 C6 7 6 7 6 3 C5.01 3 4.02 3 3 3 C3 5.64 3 8.28 3 11 C2.01 11 1.02 11 0 11 C0 7.37 0 3.74 0 0 Z " fill="#C7C7D0" transform="translate(195,107)"/>
<path d="M0 0 C0 0.66 0 1.32 0 2 C0.66 2 1.32 2 2 2 C2 14.54 2 27.08 2 40 C14.21 40 26.42 40 39 40 C39 40.66 39 41.32 39 42 C26.46 42 13.92 42 1 42 C1 41.34 1 40.68 1 40 C0.01 40.33 -0.98 40.66 -2 41 C-4.5874907 41.1551019 -7.15229451 41.25818216 -9.7421875 41.31640625 C-10.93595505 41.3475779 -10.93595505 41.3475779 -12.15383911 41.37937927 C-13.86373363 41.42275823 -15.57368913 41.46378548 -17.28369141 41.50268555 C-19.74794857 41.55956731 -22.21179984 41.62571179 -24.67578125 41.69335938 C-56.44427646 42.50341796 -88.24576805 41.95393496 -120.01623535 41.53643799 C-124.77837987 41.47438272 -129.54055858 41.41506613 -134.30273438 41.35546875 C-143.53519015 41.23954849 -152.76760656 41.12077689 -162 41 C-162 40.67 -162 40.34 -162 40 C-149.46 40 -136.92 40 -124 40 C-124 27.46 -124 14.92 -124 2 C-120.51971216 0.83990405 -117.37323826 0.82468734 -113.75097656 0.79467773 C-113.01339111 0.78477814 -112.27580566 0.77487854 -111.51586914 0.76467896 C-109.05748727 0.73293644 -106.59908813 0.70817706 -104.140625 0.68359375 C-102.39987777 0.66295654 -100.65913478 0.64195868 -98.918396 0.62062073 C-95.23956959 0.57654073 -91.5607261 0.53569925 -87.88183594 0.49731445 C-83.29382817 0.44936585 -78.70591765 0.39550173 -74.11800385 0.33934593 C-49.41130845 0.03877117 -24.70837586 -0.05928113 0 0 Z M-121 2 C-121 14.54 -121 27.08 -121 40 C-108.46 40 -95.92 40 -83 40 C-83 27.46 -83 14.92 -83 2 C-95.54 2 -108.08 2 -121 2 Z M-80 2 C-80 14.54 -80 27.08 -80 40 C-67.46 40 -54.92 40 -42 40 C-42 27.46 -42 14.92 -42 2 C-54.54 2 -67.08 2 -80 2 Z M-39 2 C-39 14.54 -39 27.08 -39 40 C-26.79 40 -14.58 40 -2 40 C-2 27.46 -2 14.92 -2 2 C-14.21 2 -26.42 2 -39 2 Z " fill="#ACF5E1" transform="translate(165,49)"/>
<path d="M0 0 C5.48620923 0 10.57465354 0.11221603 16 1 C16.33 1.33 16.66 1.66 17 2 C17.33 1.34 17.66 0.68 18 0 C19.875 0.3125 19.875 0.3125 22 1 C22.66 1.99 23.32 2.98 24 4 C24.33 2.68 24.66 1.36 25 0 C27.64 0 30.28 0 33 0 C33.495 1.98 33.495 1.98 34 4 C34.391875 3.34 34.78375 2.68 35.1875 2 C37 0 37 0 39.5 -0.375 C42 0 42 0 45 2 C45 3.32 45 4.64 45 6 C42.69 6 40.38 6 38 6 C38 6.99 38 7.98 38 9 C41.465 8.505 41.465 8.505 45 8 C43.90112305 10.46948242 43.90112305 10.46948242 42 13 C39.08911133 13.56762695 39.08911133 13.56762695 35.58203125 13.48828125 C34.32841797 13.47216797 33.07480469 13.45605469 31.78320312 13.43945312 C30.47287109 13.39755859 29.16253906 13.35566406 27.8125 13.3125 C26.47725471 13.28741661 25.14196471 13.26460348 23.80664062 13.24414062 C20.53663293 13.18511522 17.26887667 13.10281476 14 13 C14 12.67 14 12.34 14 12 C13.05125 11.731875 12.1025 11.46375 11.125 11.1875 C8 10 8 10 6 7 C6 5.68 6 4.36 6 3 C5.01 3 4.02 3 3 3 C3 5.64 3 8.28 3 11 C2.01 11 1.02 11 0 11 C0 7.37 0 3.74 0 0 Z " fill="#F6F6F8" transform="translate(195,107)"/>
<path d="M0 0 C0.66 0 1.32 0 2 0 C2.99 3.63 3.98 7.26 5 11 C9.29 11 13.58 11 18 11 C13 16 13 16 10 18 C9.34 18 8.68 18 8 18 C8.34224609 18.79664063 8.34224609 18.79664063 8.69140625 19.609375 C8.97886719 20.31578125 9.26632813 21.0221875 9.5625 21.75 C9.85253906 22.44609375 10.14257812 23.1421875 10.44140625 23.859375 C11.07831803 26.30012784 10.80248831 27.6403655 10 30 C9.55269531 29.62746094 9.10539062 29.25492188 8.64453125 28.87109375 C4.95116661 25.86378718 4.95116661 25.86378718 0.4375 24.9375 C-2.6493684 26.28305802 -5.27318404 28.03415593 -8 30 C-8.66 29.67 -9.32 29.34 -10 29 C-8.02 23.555 -8.02 23.555 -6 18 C-7.32 17.34 -8.64 16.68 -10 16 C-12.02951535 14.71203834 -14.03501678 13.38442 -16 12 C-16 11.67 -16 11.34 -16 11 C-11.71 11 -7.42 11 -3 11 C-2.01 7.37 -1.02 3.74 0 0 Z " fill="#0DB172" transform="translate(19,3)"/>
<path d="M0 0 C12.87 0 25.74 0 39 0 C39 0.66 39 1.32 39 2 C39.66 2 40.32 2 41 2 C41 14.54 41 27.08 41 40 C53.21 40 65.42 40 78 40 C78 40.66 78 41.32 78 42 C65.46 42 52.92 42 40 42 C40 41.34 40 40.68 40 40 C39.34 40 38.68 40 38 40 C38 27.13 38 14.26 38 1 C25.46 1 12.92 1 0 1 C0 0.67 0 0.34 0 0 Z " fill="#CBFCEF" transform="translate(126,49)"/>
<path d="M0 0 C0.66 0 1.32 0 2 0 C2.66 2.97 3.32 5.94 4 9 C6.64 9 9.28 9 12 9 C9.66666667 11.33333333 7.33333333 13.66666667 5 16 C5.515625 16.4125 6.03125 16.825 6.5625 17.25 C7.036875 17.8275 7.51125 18.405 8 19 C7.6875 21.1875 7.6875 21.1875 7 23 C4.5 21.625 4.5 21.625 2 20 C2 19.34 2 18.68 2 18 C1.50628906 18.3609375 1.01257812 18.721875 0.50390625 19.09375 C-0.45708984 19.78984375 -0.45708984 19.78984375 -1.4375 20.5 C-2.07558594 20.9640625 -2.71367188 21.428125 -3.37109375 21.90625 C-5 23 -5 23 -6 23 C-5.125 16.25 -5.125 16.25 -4 14 C-4.8971875 13.566875 -4.8971875 13.566875 -5.8125 13.125 C-8 12 -8 12 -11 10 C-11 9.34 -11 8.68 -11 8 C-8.03 8 -5.06 8 -2 8 C-1.34 5.36 -0.68 2.72 0 0 Z " fill="#F3FEFA" transform="translate(62,58)"/>
<path d="M0 0 C2.76223278 2.76223278 2.57856291 5.20706617 3 9 C5.97 9 8.94 9 12 9 C9.66666667 11.33333333 7.33333333 13.66666667 5 16 C5.66 16.33 6.32 16.66 7 17 C7.40729228 19.32156597 7.74438677 21.6568787 8 24 C6.63875 22.9790625 6.63875 22.9790625 5.25 21.9375 C2.33492922 19.80479617 2.33492922 19.80479617 -0.0625 20.0625 C-2.47654948 21.23058846 -4.74070614 22.55656226 -7 24 C-6.86980469 23.33613281 -6.73960937 22.67226562 -6.60546875 21.98828125 C-6.17870292 19.25618223 -5.88177491 16.76562259 -6 14 C-8.22990529 10.84777425 -8.22990529 10.84777425 -11 9 C-8.03 9 -5.06 9 -2 9 C-1.34 6.03 -0.68 3.06 0 0 Z " fill="#F5FEFB" transform="translate(144,58)"/>
<path d="M0 0 C2.76390737 2.40339772 3.04065919 3.16263678 4 7 C6.97 7.33 9.94 7.66 13 8 C9.97727468 11.25524265 6.74281699 13.61820737 3 16 C4.32 16.33 5.64 16.66 7 17 C7.33 18.65 7.66 20.3 8 22 C7.2575 21.690625 6.515 21.38125 5.75 21.0625 C4.38875 20.5365625 4.38875 20.5365625 3 20 C2.0409375 19.566875 2.0409375 19.566875 1.0625 19.125 C-2.35056293 18.9181477 -4.36709748 21.02532311 -7 23 C-6.86980469 22.33613281 -6.73960938 21.67226562 -6.60546875 20.98828125 C-6.17870292 18.25618223 -5.88177491 15.76562259 -6 13 C-8.22990529 9.84777425 -8.22990529 9.84777425 -11 8 C-8.03 8 -5.06 8 -2 8 C-1.34 5.36 -0.68 2.72 0 0 Z " fill="#EDFEF8" transform="translate(103,59)"/>
<path d="M0 0 C2.3431213 0.25561323 4.67843403 0.59270772 7 1 C7.99 1 8.98 1 10 1 C10.33 0.67 10.66 0.34 11 0 C13.33944736 0.28730055 15.6739143 0.61936779 18 1 C19.25 7.625 19.25 7.625 17 11 C12.94554358 11.43132515 11.45029042 11.30019361 8 9 C7.01 9.66 6.02 10.32 5 11 C2.4375 11.25 2.4375 11.25 0 11 C-2 9 -2 9 -2.25 5.5 C-2 2 -2 2 0 0 Z " fill="#F4F3F7" transform="translate(65,107)"/>
<path d="M0 0 C0.66 0 1.32 0 2 0 C2.66 2.97 3.32 5.94 4 9 C6.97 9 9.94 9 13 9 C7.39341803 15.18657321 0.45092984 20.27453508 -7 24 C-6.01 20.7 -5.02 17.4 -4 14 C-5.32 13.34 -6.64 12.68 -8 12 C-8.99 11.01 -9.98 10.02 -11 9 C-8.03 9 -5.06 9 -2 9 C-1.34 6.03 -0.68 3.06 0 0 Z " fill="#EBFDF8" transform="translate(21,58)"/>
<path d="M0 0 C1.4540625 0.0309375 1.4540625 0.0309375 2.9375 0.0625 C3.5975 1.3825 4.2575 2.7025 4.9375 4.0625 C2.2975 3.4025 -0.3425 2.7425 -3.0625 2.0625 C-2.7325 3.0525 -2.4025 4.0425 -2.0625 5.0625 C-0.33 5.743125 -0.33 5.743125 1.4375 6.4375 C4.9375 8.0625 4.9375 8.0625 6 10.625 C5.9375 13.0625 5.9375 13.0625 3.9375 15.0625 C-0.39893601 15.37787716 -2.38903229 15.51147847 -6.0625 13.0625 C-6.0625 13.7225 -6.0625 14.3825 -6.0625 15.0625 C-7.7125 14.7325 -9.3625 14.4025 -11.0625 14.0625 C-11.0625 11.4225 -11.0625 8.7825 -11.0625 6.0625 C-11.7225 6.0625 -12.3825 6.0625 -13.0625 6.0625 C-13.0625 5.4025 -13.0625 4.7425 -13.0625 4.0625 C-12.4025 4.0625 -11.7425 4.0625 -11.0625 4.0625 C-11.0625 3.0725 -11.0625 2.0825 -11.0625 1.0625 C-10.4025 1.0625 -9.7425 1.0625 -9.0625 1.0625 C-9.0625 2.0525 -9.0625 3.0425 -9.0625 4.0625 C-2.25183824 0.04595588 -2.25183824 0.04595588 0 0 Z " fill="#F4F3F7" transform="translate(55.0625,102.9375)"/>
<path d="M0 0 C2.76223278 2.76223278 2.57856291 5.20706617 3 9 C5.97 9 8.94 9 12 9 C8.31911357 12.84725418 4.43814081 16.11385725 0.1875 19.3125 C-0.7087207 19.9940918 -0.7087207 19.9940918 -1.62304688 20.68945312 C-3.07947588 21.79633917 -4.53937817 22.89865264 -6 24 C-7.31223496 20.06329512 -6.24296256 17.87511856 -5 14 C-5.598125 13.731875 -6.19625 13.46375 -6.8125 13.1875 C-9 12 -9 12 -12 9 C-8.7 9 -5.4 9 -2 9 C-1.855625 7.700625 -1.71125 6.40125 -1.5625 5.0625 C-1.125 1.125 -1.125 1.125 0 0 Z " fill="#F7FEFB" transform="translate(185,58)"/>
<path d="M0 0 C1.588125 -0.061875 3.17625 -0.12375 4.8125 -0.1875 C6.15248047 -0.23970703 6.15248047 -0.23970703 7.51953125 -0.29296875 C10 0 10 0 11.80078125 1.296875 C13.80660962 4.14554331 13.35389514 6.63799615 13 10 C11.8125 12.4375 11.8125 12.4375 10 14 C7.375 14.3125 7.375 14.3125 5 14 C4.67 13.67 4.34 13.34 4 13 C3.67 14.65 3.34 16.3 3 18 C2.01 18 1.02 18 0 18 C0 12.06 0 6.12 0 0 Z " fill="#1C1B3D" transform="translate(100,19)"/>
<path d="M0 0 C0.99 0 1.98 0 3 0 C3 12.87 3 25.74 3 39 C-10.53 39 -24.06 39 -38 39 C-38 38.67 -38 38.34 -38 38 C-25.46 38 -12.92 38 0 38 C0 25.46 0 12.92 0 0 Z " fill="#B7FDEC" transform="translate(41,51)"/>
<path d="M0 0 C1.875 1 1.875 1 3 3 C3.46523509 5.75694869 3.51601948 8.24789609 3 11 C0.93531073 13.44703913 -0.39144027 13.87828805 -3.5 14.5 C-6 14 -6 14 -8.375 11.9375 C-10.48816666 8.11754488 -10.17341001 6.14604871 -9 2 C-5.53076119 -0.31282587 -4.07794425 -0.42478586 0 0 Z " fill="#2B2649" transform="translate(136,19)"/>
<path d="M0 0 C5.49274754 0 10.56173041 0.19433043 16 1 C16.33 2.65 16.66 4.3 17 6 C14.69 6 12.38 6 10 6 C10.33 6.66 10.66 7.32 11 8 C12.98 8 14.96 8 17 8 C16.01 9.485 16.01 9.485 15 11 C12.0625 11.4375 12.0625 11.4375 9 11 C7.125 9.25 7.125 9.25 6 7 C6 5.68 6 4.36 6 3 C5.01 3 4.02 3 3 3 C3 5.64 3 8.28 3 11 C2.01 11 1.02 11 0 11 C0 7.37 0 3.74 0 0 Z " fill="#797687" transform="translate(195,107)"/>
<path d="M0 0 C2.4375 0.875 2.4375 0.875 4.4375 3.875 C2.1275 3.545 -0.1825 3.215 -2.5625 2.875 C-2.2325 3.535 -1.9025 4.195 -1.5625 4.875 C0.09571773 5.24809899 1.76327014 5.58200977 3.4375 5.875 C3.7675 6.205 4.0975 6.535 4.4375 6.875 C4.15019945 9.21444736 3.81813221 11.5489143 3.4375 13.875 C0.0625 14.5 0.0625 14.5 -3.5625 14.875 C-6.07262963 12.36487037 -5.85971609 11.40694763 -5.875 7.9375 C-5.89175781 7.06222656 -5.90851563 6.18695313 -5.92578125 5.28515625 C-5.5625 2.875 -5.5625 2.875 -4.203125 1.05078125 C-2.5625 -0.125 -2.5625 -0.125 0 0 Z " fill="#7D7D8B" transform="translate(171.5625,103.125)"/>
<path d="M0 0 C1.32 0.33 2.64 0.66 4 1 C4 2.32 4 3.64 4 5 C4.66 5 5.32 5 6 5 C6.33 3.35 6.66 1.7 7 0 C7.99 0 8.98 0 10 0 C10.66 1.32 11.32 2.64 12 4 C12.33 2.68 12.66 1.36 13 0 C13.99 0 14.98 0 16 0 C15.69078116 1.45903258 15.37751201 2.91720722 15.0625 4.375 C14.88847656 5.18710938 14.71445313 5.99921875 14.53515625 6.8359375 C14 9 14 9 13 11 C12.01 11 11.02 11 10 11 C9.34 9.68 8.68 8.36 8 7 C7.67 8.32 7.34 9.64 7 11 C5.68 11 4.36 11 3 11 C2.49384702 9.73160474 1.99530901 8.46016898 1.5 7.1875 C1.2215625 6.47980469 0.943125 5.77210937 0.65625 5.04296875 C0 3 0 3 0 0 Z " fill="#848593" transform="translate(241,107)"/>
<path d="M0 0 C3.125 0.1875 3.125 0.1875 6.125 2.1875 C6.125 2.8475 6.125 3.5075 6.125 4.1875 C3.485 3.8575 0.845 3.5275 -1.875 3.1875 C-1.875 3.8475 -1.875 4.5075 -1.875 5.1875 C0.765 5.8475 3.405 6.5075 6.125 7.1875 C6.3125 9.5625 6.3125 9.5625 6.125 12.1875 C2.67254176 14.48913882 1.17761287 14.53240322 -2.875 14.1875 C-3.535 13.5275 -4.195 12.8675 -4.875 12.1875 C-4.875 11.1975 -4.875 10.2075 -4.875 9.1875 C-3.885 9.1875 -2.895 9.1875 -1.875 9.1875 C-1.875 9.8475 -1.875 10.5075 -1.875 11.1875 C-0.225 11.1875 1.425 11.1875 3.125 11.1875 C1.50133534 7.94017068 -1.62887839 7.48594864 -4.875 6.1875 C-3.80901015 0.24841371 -3.80901015 0.24841371 0 0 Z " fill="#292745" transform="translate(82.875,18.8125)"/>
<path d="M0 0 C3.625 0.375 3.625 0.375 7 1 C8.25 7.625 8.25 7.625 6 11 C3 11.3125 3 11.3125 0 11 C-2 9 -2 9 -2.25 5.5 C-2 2 -2 2 0 0 Z " fill="#838190" transform="translate(76,107)"/>
<path d="M0 0 C5.56818182 0.56818182 5.56818182 0.56818182 7 2 C6.75 5.4375 6.75 5.4375 6 9 C5.01 9.66 4.02 10.32 3 11 C4.65 11.33 6.3 11.66 8 12 C8 12.99 8 13.98 8 15 C4.37 15 0.74 15 -3 15 C-1.82570902 10.30283609 -0.62240942 9.89792754 3 7 C3.86965506 4.87053397 3.86965506 4.87053397 4 3 C0.88214887 3.64644661 0.88214887 3.64644661 0 6 C-0.99 6 -1.98 6 -3 6 C-2.42655063 3.13275314 -2.1385485 2.1385485 0 0 Z " fill="#818092" transform="translate(157,103)"/>
<path d="M0 0 C0.99 0 1.98 0 3 0 C3 3.63 3 7.26 3 11 C4.65 10.67 6.3 10.34 8 10 C8.33 7.03 8.66 4.06 9 1 C9.99 1 10.98 1 12 1 C12 5.29 12 9.58 12 14 C10.39125 14.061875 8.7825 14.12375 7.125 14.1875 C5.76761719 14.23970703 5.76761719 14.23970703 4.3828125 14.29296875 C3.20332031 14.14794922 3.20332031 14.14794922 2 14 C-0.28062828 10.57905758 -0.21925007 9.31812778 -0.125 5.3125 C-0.10695312 4.31863281 -0.08890625 3.32476563 -0.0703125 2.30078125 C-0.04710937 1.54152344 -0.02390625 0.78226563 0 0 Z " fill="#312E4D" transform="translate(64,19)"/>
<path d="M0 0 C2.76223278 2.76223278 2.57856291 5.20706617 3 9 C5.97 9 8.94 9 12 9 C11.01 9.99 10.02 10.98 9 12 C9 11.34 9 10.68 9 10 C7.906875 10 6.81375 10 5.6875 10 C3.45833333 10 1.22916667 10 -1 10 C-2.33981486 10.3062434 -3.67511887 10.63451555 -5 11 C-5 11.66 -5 12.32 -5 13 C-4.34 13 -3.68 13 -3 13 C-3.04125 13.78375 -3.0825 14.5675 -3.125 15.375 C-3.28728734 18.16116119 -3.28728734 18.16116119 -1 20 C-2.98 21.32 -4.96 22.64 -7 24 C-6.86980469 23.33613281 -6.73960937 22.67226562 -6.60546875 21.98828125 C-6.17870292 19.25618223 -5.88177491 16.76562259 -6 14 C-8.22990529 10.84777425 -8.22990529 10.84777425 -11 9 C-8.03 9 -5.06 9 -2 9 C-1.34 6.03 -0.68 3.06 0 0 Z " fill="#D9FEF6" transform="translate(144,58)"/>
<path d="M0 0 C2.97 0 5.94 0 9 0 C9 2.97 9 5.94 9 9 C10.32 8.67 11.64 8.34 13 8 C13.33 5.36 13.66 2.72 14 0 C14.66 0 15.32 0 16 0 C16 3.63 16 7.26 16 11 C14.72125 11.061875 13.4425 11.12375 12.125 11.1875 C11.40570313 11.22230469 10.68640625 11.25710937 9.9453125 11.29296875 C9.30335937 11.19628906 8.66140625 11.09960938 8 11 C5.70986347 7.5647952 5.82157027 6.014669 6 2 C5.01 2.33 4.02 2.66 3 3 C2.67 5.64 2.34 8.28 2 11 C1.34 11 0.68 11 0 11 C0 7.37 0 3.74 0 0 Z " fill="#9F9DA8" transform="translate(15,107)"/>
<path d="M0 0 C0.99 0 1.98 0 3 0 C3 2.64 3 5.28 3 8 C3.66 8 4.32 8 5 8 C5 8.99 5 9.98 5 11 C4.34 11 3.68 11 3 11 C3 11.99 3 12.98 3 14 C2.01 14 1.02 14 0 14 C0 13.01 0 12.02 0 11 C-1.98 11 -3.96 11 -6 11 C-5.55443866 5.95030484 -3.44186399 3.52381313 0 0 Z " fill="#8D8C9F" transform="translate(114,104)"/>
<path d="M0 0 C2.5625 0.25 2.5625 0.25 5.5625 2.25 C5.5625 3.57 5.5625 4.89 5.5625 6.25 C3.2525 6.25 0.9425 6.25 -1.4375 6.25 C-1.4375 7.24 -1.4375 8.23 -1.4375 9.25 C2.0275 8.755 2.0275 8.755 5.5625 8.25 C4.5725 9.735 4.5725 9.735 3.5625 11.25 C0.5625 11.5625 0.5625 11.5625 -2.4375 11.25 C-4.4375 9.25 -4.4375 9.25 -4.6875 5.75 C-4.40285958 1.76503411 -4.11280588 0.42182624 0 0 Z " fill="#737280" transform="translate(234.4375,106.75)"/>
<path d="M0 0 C0.78375 0.04125 1.5675 0.0825 2.375 0.125 C2.375 0.785 2.375 1.445 2.375 2.125 C1.385 2.455 0.395 2.785 -0.625 3.125 C-0.625 4.115 -0.625 5.105 -0.625 6.125 C0.035 6.785 0.695 7.445 1.375 8.125 C0.385 8.125 -0.605 8.125 -1.625 8.125 C-1.625 9.775 -1.625 11.425 -1.625 13.125 C-0.635 12.795 0.355 12.465 1.375 12.125 C2.10823796 10.10991642 2.10823796 10.10991642 2.375 8.125 C3.365 8.125 4.355 8.125 5.375 8.125 C5.5 10.5 5.5 10.5 5.375 13.125 C3.375 15.125 3.375 15.125 0.375 15.375 C-2.625 15.125 -2.625 15.125 -4.625 13.125 C-4.890625 10.59375 -4.890625 10.59375 -4.875 7.625 C-4.88015625 6.6453125 -4.8853125 5.665625 -4.890625 4.65625 C-4.51312768 1.05892258 -3.61829732 0.17229987 0 0 Z " fill="#82828F" transform="translate(130.625,102.875)"/>
<path d="M0 0 C4.62 0 9.24 0 14 0 C14 0.66 14 1.32 14 2 C12.02 2 10.04 2 8 2 C8 6.95 8 11.9 8 17 C7.01 17 6.02 17 5 17 C5 12.05 5 7.1 5 2 C3.35 2 1.7 2 0 2 C0 1.34 0 0.68 0 0 Z " fill="#100E31" transform="translate(41,15)"/>
<path d="M0 0 C1.4540625 0.0309375 1.4540625 0.0309375 2.9375 0.0625 C3.5975 1.3825 4.2575 2.7025 4.9375 4.0625 C2.2975 3.4025 -0.3425 2.7425 -3.0625 2.0625 C-2.7325 3.0525 -2.4025 4.0425 -2.0625 5.0625 C-0.9075 5.51625 0.2475 5.97 1.4375 6.4375 C4.9375 8.0625 4.9375 8.0625 6 10.625 C5.9375 13.0625 5.9375 13.0625 3.9375 15.0625 C0.4375 15.3125 0.4375 15.3125 -3.0625 15.0625 C-3.7225 14.4025 -4.3825 13.7425 -5.0625 13.0625 C-4.7325 12.0725 -4.4025 11.0825 -4.0625 10.0625 C-3.7325 11.0525 -3.4025 12.0425 -3.0625 13.0625 C-0.7525 13.0625 1.5575 13.0625 3.9375 13.0625 C3.9375 11.7425 3.9375 10.4225 3.9375 9.0625 C2.82375 8.93875 1.71 8.815 0.5625 8.6875 C-3.0625 8.0625 -3.0625 8.0625 -5.0625 6.0625 C-4.33395709 0.0884481 -4.33395709 0.0884481 0 0 Z " fill="#817F8A" transform="translate(55.0625,102.9375)"/>
<path d="M0 0 C0.99 0 1.98 0 3 0 C3 0.99 3 1.98 3 3 C3.66 3 4.32 3 5 3 C5 3.99 5 4.98 5 6 C4.34 6 3.68 6 3 6 C3 8.64 3 11.28 3 14 C3.66 14 4.32 14 5 14 C5 14.99 5 15.98 5 17 C3.35 16.67 1.7 16.34 0 16 C0 12.7 0 9.4 0 6 C-0.99 6 -1.98 6 -3 6 C-3 5.01 -3 4.02 -3 3 C-2.01 3 -1.02 3 0 3 C0 2.01 0 1.02 0 0 Z " fill="#222043" transform="translate(93,16)"/>
<path d="M0 0 C1.32 0 2.64 0 4 0 C5.23102992 3.69308976 4.87175152 6.88050712 4.5625 10.6875 C4.51029297 11.38939453 4.45808594 12.09128906 4.40429688 12.81445312 C4.27492135 14.54338054 4.13817469 16.27175355 4 18 C2.68 18 1.36 18 0 18 C0 12 0 6 0 0 Z " fill="#4D4C66" transform="translate(115,15)"/>
<path d="M0 0 C0.99 0 1.98 0 3 0 C3.33 0.99 3.66 1.98 4 3 C4.66 3.33 5.32 3.66 6 4 C6 4.66 6 5.32 6 6 C5.34 6 4.68 6 4 6 C4 8.64 4 11.28 4 14 C4.66 14 5.32 14 6 14 C6 14.99 6 15.98 6 17 C4.35 16.67 2.7 16.34 1 16 C1 12.7 1 9.4 1 6 C0.01 6 -0.98 6 -2 6 C-2 5.01 -2 4.02 -2 3 C-1.34 3 -0.68 3 0 3 C0 2.01 0 1.02 0 0 Z " fill="#232044" transform="translate(142,16)"/>
<path d="M0 0 C2.4375 0.8125 2.4375 0.8125 4.4375 2.8125 C4.4375 3.8025 4.4375 4.7925 4.4375 5.8125 C1.7975 5.8125 -0.8425 5.8125 -3.5625 5.8125 C-3.2325 6.4725 -2.9025 7.1325 -2.5625 7.8125 C-0.5825 7.8125 1.3975 7.8125 3.4375 7.8125 C3.1075 8.8025 2.7775 9.7925 2.4375 10.8125 C0.1275 10.4825 -2.1825 10.1525 -4.5625 9.8125 C-5.89328101 3.40055513 -5.89328101 3.40055513 -4.4375 0.8125 C-2.5625 -0.1875 -2.5625 -0.1875 0 0 Z " fill="#83828E" transform="translate(97.5625,107.1875)"/>
<path d="M0 0 C1.4540625 0.0309375 1.4540625 0.0309375 2.9375 0.0625 C3.2675 1.0525 3.5975 2.0425 3.9375 3.0625 C2.2875 2.7325 0.6375 2.4025 -1.0625 2.0625 C0.32945915 4.8464183 2.09325779 5.04148997 4.9375 6.0625 C4.0625 9.9375 4.0625 9.9375 2.9375 11.0625 C0 11.3125 0 11.3125 -3.0625 11.0625 C-3.7225 10.0725 -4.3825 9.0825 -5.0625 8.0625 C-2.7525 8.3925 -0.4425 8.7225 1.9375 9.0625 C1.9375 8.4025 1.9375 7.7425 1.9375 7.0625 C-1.0325 6.5675 -1.0325 6.5675 -4.0625 6.0625 C-4.105221 4.39638095 -4.10313832 2.72867115 -4.0625 1.0625 C-3.0625 0.0625 -3.0625 0.0625 0 0 Z " fill="#7B7987" transform="translate(263.0625,106.9375)"/>
<path d="M0 0 C3.3 0 6.6 0 10 0 C9.37321829 3.66172475 8.35548154 6.8818995 6.9375 10.3125 C6.57527344 11.19550781 6.21304688 12.07851562 5.83984375 12.98828125 C5.42412109 13.98408203 5.42412109 13.98408203 5 15 C4.34 15 3.68 15 3 15 C3.75 7.375 3.75 7.375 6 4 C3.03 3.505 3.03 3.505 0 3 C0 2.01 0 1.02 0 0 Z " fill="#868492" transform="translate(177,103)"/>
<path d="M0 0 C1.67542976 0.28604898 3.34385343 0.61781233 5 1 C5.33 2.65 5.66 4.3 6 6 C3.69 6 1.38 6 -1 6 C-0.67 6.66 -0.34 7.32 0 8 C1.98 8 3.96 8 6 8 C5.01 9.485 5.01 9.485 4 11 C1 11.3125 1 11.3125 -2 11 C-4 9 -4 9 -4.125 5.875 C-4.08375 4.92625 -4.0425 3.9775 -4 3 C-3.34 3 -2.68 3 -2 3 C-2 3.66 -2 4.32 -2 5 C-0.35 5 1.3 5 3 5 C2.04134491 2.66924071 2.04134491 2.66924071 -1 1 C-0.67 0.67 -0.34 0.34 0 0 Z " fill="#727184" transform="translate(206,107)"/>
<path d="M0 0 C1.875 0.3125 1.875 0.3125 4 1 C4.66 1.99 5.32 2.98 6 4 C6.33 2.68 6.66 1.36 7 0 C7.99 0 8.98 0 10 0 C9.69078116 1.45903258 9.37751201 2.91720722 9.0625 4.375 C8.88847656 5.18710938 8.71445313 5.99921875 8.53515625 6.8359375 C8 9 8 9 7 11 C5.109375 10.81640625 5.109375 10.81640625 3 10 C1.953125 7.71484375 1.953125 7.71484375 1.25 4.9375 C1.00765625 4.01839844 0.7653125 3.09929687 0.515625 2.15234375 C0.34546875 1.44207031 0.1753125 0.73179688 0 0 Z " fill="#737285" transform="translate(213,107)"/>
<path d="M0 0 C1.5 1.375 1.5 1.375 3 3 C3 3.66 3 4.32 3 5 C2.34 5 1.68 5 1 5 C0.34 6.32 -0.32 7.64 -1 9 C-2.32 9 -3.64 9 -5 9 C-4.67 9.99 -4.34 10.98 -4 12 C-3.96045766 14.33299825 -3.95598268 16.66708189 -4 19 C-3.34 19.33 -2.68 19.66 -2 20 C-3.65 20.99 -5.3 21.98 -7 23 C-6.86980469 22.33613281 -6.73960938 21.67226562 -6.60546875 20.98828125 C-6.17870292 18.25618223 -5.88177491 15.76562259 -6 13 C-8.22990529 9.84777425 -8.22990529 9.84777425 -11 8 C-8.03 8 -5.06 8 -2 8 C-1.34 5.36 -0.68 2.72 0 0 Z " fill="#D4FDF2" transform="translate(103,59)"/>
<path d="M0 0 C-0.33 1.98 -0.66 3.96 -1 6 C-1.66 6 -2.32 6 -3 6 C-3.33 7.65 -3.66 9.3 -4 11 C-4.99 11 -5.98 11 -7 11 C-7 2.81818182 -7 2.81818182 -6 0 C-3 -1 -3 -1 0 0 Z " fill="#888799" transform="translate(136,105)"/>
<path d="M0 0 C0.33 0.99 0.66 1.98 1 3 C0.67 3.66 0.34 4.32 0 5 C-0.04022391 7.3329866 -0.04320247 9.66706666 0 12 C-0.53625 11.690625 -1.0725 11.38125 -1.625 11.0625 C-4.3984957 9.82172561 -7.00042837 9.4090325 -10 9 C-6.83047153 5.73991357 -3.60062011 2.77762123 0 0 Z " fill="#23B37E" transform="translate(193,70)"/>
<path d="M0 0 C0.66 0 1.32 0 2 0 C2 0.66 2 1.32 2 2 C2.99 2 3.98 2 5 2 C5 4.97 5 7.94 5 11 C4.67 9.68 4.34 8.36 4 7 C3.34 7 2.68 7 2 7 C2 8.65 2 10.3 2 12 C1.34 11.67 0.68 11.34 0 11 C0.33 9.35 0.66 7.7 1 6 C-1.64 5.34 -4.28 4.68 -7 4 C-7 3.34 -7 2.68 -7 2 C-4.36 2.33 -1.72 2.66 1 3 C0.67 2.01 0.34 1.02 0 0 Z " fill="#D2D2E0" transform="translate(88,20)"/>
<path d="M0 0 C2.5 0.125 2.5 0.125 3.5 1.125 C3.625 4.125 3.625 4.125 3.5 7.125 C2.5 8.125 2.5 8.125 0 8.25 C-2.5 8.125 -2.5 8.125 -3.5 7.125 C-3.625 4.125 -3.625 4.125 -3.5 1.125 C-2.5 0.125 -2.5 0.125 0 0 Z " fill="#E8EBEE" transform="translate(106.5,21.875)"/>
<path d="M0 0 C0.99 0 1.98 0 3 0 C3 5.61 3 11.22 3 17 C2.01 17 1.02 17 0 17 C0 11.39 0 5.78 0 0 Z " fill="#141235" transform="translate(121,15)"/>
<path d="M0 0 C2.5 0.125 2.5 0.125 3.5 1.125 C3.625 4.125 3.625 4.125 3.5 7.125 C2.5 8.125 2.5 8.125 -0.0625 8.1875 C-0.866875 8.166875 -1.67125 8.14625 -2.5 8.125 C-2.88063221 5.7989143 -3.21269945 3.46444736 -3.5 1.125 C-2.5 0.125 -2.5 0.125 0 0 Z " fill="#F7F7FB" transform="translate(132.5,21.875)"/>
<path d="M0 0 C0.66 0 1.32 0 2 0 C2.66 2.97 3.32 5.94 4 9 C4.66 9 5.32 9 6 9 C6.66 8.01 7.32 7.02 8 6 C8.33 7.65 8.66 9.3 9 11 C5.625 11.625 5.625 11.625 2 12 C0 10 0 10 -0.1953125 7.6171875 C-0.17210937 6.71226563 -0.14890625 5.80734375 -0.125 4.875 C-0.10695312 3.96492188 -0.08890625 3.05484375 -0.0703125 2.1171875 C-0.04710937 1.41851562 -0.02390625 0.71984375 0 0 Z " fill="#6F6F80" transform="translate(166,106)"/>
<path d="M0 0 C3.63 0 7.26 0 11 0 C11 0.66 11 1.32 11 2 C9.68 2 8.36 2 7 2 C7 6.29 7 10.58 7 15 C6.34 15 5.68 15 5 15 C5 10.71 5 6.42 5 2 C3.35 2 1.7 2 0 2 C0 1.34 0 0.68 0 0 Z " fill="#82818C" transform="translate(4,103)"/>
<path d="M0 0 C1.4540625 0.0309375 1.4540625 0.0309375 2.9375 0.0625 C3.2675 1.0525 3.5975 2.0425 3.9375 3.0625 C0.9675 2.5675 0.9675 2.5675 -2.0625 2.0625 C-0.67054085 4.8464183 1.09325779 5.04148997 3.9375 6.0625 C3.6075 7.7125 3.2775 9.3625 2.9375 11.0625 C0.9575 11.0625 -1.0225 11.0625 -3.0625 11.0625 C-3.0625 10.0725 -3.0625 9.0825 -3.0625 8.0625 C-1.4125 8.3925 0.2375 8.7225 1.9375 9.0625 C2.2675 8.4025 2.5975 7.7425 2.9375 7.0625 C-0.0325 6.5675 -0.0325 6.5675 -3.0625 6.0625 C-3.44468767 4.40635343 -3.77645102 2.73792976 -4.0625 1.0625 C-3.0625 0.0625 -3.0625 0.0625 0 0 Z " fill="#807F8B" transform="translate(37.0625,106.9375)"/>
<path d="M0 0 C3.625 0.375 3.625 0.375 7 1 C6.67 1.99 6.34 2.98 6 4 C4.35 3.67 2.7 3.34 1 3 C0.67 4.98 0.34 6.96 0 9 C2.31 8.34 4.62 7.68 7 7 C7 7.99 7 8.98 7 10 C3.625 10.625 3.625 10.625 0 11 C-2 9 -2 9 -2.25 5.5 C-2 2 -2 2 0 0 Z " fill="#878591" transform="translate(65,107)"/>
<path d="M0 0 C2.76223278 2.76223278 2.57856291 5.20706617 3 9 C4.98 9.66 6.96 10.32 9 11 C9 11.66 9 12.32 9 13 C7.33388095 13.042721 5.66617115 13.04063832 4 13 C3.67 12.67 3.34 12.34 3 12 C2.67 13.65 2.34 15.3 2 17 C1.34 17 0.68 17 0 17 C0 11.39 0 5.78 0 0 Z " fill="#161439" transform="translate(101,20)"/>
<path d="M0 0 C0 0.99 0 1.98 0 3 C-0.99 3.33 -1.98 3.66 -3 4 C-3.33 6.97 -3.66 9.94 -4 13 C-4.99 13 -5.98 13 -7 13 C-7 9.04 -7 5.08 -7 1 C-2 0 -2 0 0 0 Z " fill="#1E1B42" transform="translate(62,19)"/>
<path d="M0 0 C0.66 0 1.32 0 2 0 C2 3.63 2 7.26 2 11 C-4.15234375 11.09765625 -4.15234375 11.09765625 -6 11 C-7 10 -7 10 -7.09765625 7.93359375 C-7.08605469 7.10988281 -7.07445313 6.28617187 -7.0625 5.4375 C-7.05347656 4.61121094 -7.04445313 3.78492187 -7.03515625 2.93359375 C-7.02355469 2.29550781 -7.01195313 1.65742187 -7 1 C-6.67 1 -6.34 1 -6 1 C-6 3.64 -6 6.28 -6 9 C-4.35 8.67 -2.7 8.34 -1 8 C-0.67 5.36 -0.34 2.72 0 0 Z " fill="#848390" transform="translate(29,107)"/>
<path d="M0 0 C0.99 0 1.98 0 3 0 C2.69078116 1.45903258 2.37751201 2.91720722 2.0625 4.375 C1.88847656 5.18710938 1.71445313 5.99921875 1.53515625 6.8359375 C1 9 1 9 0 11 C-0.99 11 -1.98 11 -3 11 C-3.33 8.36 -3.66 5.72 -4 3 C-3.01 3.33 -2.02 3.66 -1 4 C-0.67 2.68 -0.34 1.36 0 0 Z " fill="#727084" transform="translate(254,107)"/>
<path d="M0 0 C0.99 0 1.98 0 3 0 C3 2.64 3 5.28 3 8 C3.66 8 4.32 8 5 8 C5 8.99 5 9.98 5 11 C4.34 11 3.68 11 3 11 C3 11.99 3 12.98 3 14 C2.34 14 1.68 14 1 14 C1 12.68 1 11.36 1 10 C0.01 9.67 -0.98 9.34 -2 9 C-1.01 9 -0.02 9 1 9 C1 7.02 1 5.04 1 3 C0.34 3 -0.32 3 -1 3 C-0.67 2.01 -0.34 1.02 0 0 Z " fill="#6B687A" transform="translate(114,104)"/>
<path d="M0 0 C1.88391785 3.26545761 2.49287967 6.28111761 3 10 C-0.85658398 7.84921278 -4.54319097 5.76544722 -8 3 C-5.36 2.67 -2.72 2.34 0 2 C0 1.34 0 0.68 0 0 Z " fill="#2CB280" transform="translate(27,23)"/>
<path d="M0 0 C0.66 0 1.32 0 2 0 C2 0.99 2 1.98 2 3 C2.66 3 3.32 3 4 3 C4 3.66 4 4.32 4 5 C3.34 5 2.68 5 2 5 C2 7.31 2 9.62 2 12 C2.66 12 3.32 12 4 12 C4 12.66 4 13.32 4 14 C2.68 13.67 1.36 13.34 0 13 C0 10.36 0 7.72 0 5 C-0.66 5 -1.32 5 -2 5 C-2 4.34 -2 3.68 -2 3 C-1.34 3 -0.68 3 0 3 C0 2.01 0 1.02 0 0 Z " fill="#868493" transform="translate(44,104)"/>
<path d="M0 0 C0.99 0 1.98 0 3 0 C3 4.29 3 8.58 3 13 C2.01 13 1.02 13 0 13 C0 8.71 0 4.42 0 0 Z " fill="#282644" transform="translate(73,20)"/>
<path d="M0 0 C1.67542976 0.28604898 3.34385343 0.61781233 5 1 C5 2.65 5 4.3 5 6 C3.34385343 6.38218767 1.67542976 6.71395102 0 7 C-1 6 -1 6 -1.125 3.5 C-1 1 -1 1 0 0 Z " fill="#F9F8FA" transform="translate(77,109)"/>
<path d="M0 0 C0.99 0 1.98 0 3 0 C3.125 2.375 3.125 2.375 3 5 C1 7 1 7 -2.125 7.125 C-3.07375 7.08375 -4.0225 7.0425 -5 7 C-5.66 5.68 -6.32 4.36 -7 3 C-6.34 2.67 -5.68 2.34 -5 2 C-4.67 2.66 -4.34 3.32 -4 4 C-3.01 4 -2.02 4 -1 4 C-0.67 2.68 -0.34 1.36 0 0 Z " fill="#6F6C7E" transform="translate(133,111)"/>
<path d="M0 0 C0.66 0 1.32 0 2 0 C2.350625 1.134375 2.70125 2.26875 3.0625 3.4375 C3.79385681 5.39305564 3.79385681 5.39305564 5 7 C8.58863524 8.0615942 8.58863524 8.0615942 12 8 C12.33 9.32 12.66 10.64 13 12 C12.01 12 11.02 12 10 12 C10.33 11.67 10.66 11.34 11 11 C8.36 10.67 5.72 10.34 3 10 C2.01 6.7 1.02 3.4 0 0 Z " fill="#34B583" transform="translate(144,57)"/>
<path d="M0 0 C0.66 0.99 1.32 1.98 2 3 C4.30144109 4.07136051 6.6340213 5.07989717 9 6 C9 6.66 9 7.32 9 8 C7.35 8 5.7 8 4 8 C4 7.34 4 6.68 4 6 C3.01 6 2.02 6 1 6 C0.67 6.66 0.34 7.32 0 8 C-1.125 2.25 -1.125 2.25 0 0 Z " fill="#F3F4F9" transform="translate(77,22)"/>
<path d="M0 0 C3.71599191 -0.20086443 4.77208445 -0.1519437 8 2 C8 3.32 8 4.64 8 6 C5.69 5.67 3.38 5.34 1 5 C0.67 3.35 0.34 1.7 0 0 Z " fill="#787686" transform="translate(232,107)"/>
<path d="M0 0 C0.99 0 1.98 0 3 0 C3 3.63 3 7.26 3 11 C2.01 11 1.02 11 0 11 C0 7.37 0 3.74 0 0 Z " fill="#797889" transform="translate(225,107)"/>
<path d="M0 0 C0.33 0 0.66 0 1 0 C1 1.65 1 3.3 1 5 C1.66 5 2.32 5 3 5 C3 4.34 3 3.68 3 3 C4.8125 1.9375 4.8125 1.9375 7 1 C7.99 1.33 8.98 1.66 10 2 C6 4.66666667 2 7.33333333 -2 10 C-1.34 6.7 -0.68 3.4 0 0 Z " fill="#D3FBF0" transform="translate(180,72)"/>
<path d="M0 0 C0.33 0.99 0.66 1.98 1 3 C2.65 3 4.3 3 6 3 C3.03839944 6.12613393 0.90432869 8.04783565 -3 10 C-2.01 6.7 -1.02 3.4 0 0 Z " fill="#DDFDF4" transform="translate(17,72)"/>
<path d="M0 0 C0.5775 0.226875 1.155 0.45375 1.75 0.6875 C0.6875 2.625 0.6875 2.625 -1.25 4.6875 C-4.9375 5.4375 -4.9375 5.4375 -8.25 5.6875 C-8.25 6.3475 -8.25 7.0075 -8.25 7.6875 C-9.24 7.3575 -10.23 7.0275 -11.25 6.6875 C-9.58784732 5.34854368 -7.92036393 4.01619858 -6.25 2.6875 C-5.569375 2.089375 -4.88875 1.49125 -4.1875 0.875 C-2.25 -0.3125 -2.25 -0.3125 0 0 Z " fill="#D0F9ED" transform="translate(20.25,27.3125)"/>
<path d="M0 0 C1.98 0 3.96 0 6 0 C6 0.66 6 1.32 6 2 C5.01 2.66 4.02 3.32 3 4 C2.26393501 7.56769552 2.26393501 7.56769552 2 11 C1.34 11 0.68 11 0 11 C0 7.37 0 3.74 0 0 Z " fill="#7C7A89" transform="translate(86,107)"/>
<path d="M0 0 C0.99 0.66 1.98 1.32 3 2 C2.01 2 1.02 2 0 2 C0.03480469 2.69867187 0.06960937 3.39734375 0.10546875 4.1171875 C0.13253906 5.02726562 0.15960938 5.93734375 0.1875 6.875 C0.22230469 7.77992187 0.25710937 8.68484375 0.29296875 9.6171875 C0.19628906 10.40351563 0.09960938 11.18984375 0 12 C-0.99 12.66 -1.98 13.32 -3 14 C-3 10 -3 6 -3 2 C-2.01 1.34 -1.02 0.68 0 0 Z " fill="#E9EAF3" transform="translate(115,17)"/>
<path d="M0 0 C4.29 0 8.58 0 13 0 C13 0.33 13 0.66 13 1 C11.02 1 9.04 1 7 1 C7.99 2.98 8.98 4.96 10 7 C6.42032008 5.34784004 3.22017048 3.26875648 0 1 C0 0.67 0 0.34 0 0 Z " fill="#2FB486" transform="translate(3,14)"/>
<path d="M0 0 C0.66 0.99 1.32 1.98 2 3 C5.05429073 4.21284876 5.05429073 4.21284876 8 5 C7.67 5.99 7.34 6.98 7 8 C6.21625 7.814375 5.4325 7.62875 4.625 7.4375 C2.02910225 6.74037734 2.02910225 6.74037734 0 8 C-0.79953138 4.71303767 -1.09658936 3.28976808 0 0 Z " fill="#E4E5EC" transform="translate(32,109)"/>
<path d="M0 0 C0.33 0 0.66 0 1 0 C1 1.65 1 3.3 1 5 C-0.98 5.99 -0.98 5.99 -3 7 C-3 7.66 -3 8.32 -3 9 C-6.09162264 7.61410019 -7.49183541 6.50816459 -10 4 C-7.03 4 -4.06 4 -1 4 C-0.67 2.68 -0.34 1.36 0 0 Z " fill="#C9FCF2" transform="translate(20,63)"/>
<path d="M0 0 C0.66 0 1.32 0 2 0 C1.125 4.75 1.125 4.75 0 7 C-2.28515625 7.4140625 -2.28515625 7.4140625 -5.0625 7.625 C-5.98160156 7.69976562 -6.90070312 7.77453125 -7.84765625 7.8515625 C-8.91306641 7.92503906 -8.91306641 7.92503906 -10 8 C-9.67 7.01 -9.34 6.02 -9 5 C-7.329375 4.87625 -7.329375 4.87625 -5.625 4.75 C-1.94246056 4.42126213 -1.94246056 4.42126213 -0.5625 1.9375 C-0.376875 1.298125 -0.19125 0.65875 0 0 Z " fill="#2DB280" transform="translate(19,60)"/>
<path d="M0 0 C0.66 0.33 1.32 0.66 2 1 C2.125 6.75 2.125 6.75 1 9 C-0.98 9 -2.96 9 -5 9 C-4.34 8.01 -3.68 7.02 -3 6 C-2.34 6 -1.68 6 -1 6 C-0.67 4.02 -0.34 2.04 0 0 Z " fill="#E1E1E7" transform="translate(164,106)"/>
<path d="M0 0 C2.1875 0.3125 2.1875 0.3125 4 1 C4.33 3.31 4.66 5.62 5 8 C2.36 6.35 -0.28 4.7 -3 3 C-2.01 2.01 -1.02 1.02 0 0 Z " fill="#AAF1DB" transform="translate(147,74)"/>
<path d="M0 0 C0.33 0.99 0.66 1.98 1 3 C3.97 3 6.94 3 10 3 C5.375 7.875 5.375 7.875 2 9 C2 8.34 2 7.68 2 7 C2.66 7 3.32 7 4 7 C4 6.01 4 5.02 4 4 C2.68 4 1.36 4 0 4 C0 2.68 0 1.36 0 0 Z " fill="#C7FAEB" transform="translate(24,64)"/>
<path d="M0 0 C1.65 0.99 3.3 1.98 5 3 C4.32829194 6.8063457 3.27253436 10.35206816 2 14 C1.67 14 1.34 14 1 14 C1.01160156 13.32453125 1.02320313 12.6490625 1.03515625 11.953125 C1.04417969 11.06109375 1.05320312 10.1690625 1.0625 9.25 C1.07990234 7.92742188 1.07990234 7.92742188 1.09765625 6.578125 C1.00826198 4.2181162 0.66912821 2.25501476 0 0 Z " fill="#D0FBF0" transform="translate(8,18)"/>
<path d="M0 0 C3.10380501 0.77595125 5.25002779 1.5268006 8 3 C6.34385343 3.38218767 4.67542976 3.71395102 3 4 C2.67 3.67 2.34 3.34 2 3 C1.67 7.95 1.34 12.9 1 18 C0.67 18 0.34 18 0 18 C0 12.06 0 6.12 0 0 Z " fill="#434062" transform="translate(100,19)"/>
<path d="M0 0 C1.32 0 2.64 0 4 0 C3.125 3.875 3.125 3.875 2 5 C-0.9375 5.25 -0.9375 5.25 -4 5 C-4.66 4.01 -5.32 3.02 -6 2 C-3.69 2.33 -1.38 2.66 1 3 C0.67 2.01 0.34 1.02 0 0 Z " fill="#747282" transform="translate(264,113)"/>
<path d="M0 0 C3.13751221 0 4.39757586 0.35179805 7 2 C7.33 2.99 7.66 3.98 8 5 C6.35 5 4.7 5 3 5 C3 4.34 3 3.68 3 3 C2.34 3 1.68 3 1 3 C0.67 4.32 0.34 5.64 0 7 C0 4.69 0 2.38 0 0 Z " fill="#B6B6C2" transform="translate(201,107)"/>
<path d="M0 0 C0.99 0 1.98 0 3 0 C3 0.66 3 1.32 3 2 C4.65 2 6.3 2 8 2 C8 2.99 8 3.98 8 5 C5.125 5.125 5.125 5.125 2 5 C1.34 4.34 0.68 3.68 0 3 C0 2.01 0 1.02 0 0 Z " fill="#3C3959" transform="translate(78,28)"/>
<path d="M0 0 C2.31 0.33 4.62 0.66 7 1 C7 2.65 7 4.3 7 6 C6.01 6.33 5.02 6.66 4 7 C3.896875 6.360625 3.79375 5.72125 3.6875 5.0625 C3.460625 4.381875 3.23375 3.70125 3 3 C2.01 2.67 1.02 2.34 0 2 C0 1.34 0 0.68 0 0 Z " fill="#282648" transform="translate(82,25)"/>
<path d="M0 0 C0.33 0 0.66 0 1 0 C1 2.64 1 5.28 1 8 C1.66 8 2.32 8 3 8 C3 8.99 3 9.98 3 11 C1.35 10.67 -0.3 10.34 -2 10 C-2 8.68 -2 7.36 -2 6 C-1.34 6 -0.68 6 0 6 C0 4.02 0 2.04 0 0 Z " fill="#3F3D5B" transform="translate(145,22)"/>
<path d="M0 0 C1.32 0.33 2.64 0.66 4 1 C4 2.32 4 3.64 4 5 C4.66 5 5.32 5 6 5 C6 5.66 6 6.32 6 7 C4.68 7.33 3.36 7.66 2 8 C0.74335022 5.09399739 0 3.20395416 0 0 Z " fill="#8E8E9C" transform="translate(241,107)"/>
<path d="M0 0 C0.66 0.33 1.32 0.66 2 1 C3.29411765 8.41176471 3.29411765 8.41176471 2 11 C1.01 11 0.02 11 -1 11 C-0.67 8.69 -0.34 6.38 0 4 C-0.99 3.67 -1.98 3.34 -3 3 C-2.01 2.01 -1.02 1.02 0 0 Z " fill="#26B881" transform="translate(69,71)"/>
<path d="M0 0 C1.98 0.495 1.98 0.495 4 1 C4.33 2.98 4.66 4.96 5 7 C3.02 6.01 1.04 5.02 -1 4 C-0.67 2.68 -0.34 1.36 0 0 Z " fill="#AFF1E0" transform="translate(65,74)"/>
<path d="M0 0 C2.97 0 5.94 0 9 0 C9 0.66 9 1.32 9 2 C8.01 2.495 8.01 2.495 7 3 C7 3.66 7 4.32 7 5 C3.90837736 3.61410019 2.50816459 2.50816459 0 0 Z " fill="#C6FAEC" transform="translate(173,67)"/>
<path d="M0 0 C2.97 0 5.94 0 9 0 C7.68 0.99 6.36 1.98 5 3 C5.99 3.66 6.98 4.32 8 5 C3.77471908 5 2.95481492 4.74375671 0 2 C0 1.34 0 0.68 0 0 Z " fill="#A0EBD5" transform="translate(51,66)"/>
<path d="M0 0 C0.33 0.66 0.66 1.32 1 2 C-1.25557736 5.38336604 -2.36188532 5.60072512 -6 7 C-6.33 7.66 -6.66 8.32 -7 9 C-7.99 9 -8.98 9 -10 9 C-10 8.34 -10 7.68 -10 7 C-7.8125 5.2734375 -7.8125 5.2734375 -5 3.375 C-4.071875 2.74335938 -3.14375 2.11171875 -2.1875 1.4609375 C-1.1046875 0.73777344 -1.1046875 0.73777344 0 0 Z " fill="#D4FCF2" transform="translate(37,14)"/>
<path d="M0 0 C0.66 0 1.32 0 2 0 C2.66 3.3 3.32 6.6 4 10 C2.68 10 1.36 10 0 10 C0 6.7 0 3.4 0 0 Z " fill="#767684" transform="translate(166,106)"/>
<path d="M0 0 C1.2684375 0.12375 1.2684375 0.12375 2.5625 0.25 C4.5625 3.25 4.5625 3.25 4.5625 6.25 C1.18746331 5.0641763 -1.08472731 3.97426311 -3.4375 1.25 C-2.4375 0.25 -2.4375 0.25 0 0 Z " fill="#B9F9E8" transform="translate(106.4375,74.75)"/>
<path d="M0 0 C0.66 0 1.32 0 2 0 C2.66 2.64 3.32 5.28 4 8 C2.68 7.34 1.36 6.68 0 6 C0 6.66 0 7.32 0 8 C-0.66 8 -1.32 8 -2 8 C-1.34 5.36 -0.68 2.72 0 0 Z " fill="#B8F6E2" transform="translate(62,58)"/>
<path d="M0 0 C0.66 0.66 1.32 1.32 2 2 C1.34 3.98 0.68 5.96 0 8 C-0.99 8 -1.98 8 -3 8 C-2.74438677 5.6568787 -2.40729228 3.32156597 -2 1 C-1.34 0.67 -0.68 0.34 0 0 Z " fill="#231F43" transform="translate(129,20)"/>
<path d="M0 0 C2.64 0 5.28 0 8 0 C7.67 0.99 7.34 1.98 7 3 C5.02 3 3.04 3 1 3 C0.67 2.01 0.34 1.02 0 0 Z " fill="#E6E5EB" transform="translate(94,113)"/>
<path d="M0 0 C0.66 0.33 1.32 0.66 2 1 C2 4.3 2 7.6 2 11 C1.34 9.68 0.68 8.36 0 7 C-0.99 7.495 -0.99 7.495 -2 8 C-1.34 5.36 -0.68 2.72 0 0 Z " fill="#E7E8F1" transform="translate(223,107)"/>
<path d="M0 0 C0.66 0.33 1.32 0.66 2 1 C2.625 4.0625 2.625 4.0625 3 7 C0.96166576 5.7260411 -1.03852126 4.38938077 -3 3 C-3 2.34 -3 1.68 -3 1 C-2.01 0.67 -1.02 0.34 0 0 Z " fill="#BCFAE6" transform="translate(190,75)"/>
<path d="M0 0 C0.33 0 0.66 0 1 0 C1 1.65 1 3.3 1 5 C1.99 5.33 2.98 5.66 4 6 C2.02 7.32 0.04 8.64 -2 10 C-1.34 6.7 -0.68 3.4 0 0 Z " fill="#C6F9E9" transform="translate(139,72)"/>
<path d="M0 0 C1.65 0 3.3 0 5 0 C5.33 1.98 5.66 3.96 6 6 C5.34 6 4.68 6 4 6 C4 5.34 4 4.68 4 4 C2.68 3.34 1.36 2.68 0 2 C0 1.34 0 0.68 0 0 Z " fill="#B6F5E3" transform="translate(24,76)"/>
<path d="M0 0 C0.66 0 1.32 0 2 0 C2 2.31 2 4.62 2 7 C2.66 7.33 3.32 7.66 4 8 C1.525 9.485 1.525 9.485 -1 11 C-0.67 7.37 -0.34 3.74 0 0 Z " fill="#C1F6E3" transform="translate(97,71)"/>
<path d="M0 0 C0.33 0.99 0.66 1.98 1 3 C3.97 3 6.94 3 10 3 C8.68 4.32 7.36 5.64 6 7 C5.67 6.34 5.34 5.68 5 5 C2.47266765 4.34444881 2.47266765 4.34444881 0 4 C0 2.68 0 1.36 0 0 Z " fill="#CEFDEF" transform="translate(187,64)"/>
<path d="M0 0 C0.66 0.66 1.32 1.32 2 2 C1.68134222 5.29279709 0.45484649 6.86535088 -2 9 C-1.125 1.125 -1.125 1.125 0 0 Z " fill="#B5F7E4" transform="translate(185,58)"/>
<path d="M0 0 C0.33 1.32 0.66 2.64 1 4 C1.66 4.66 2.32 5.32 3 6 C1.68 6.99 0.36 7.98 -1 9 C-1.66 8.67 -2.32 8.34 -3 8 C-2.01 5.36 -1.02 2.72 0 0 Z " fill="#37B88A" transform="translate(12,24)"/>
<path d="M0 0 C0.66 0 1.32 0 2 0 C2 1.98 2 3.96 2 6 C0.35 6.33 -1.3 6.66 -3 7 C-3 6.34 -3 5.68 -3 5 C-2.34 4.67 -1.68 4.34 -1 4 C-0.34786708 1.97536745 -0.34786708 1.97536745 0 0 Z " fill="#F0F3F9" transform="translate(108,23)"/>
<path d="M0 0 C0.33 0 0.66 0 1 0 C1 1.98 1 3.96 1 6 C-0.32 6 -1.64 6 -3 6 C-3 4.68 -3 3.36 -3 2 C-2.01 2 -1.02 2 0 2 C0 1.34 0 0.68 0 0 Z " fill="#727187" transform="translate(247,112)"/>
<path d="M0 0 C2.31 0 4.62 0 7 0 C7 0.66 7 1.32 7 2 C4.69 2.33 2.38 2.66 0 3 C0 2.01 0 1.02 0 0 Z " fill="#DAD9E6" transform="translate(233,113)"/>
<path d="M0 0 C1.32 0 2.64 0 4 0 C3.67 1.65 3.34 3.3 3 5 C2.01 4.67 1.02 4.34 0 4 C0 2.68 0 1.36 0 0 Z " fill="#ECEDF4" transform="translate(169,111)"/>
<path d="M0 0 C0.99 0.495 0.99 0.495 2 1 C1.01 1.495 1.01 1.495 0 2 C0 1.34 0 0.68 0 0 Z M0 3 C-1.25 4.5625 -1.25 4.5625 -3 6 C-5.1875 5.6875 -5.1875 5.6875 -7 5 C-6 3 -6 3 -4.0625 2.3125 C-2 2 -2 2 0 3 Z " fill="#F1FFFD" transform="translate(62,64)"/>
<path d="M0 0 C0.33 0 0.66 0 1 0 C1 2.64 1 5.28 1 8 C1.66 8 2.32 8 3 8 C3 8.99 3 9.98 3 11 C1.68 10.67 0.36 10.34 -1 10 C-0.67 6.7 -0.34 3.4 0 0 Z " fill="#5D5B7A" transform="translate(95,22)"/>
<path d="M0 0 C0.12375 0.639375 0.2475 1.27875 0.375 1.9375 C0.684375 2.9584375 0.684375 2.9584375 1 4 C1.66 4.33 2.32 4.66 3 5 C1.8125 6.5625 1.8125 6.5625 0 8 C-2.6875 7.6875 -2.6875 7.6875 -5 7 C-4.0409375 6.6596875 -4.0409375 6.6596875 -3.0625 6.3125 C-0.72806339 5.14749104 -0.72806339 5.14749104 -0.25 2.375 C-0.1675 1.59125 -0.085 0.8075 0 0 Z " fill="#323253" transform="translate(110,24)"/>
<path d="M0 0 C1.98 0 3.96 0 6 0 C5.67 1.32 5.34 2.64 5 4 C2.525 3.01 2.525 3.01 0 2 C0 1.34 0 0.68 0 0 Z " fill="#393753" transform="translate(130,19)"/>
<path d="M0 0 C2.31 0 4.62 0 7 0 C7 0.66 7 1.32 7 2 C5.02 2.33 3.04 2.66 1 3 C0.67 2.01 0.34 1.02 0 0 Z " fill="#DCD9E7" transform="translate(205,113)"/>
<path d="M0 0 C0.99 0 1.98 0 3 0 C3 1.65 3 3.3 3 5 C2.01 5.495 2.01 5.495 1 6 C0.34 5.34 -0.32 4.68 -1 4 C-0.625 1.875 -0.625 1.875 0 0 Z " fill="#7A778A" transform="translate(133,111)"/>
<path d="M0 0 C1.65 0.33 3.3 0.66 5 1 C4.01 1.33 3.02 1.66 2 2 C1.26676204 4.01508358 1.26676204 4.01508358 1 6 C0.34 5.67 -0.32 5.34 -1 5 C-0.67 3.35 -0.34 1.7 0 0 Z " fill="#797888" transform="translate(127,109)"/>
<path d="M0 0 C0.66 0 1.32 0 2 0 C1.67 2.64 1.34 5.28 1 8 C0.34 8 -0.32 8 -1 8 C-0.67 5.36 -0.34 2.72 0 0 Z " fill="#706D7D" transform="translate(181,110)"/>
<path d="M0 0 C0.33 0.99 0.66 1.98 1 3 C1.99 3.33 2.98 3.66 4 4 C1.525 5.485 1.525 5.485 -1 7 C-0.67 4.69 -0.34 2.38 0 0 Z " fill="#BAF8E0" transform="translate(57,74)"/>
<path d="M0 0 C2.31 0 4.62 0 7 0 C5.625 2 5.625 2 4 4 C3.34 4 2.68 4 2 4 C1.34 2.68 0.68 1.36 0 0 Z " fill="#D1FDF6" transform="translate(67,67)"/>
<path d="M0 0 C2.31 0 4.62 0 7 0 C6.01 1.485 6.01 1.485 5 3 C1.875 3.1875 1.875 3.1875 -1 3 C-0.67 2.01 -0.34 1.02 0 0 Z " fill="#7B7889" transform="translate(205,115)"/>
<path d="M0 0 C0 0.99 0 1.98 0 3 C-0.66 3 -1.32 3 -2 3 C-2 3.99 -2 4.98 -2 6 C-2.66 6 -3.32 6 -4 6 C-4 4.35 -4 2.7 -4 1 C-2 0 -2 0 0 0 Z " fill="#737286" transform="translate(119,112)"/>
<path d="M0 0 C1.65 0.33 3.3 0.66 5 1 C5 1.66 5 2.32 5 3 C3.02 3 1.04 3 -1 3 C-0.67 2.01 -0.34 1.02 0 0 Z " fill="#D9D9E2" transform="translate(95,109)"/>
<path d="M0 0 C1.98 0 3.96 0 6 0 C6 0.66 6 1.32 6 2 C4.125 3.0625 4.125 3.0625 2 4 C1.34 3.67 0.68 3.34 0 3 C0 2.01 0 1.02 0 0 Z " fill="#92929C" transform="translate(86,107)"/>
<path d="M0 0 C0.7425 0.0825 1.485 0.165 2.25 0.25 C0.93 0.58 -0.39 0.91 -1.75 1.25 C-1.42 2.24 -1.09 3.23 -0.75 4.25 C-2.73 4.25 -4.71 4.25 -6.75 4.25 C-3.42692308 0.31153846 -3.42692308 0.31153846 0 0 Z " fill="#5CCCA6" transform="translate(25.75,74.75)"/>
<path d="M0 0 C1.32 0.33 2.64 0.66 4 1 C3.01 2.32 2.02 3.64 1 5 C0.01 4.67 -0.98 4.34 -2 4 C-1.34 2.68 -0.68 1.36 0 0 Z " fill="#DCFBF3" transform="translate(18,27)"/>
<path d="M0 0 C1.98 0.66 3.96 1.32 6 2 C6 2.66 6 3.32 6 4 C4.35 4 2.7 4 1 4 C0.67 2.68 0.34 1.36 0 0 Z " fill="#E6E6F0" transform="translate(80,26)"/>
<path d="M0 0 C1.32 0 2.64 0 4 0 C3.67 1.32 3.34 2.64 3 4 C2.01 4 1.02 4 0 4 C0 2.68 0 1.36 0 0 Z " fill="#F3F2F8" transform="translate(129,112)"/>
<path d="M0 0 C2.375 0.3125 2.375 0.3125 5 1 C5.66 1.99 6.32 2.98 7 4 C4.61435923 3.42415568 2.33317216 2.77772405 0 2 C0 1.34 0 0.68 0 0 Z " fill="#7A7A87" transform="translate(169,103)"/>
<path d="M0 0 C0.66 0.66 1.32 1.32 2 2 C1.01 2 0.02 2 -1 2 C-0.67 2.99 -0.34 3.98 0 5 C-1.65 5 -3.3 5 -5 5 C-3.35 3.35 -1.7 1.7 0 0 Z " fill="#4EC097" transform="translate(188,74)"/>
<path d="M0 0 C1.485 0.99 1.485 0.99 3 2 C2.67 4.31 2.34 6.62 2 9 C1.67 9 1.34 9 1 9 C0.67 6.03 0.34 3.06 0 0 Z " fill="#28B580" transform="translate(136,70)"/>
<path d="M0 0 C1.485 0.99 1.485 0.99 3 2 C3.1875 4.625 3.1875 4.625 3 7 C2.34 7 1.68 7 1 7 C0.67 4.69 0.34 2.38 0 0 Z " fill="#121137" transform="translate(136,20)"/>
<path d="M0 0 C1.65 0.33 3.3 0.66 5 1 C3.71034824 2.37562854 2.37310707 3.70766393 1 5 C0.34 5 -0.32 5 -1 5 C-0.67 3.35 -0.34 1.7 0 0 Z " fill="#24B181" transform="translate(28,16)"/>
<path d="M0 0 C2.625 0.375 2.625 0.375 5 1 C5 1.66 5 2.32 5 3 C2.69 2.67 0.38 2.34 -2 2 C-1.34 1.34 -0.68 0.68 0 0 Z " fill="#DCDBE3" transform="translate(260,113)"/>
<path d="M0 0 C2.97 0.495 2.97 0.495 6 1 C5.67 1.66 5.34 2.32 5 3 C3.35 2.67 1.7 2.34 0 2 C0 1.34 0 0.68 0 0 Z " fill="#E4E3EA" transform="translate(35,109)"/>
<path d="M0 0 C1.65 0 3.3 0 5 0 C3.25 3.875 3.25 3.875 1 5 C0.67 3.35 0.34 1.7 0 0 Z " fill="#E4FEF6" transform="translate(148,68)"/>
<path d="M0 0 C0.99 0.33 1.98 0.66 3 1 C3 3.64 3 6.28 3 9 C2.67 9 2.34 9 2 9 C1.34 6.03 0.68 3.06 0 0 Z " fill="#CDF5EB" transform="translate(28,25)"/>
<path d="M0 0 C0.33 0.99 0.66 1.98 1 3 C1.66 3 2.32 3 3 3 C2.67 4.32 2.34 5.64 2 7 C1.01 6.34 0.02 5.68 -1 5 C-0.67 3.35 -0.34 1.7 0 0 Z " fill="#3D3A5F" transform="translate(136,24)"/>
<path d="M0 0 C1.32 0 2.64 0 4 0 C4.33 0.99 4.66 1.98 5 3 C4.34 3.66 3.68 4.32 3 5 C3 4.34 3 3.68 3 3 C2.01 2.67 1.02 2.34 0 2 C0 1.34 0 0.68 0 0 Z " fill="#828191" transform="translate(115,15)"/>
<path d="M0 0 C1.65 0 3.3 0 5 0 C5.33 1.32 5.66 2.64 6 4 C5.01 3.67 4.02 3.34 3 3 C3 2.34 3 1.68 3 1 C2.01 0.67 1.02 0.34 0 0 Z " fill="#6E6B7C" transform="translate(158,104)"/>
<path d="M0 0 C0.33 0.99 0.66 1.98 1 3 C1.99 3.33 2.98 3.66 4 4 C1.525 5.485 1.525 5.485 -1 7 C-0.67 4.69 -0.34 2.38 0 0 Z " fill="#A7F8DC" transform="translate(179,75)"/>
<path d="M0 0 C3.465 1.98 3.465 1.98 7 4 C5.1875 4.6875 5.1875 4.6875 3 5 C1.25 3.6875 1.25 3.6875 0 2 C0 1.34 0 0.68 0 0 Z " fill="#D9FDF5" transform="translate(22,28)"/>
<path d="M0 0 C0 0.99 0 1.98 0 3 C-1.98 3.33 -3.96 3.66 -6 4 C-2.25 0 -2.25 0 0 0 Z " fill="#026B3B" transform="translate(27,22)"/>
<path d="M0 0 C0.66 0.33 1.32 0.66 2 1 C2 2.32 2 3.64 2 5 C1.01 5.33 0.02 5.66 -1 6 C-0.67 4.02 -0.34 2.04 0 0 Z " fill="#D9D9E2" transform="translate(257,107)"/>
<path d="M0 0 C0.99 0 1.98 0 3 0 C3 1.65 3 3.3 3 5 C2.01 4.34 1.02 3.68 0 3 C0 2.01 0 1.02 0 0 Z " fill="#817F89" transform="translate(241,107)"/>
<path d="M0 0 C1.98 0 3.96 0 6 0 C6 0.66 6 1.32 6 2 C4.35 2.33 2.7 2.66 1 3 C0.67 2.01 0.34 1.02 0 0 Z " fill="#D3D2DD" transform="translate(262,109)"/>
<path d="M0 0 C0.99 0 1.98 0 3 0 C2.67 1.98 2.34 3.96 2 6 C0 3 0 3 0 0 Z " fill="#858592" transform="translate(220,107)"/>
<path d="M0 0 C1.32 0 2.64 0 4 0 C4 0.99 4 1.98 4 3 C2.68 3 1.36 3 0 3 C0 2.01 0 1.02 0 0 Z " fill="#EBEBF5" transform="translate(129,106)"/>
<path d="M0 0 C1.32 0.33 2.64 0.66 4 1 C4 1.99 4 2.98 4 4 C2.68 3.34 1.36 2.68 0 2 C0 1.34 0 0.68 0 0 Z " fill="#D7FAF0" transform="translate(13,68)"/>
<path d="M0 0 C1.5 1.375 1.5 1.375 3 3 C3 3.66 3 4.32 3 5 C1.68 4.67 0.36 4.34 -1 4 C-0.67 2.68 -0.34 1.36 0 0 Z " fill="#B8F8E7" transform="translate(103,59)"/>
<path d="M0 0 C0 0.66 0 1.32 0 2 C-2.31 1.67 -4.62 1.34 -7 1 C-3.375 -1.125 -3.375 -1.125 0 0 Z " fill="#32304B" transform="translate(89,21)"/>
<path d="M0 0 C0 0.99 0 1.98 0 3 C-1.32 3.33 -2.64 3.66 -4 4 C-4 3.01 -4 2.02 -4 1 C-2 0 -2 0 0 0 Z " fill="#272443" transform="translate(62,19)"/>
<path d="M0 0 C1.32 0.33 2.64 0.66 4 1 C4 1.66 4 2.32 4 3 C2.68 3 1.36 3 0 3 C0 2.01 0 1.02 0 0 Z " fill="#CBCAD8" transform="translate(233,109)"/>
<path d="M0 0 C0.66 0 1.32 0 2 0 C2 1.32 2 2.64 2 4 C0.68 3.67 -0.64 3.34 -2 3 C-1.34 2.01 -0.68 1.02 0 0 Z " fill="#D5D2E0" transform="translate(113,108)"/>
<path d="M0 0 C0.99 0.33 1.98 0.66 3 1 C2.34 1 1.68 1 1 1 C0.67 1.99 0.34 2.98 0 4 C-0.99 3.67 -1.98 3.34 -3 3 C-2.01 2.01 -1.02 1.02 0 0 Z " fill="#7F7E8F" transform="translate(112,107)"/>
<path d="M0 0 C0.99 0.33 1.98 0.66 3 1 C1.68 2.65 0.36 4.3 -1 6 C-1.042721 4.33388095 -1.04063832 2.66617115 -1 1 C-0.67 0.67 -0.34 0.34 0 0 Z " fill="#D1D0E2" transform="translate(130,22)"/>
<path d="M0 0 C1.32 0.33 2.64 0.66 4 1 C3 3 3 3 1 4 C0.67 2.68 0.34 1.36 0 0 Z " fill="#8E8C99" transform="translate(213,107)"/>
<path d="M0 0 C1.32 0.66 2.64 1.32 4 2 C3.01 2 2.02 2 1 2 C0.67 3.32 0.34 4.64 0 6 C-0.38218767 4.34385343 -0.71395102 2.67542976 -1 1 C-0.67 0.67 -0.34 0.34 0 0 Z " fill="#8B8B9A" transform="translate(168,104)"/>
<path d="M0 0 C0.99 0.33 1.98 0.66 3 1 C2.67 1.66 2.34 2.32 2 3 C0.68 2.67 -0.64 2.34 -2 2 C-1.34 1.34 -0.68 0.68 0 0 Z " fill="#16AE72" transform="translate(196,68)"/>
<path d="M0 0 C0.99 0 1.98 0 3 0 C3 0.99 3 1.98 3 3 C2.01 3 1.02 3 0 3 C0 2.01 0 1.02 0 0 Z " fill="#767684" transform="translate(121,115)"/>
<path d="M0 0 C0.33 0.99 0.66 1.98 1 3 C0.34 3.66 -0.32 4.32 -1 5 C-1.33 3.68 -1.66 2.36 -2 1 C-1.34 0.67 -0.68 0.34 0 0 Z " fill="#DDDEE6" transform="translate(253,108)"/>
<path d="M0 0 C0.99 0 1.98 0 3 0 C3 0.99 3 1.98 3 3 C2.01 3 1.02 3 0 3 C0 2.01 0 1.02 0 0 Z " fill="#80808C" transform="translate(254,107)"/>
<path d="M0 0 C0.99 0.33 1.98 0.66 3 1 C2.34 2.32 1.68 3.64 1 5 C0.67 3.35 0.34 1.7 0 0 Z " fill="#838092" transform="translate(161,107)"/>
<path d="M0 0 C0.99 0.33 1.98 0.66 3 1 C3 1.66 3 2.32 3 3 C1.35 2.67 -0.3 2.34 -2 2 C-1.34 1.34 -0.68 0.68 0 0 Z " fill="#908E9B" transform="translate(38,107)"/>
<path d="M0 0 C0.99 0 1.98 0 3 0 C3 0.99 3 1.98 3 3 C2.01 3 1.02 3 0 3 C0 2.01 0 1.02 0 0 Z " fill="#8D8E95" transform="translate(225,103)"/>
<path d="M0 0 C0.66 1.32 1.32 2.64 2 4 C1.01 4.66 0.02 5.32 -1 6 C-0.67 4.02 -0.34 2.04 0 0 Z " fill="#9FF9DA" transform="translate(138,76)"/>
<path d="M0 0 C0.33 0.66 0.66 1.32 1 2 C1.66 2.33 2.32 2.66 3 3 C1.02 3.99 1.02 3.99 -1 5 C-0.67 3.35 -0.34 1.7 0 0 Z " fill="#95F5D2" transform="translate(97,77)"/>
<path d="M0 0 C0.99 0.33 1.98 0.66 3 1 C2.67 1.99 2.34 2.98 2 4 C1.34 4 0.68 4 0 4 C0 2.68 0 1.36 0 0 Z " fill="#14B071" transform="translate(29,76)"/>
<path d="M0 0 C0.99 0 1.98 0 3 0 C2.34 1.32 1.68 2.64 1 4 C0.67 2.68 0.34 1.36 0 0 Z " fill="#EAFDF5" transform="translate(142,64)"/>
<path d="M0 0 C0.66 0 1.32 0 2 0 C1.67 1.32 1.34 2.64 1 4 C0.34 4 -0.32 4 -1 4 C-0.67 2.68 -0.34 1.36 0 0 Z " fill="#0C0C25" transform="translate(87,28)"/>
<path d="M0 0 C1.98 0.99 1.98 0.99 4 2 C2.68 2.33 1.36 2.66 0 3 C0 2.01 0 1.02 0 0 Z " fill="#EDFCF8" transform="translate(0,13)"/>
<path d="M0 0 C0.66 1.32 1.32 2.64 2 4 C1.01 4 0.02 4 -1 4 C-0.67 2.68 -0.34 1.36 0 0 Z " fill="#E0DEE8" transform="translate(213,109)"/>
<path d="M0 0 C1.32 0.66 2.64 1.32 4 2 C2.68 2.33 1.36 2.66 0 3 C0 2.01 0 1.02 0 0 Z " fill="#94939C" transform="translate(76,107)"/>
<path d="M0 0 C0.66 1.32 1.32 2.64 2 4 C1.01 4.33 0.02 4.66 -1 5 C-0.67 3.35 -0.34 1.7 0 0 Z " fill="#6EE6B8" transform="translate(15,77)"/>
<path d="M0 0 C0.66 0.99 1.32 1.98 2 3 C1.01 3.33 0.02 3.66 -1 4 C-0.67 2.68 -0.34 1.36 0 0 Z " fill="#9DF5D9" transform="translate(144,58)"/>
<path d="M0 0 C0.99 0.33 1.98 0.66 3 1 C3 1.66 3 2.32 3 3 C2.01 2.67 1.02 2.34 0 2 C0 1.34 0 0.68 0 0 Z " fill="#D6F9EF" transform="translate(28,25)"/>
<path d="M0 0 C0.99 0.33 1.98 0.66 3 1 C2.34 1.66 1.68 2.32 1 3 C0.67 2.01 0.34 1.02 0 0 Z " fill="#25B07A" transform="translate(147,79)"/>
</svg>
