<?xml version="1.0" encoding="UTF-8"?>
<svg version="1.1" xmlns="http://www.w3.org/2000/svg" width="160" height="160">
<path d="M0 0 C52.8 0 105.6 0 160 0 C160 52.8 160 105.6 160 160 C107.2 160 54.4 160 0 160 C0 107.2 0 54.4 0 0 Z " fill="#FAFAFA" transform="translate(0,0)"/>
<path d="M0 0 C52.8 0 105.6 0 160 0 C160 52.8 160 105.6 160 160 C107.2 160 54.4 160 0 160 C0 107.2 0 54.4 0 0 Z M58 9 C56.11436584 9.61550437 54.21795297 10.19890037 52.3125 10.75 C45.81965821 12.83871968 40.56694836 16.12318862 35 20 C34.01 20.66 33.02 21.32 32 22 C32 22.66 32 23.32 32 24 C30.02 24.99 30.02 24.99 28 26 C28 26.66 28 27.32 28 28 C26.02 28.99 26.02 28.99 24 30 C24 30.66 24 31.32 24 32 C23.34 32 22.68 32 22 32 C16.32563891 39.03768161 12.66667597 46.43039081 10 55 C9.71382812 55.77085938 9.42765625 56.54171875 9.1328125 57.3359375 C2.90983469 74.22687726 4.72948754 95.17491757 12.11938477 111.35253906 C14.84491208 117.00290354 18.06625651 122.10487077 22 127 C22.55429687 127.70511719 23.10859375 128.41023438 23.6796875 129.13671875 C33.65484492 141.20344144 46.3698406 147.25103026 61 152 C62.54880859 152.556875 62.54880859 152.556875 64.12890625 153.125 C69.69981726 154.38421702 75.11914158 154.32864679 80.8125 154.3125 C82.49956055 154.33666992 82.49956055 154.33666992 84.22070312 154.36132812 C94.58017697 154.36734758 102.90349282 151.93717576 112.0625 147.25 C112.7544043 146.89711914 113.44630859 146.54423828 114.15917969 146.18066406 C119.63220137 143.31947424 124.42343212 140.17156187 129 136 C129.96550781 135.16082031 130.93101562 134.32164062 131.92578125 133.45703125 C140.11998348 126.04157973 144.65726809 118.06443556 149 108 C149.515625 106.8759375 150.03125 105.751875 150.5625 104.59375 C153.0072309 99.09310548 154.83995271 94.06179108 155 88 C155.061875 86.82695313 155.12375 85.65390625 155.1875 84.4453125 C155.50430697 76.03758474 154.63449821 69.11916666 151.97265625 61.0859375 C151.01850614 58.05871427 150.44762984 55.13812077 150 52 C149.34 52 148.68 52 148 52 C147.89171875 51.2884375 147.7834375 50.576875 147.671875 49.84375 C145.94650974 42.54104121 141.57282283 35.92482018 136 31 C134.58257958 29.52155561 133.16599949 28.04230536 131.75 26.5625 C124.05321083 18.89115476 113.16648757 10.88156481 102 10 C102 9.34 102 8.68 102 8 C94.06802128 5.82886951 86.50822212 5.66687664 78.3125 5.6875 C77.02021484 5.67138672 75.72792969 5.65527344 74.39648438 5.63867188 C73.14802734 5.63802734 71.89957031 5.63738281 70.61328125 5.63671875 C69.48704346 5.63373779 68.36080566 5.63075684 67.20043945 5.62768555 C63.56602041 6.05048584 61.179136 7.2340318 58 9 Z " fill="#8C8C8C" transform="translate(0,0)"/>
<path d="M0 0 C0.33 0 0.66 0 1 0 C1 23.43 1 46.86 1 71 C-22.76 71 -46.52 71 -71 71 C-71 70.67 -71 70.34 -71 70 C-70.21238281 69.91363281 -69.42476563 69.82726562 -68.61328125 69.73828125 C-50.64531919 67.42052046 -35.86196925 59.63632067 -23 47 C-22.45577393 46.49726563 -21.91154785 45.99453125 -21.35083008 45.4765625 C-16.74523226 41.11051864 -13.44994206 36.50092179 -10.3125 31 C-9.59924561 29.76020386 -9.59924561 29.76020386 -8.87158203 28.49536133 C-3.79281735 19.33119674 -1.65344811 10.31065285 0 0 Z " fill="#FCFCFC" transform="translate(159,89)"/>
<path d="M0 0 C0.33 0 0.66 0 1 0 C1.17273438 1.09054688 1.34546875 2.18109375 1.5234375 3.3046875 C4.51197623 20.04799915 11.76386543 34.10579334 24 46 C24.86625 46.9075 25.7325 47.815 26.625 48.75 C35.40357743 57.06654704 44.03678622 61.76445486 55.5 65.625 C56.7478125 66.05039063 57.995625 66.47578125 59.28125 66.9140625 C62.92007132 67.97665948 66.24853934 68.56490791 70 69 C70 69.33 70 69.66 70 70 C46.9 70 23.8 70 0 70 C0 46.9 0 23.8 0 0 Z " fill="#FCFCFC" transform="translate(0,90)"/>
<path d="M0 0 C23.43 0 46.86 0 71 0 C71 23.1 71 46.2 71 70 C70.67 70 70.34 70 70 70 C69.82984375 69.03320312 69.6596875 68.06640625 69.484375 67.0703125 C68.18643391 60.00030824 66.72297957 53.45924646 63.76953125 46.85546875 C63 45 63 45 63 43 C62.34 43 61.68 43 61 43 C59.82393119 41.16924301 58.73417618 39.28268918 57.6875 37.375 C48.55658053 21.34892118 32.4223689 9.50370451 14.78515625 3.99609375 C9.88887035 2.743274 4.98913656 1.80208833 0 1 C0 0.67 0 0.34 0 0 Z " fill="#FCFCFC" transform="translate(89,0)"/>
<path d="M0 0 C22.77 0 45.54 0 69 0 C69 0.33 69 0.66 69 1 C67.90300781 1.26554688 66.80601563 1.53109375 65.67578125 1.8046875 C64.22130753 2.16126815 62.76688302 2.5180496 61.3125 2.875 C60.2306543 3.13603516 60.2306543 3.13603516 59.12695312 3.40234375 C56.03803613 4.16399452 53.12755146 4.94897942 50.16796875 6.1328125 C48 7 48 7 45 7 C45 7.66 45 8.32 45 9 C44.01 9.37125 43.02 9.7425 42 10.125 C38.08417705 11.7758663 34.99087183 14.13507206 31.69921875 16.79296875 C30 18 30 18 28 18 C28 18.66 28 19.32 28 20 C26.68188477 21.23095703 26.68188477 21.23095703 24.87890625 22.6328125 C20.879927 25.958756 17.91544004 29.63003908 14.9375 33.875 C14.41945801 34.61169922 13.90141602 35.34839844 13.36767578 36.10742188 C6.79965566 45.8075007 3.05629449 56.48475087 1 68 C0.67 68 0.34 68 0 68 C0 45.56 0 23.12 0 0 Z " fill="#FDFDFD" transform="translate(0,0)"/>
<path d="M0 0 C3.26517168 1.19805729 5.26285459 3.02830832 7.375 5.8125 C8.25805234 8.90318318 8.12279902 11.8072254 8 15 C7.34 15 6.68 15 6 15 C5.690625 15.61875 5.38125 16.2375 5.0625 16.875 C4.375 18.25 3.6875 19.625 3 21 C3.61875 21.268125 4.2375 21.53625 4.875 21.8125 C7 23 7 23 9 26 C9.54543879 29.06594015 9.53376742 31.93218522 9 35 C6.43091575 38.35408222 3.89561016 40.43208598 0 42 C-2.875 42.265625 -2.875 42.265625 -6 42.25 C-7.546875 42.25773437 -7.546875 42.25773437 -9.125 42.265625 C-11.98816469 42.00109348 -13.63081585 41.59756913 -16 40 C-17.25 37.375 -17.25 37.375 -18 35 C-18.66 35 -19.32 35 -20 35 C-20.62674095 25.87743733 -20.62674095 25.87743733 -18.125 22.375 C-16 21 -16 21 -14 21 C-14.66 20.175 -15.32 19.35 -16 18.5 C-18.47955353 14.74524751 -18.89068282 11.3922888 -18 7 C-13.58159228 -1.10041415 -8.67715738 -0.82693536 0 0 Z " fill="#878787" transform="translate(108,45)"/>
<path d="M0 0 C2.31 0 4.62 0 7 0 C7 8.91 7 17.82 7 27 C8.65 27 10.3 27 12 27 C12 28.65 12 30.3 12 32 C10.35 32 8.7 32 7 32 C7 35.3 7 38.6 7 42 C5.02 42 3.04 42 1 42 C1 38.7 1 35.4 1 32 C-0.35996094 32.01160156 -1.71992187 32.02320313 -3.12109375 32.03515625 C-4.8932278 32.04453262 -6.66536333 32.05363298 -8.4375 32.0625 C-9.33533203 32.07087891 -10.23316406 32.07925781 -11.15820312 32.08789062 C-12.43920898 32.09272461 -12.43920898 32.09272461 -13.74609375 32.09765625 C-14.53685303 32.10289307 -15.3276123 32.10812988 -16.14233398 32.11352539 C-18 32 -18 32 -19 31 C-19.50390054 27.07759238 -19.21712497 25.34659908 -17.09375 21.95703125 C-16.24305912 20.89754809 -15.37766167 19.84975095 -14.5 18.8125 C-13.5832556 17.67950048 -12.66791373 16.54536484 -11.75390625 15.41015625 C-11.29258301 14.84441895 -10.83125977 14.27868164 -10.35595703 13.69580078 C-7.59866703 10.2474507 -5.07109251 6.63218515 -2.49609375 3.046875 C-1 1 -1 1 0 0 Z " fill="#878787" transform="translate(59,45)"/>
<path d="M0 0 C1 1 1 1 1.09765625 3.94140625 C1.08605469 5.13636719 1.07445313 6.33132813 1.0625 7.5625 C1.05347656 8.76003906 1.04445313 9.95757812 1.03515625 11.19140625 C1.02355469 12.11824219 1.01195313 13.04507812 1 14 C1.66 13.67 2.32 13.34 3 13 C2.9690625 11.2984375 2.9690625 11.2984375 2.9375 9.5625 C3 6 3 6 4 5 C7 4.875 7 4.875 10 5 C11 6 11 6 11.0625 8.5625 C11.041875 9.366875 11.02125 10.17125 11 11 C9.824375 11.0928125 9.824375 11.0928125 8.625 11.1875 C5.85428874 11.70715862 5.85428874 11.70715862 4.9375 14 C4.628125 14.99 4.31875 15.98 4 17 C3.34196432 18.42069628 2.67438952 19.83699339 2 21.25 C-0.0173587 25.72883742 -1.13365781 30.17812178 -2 35 C-2.66 35 -3.32 35 -4 35 C-4.15855469 34.154375 -4.31710938 33.30875 -4.48046875 32.4375 C-5.79750244 26.03424226 -7.14614746 20.81341929 -11.01171875 15.48828125 C-12 14 -12 14 -12 12 C-13.65 11.67 -15.3 11.34 -17 11 C-17.042721 9.33388095 -17.04063832 7.66617115 -17 6 C-16.67 5.67 -16.34 5.34 -16 5 C-13.30917128 5.17635452 -10.67148554 5.61835921 -8 6 C-8 4.35 -8 2.7 -8 1 C-5.26752652 -0.36623674 -3.01801098 -0.128426 0 0 Z " fill="#8A8A8A" transform="translate(83,9)"/>
<path d="M0 0 C0 0.99 0 1.98 0 3 C-2.24923704 4.2930106 -4.49935185 5.58444977 -6.75 6.875 C-7.38421875 7.23980469 -8.0184375 7.60460937 -8.671875 7.98046875 C-13.76404924 10.89786024 -13.76404924 10.89786024 -16.328125 12.0078125 C-18.54652763 13.32434116 -18.94626013 14.66434825 -20 17 C-21.26979977 18.74528756 -22.56382592 20.47307804 -23.875 22.1875 C-27.37980593 26.94719123 -29.8545276 31.52175494 -32 37 C-32.556875 38.19625 -33.11375 39.3925 -33.6875 40.625 C-38.70286693 53.52165783 -37.06784938 71.20580711 -32 84 C-29.9632093 87.94087 -27.51687549 91.55199789 -24.92578125 95.14453125 C-23.27106811 97.59807142 -22.41117073 99.12180487 -22 102 C-25.64201582 101.04190873 -26.88518552 100.15834305 -29.1328125 97.05859375 C-29.8143966 95.86136923 -30.47782921 94.65367162 -31.125 93.4375 C-31.64429077 92.4940271 -31.64429077 92.4940271 -32.17407227 91.53149414 C-40.50225366 76.0433378 -41.89776072 56.1517395 -37.4375 39.1875 C-32.60094639 25.43355067 -16.8631165 0 0 0 Z " fill="#9B9B9B" transform="translate(54,21)"/>
<path d="M0 0 C5.75 1.875 5.75 1.875 8 3 C8 3.66 8 4.32 8 5 C8.58265625 5.27585937 9.1653125 5.55171875 9.765625 5.8359375 C13.51718295 7.79042049 16.72086647 10.34318378 20 13 C20.66515625 13.53109375 21.3303125 14.0621875 22.015625 14.609375 C33.21372824 24.57304166 38.98898926 41.39491855 40.375 55.93359375 C41.09715725 71.35344218 36.90611075 89.19033374 26.40234375 100.89453125 C24 103 24 103 22 103 C23.42749981 99.20950293 25.16236542 95.72877544 27.125 92.1875 C27.66382813 91.21167969 28.20265625 90.23585938 28.7578125 89.23046875 C29.16773438 88.49441406 29.57765625 87.75835937 30 87 C30.66 87 31.32 87 32 87 C32.18175781 86.12988281 32.18175781 86.12988281 32.3671875 85.2421875 C32.53476563 84.46101563 32.70234375 83.67984375 32.875 82.875 C33.03742188 82.10929687 33.19984375 81.34359375 33.3671875 80.5546875 C34 78 34 78 35.05078125 75.359375 C36.37442773 70.67486482 36.34080564 66.22059796 36.3125 61.375 C36.30758545 60.39241211 36.3026709 59.40982422 36.29760742 58.39746094 C36.03754903 42.27117341 30.47888225 29.2590076 20 17 C14.05351607 11.2773608 7.51893893 7.32753042 0 4 C0 2.68 0 1.36 0 0 Z " fill="#9A9A9A" transform="translate(106,20)"/>
<path d="M0 0 C1 1 1 1 1.09765625 3.94140625 C1.08605469 5.13636719 1.07445313 6.33132813 1.0625 7.5625 C1.05347656 8.76003906 1.04445313 9.95757812 1.03515625 11.19140625 C1.02355469 12.11824219 1.01195313 13.04507812 1 14 C1.66 14.33 2.32 14.66 3 15 C1.68 17.64 0.36 20.28 -1 23 C-1.33 23 -1.66 23 -2 23 C-2 21.35 -2 19.7 -2 18 C-2.66 18 -3.32 18 -4 18 C-4 19.65 -4 21.3 -4 23 C-4.66 22.01 -5.32 21.02 -6 20 C-6.7425 19.030625 -7.485 18.06125 -8.25 17.0625 C-10.87102125 12.54851897 -9.71297389 8.39387636 -8.7734375 3.4765625 C-8.39058594 2.25066406 -8.39058594 2.25066406 -8 1 C-5.26752652 -0.36623674 -3.01801098 -0.128426 0 0 Z " fill="#EFEFEF" transform="translate(83,9)"/>
<path d="M0 0 C2.4375 1.625 2.4375 1.625 4 4 C4.4375 7.0625 4.4375 7.0625 4 10 C2.45493534 12.03667615 1.27853844 12.86073078 -1 14 C-6.17431193 14.44036697 -6.17431193 14.44036697 -8.875 13 C-10.68723346 9.77825164 -10.5327028 6.60137103 -10 3 C-7.83165681 -1.08158719 -4.19361486 -0.51500533 0 0 Z " fill="#F5F5F5" transform="translate(106,68)"/>
<path d="M0 0 C0 0.99 0 1.98 0 3 C-2.24923704 4.2930106 -4.49935185 5.58444977 -6.75 6.875 C-7.38421875 7.23980469 -8.0184375 7.60460937 -8.671875 7.98046875 C-13.76404924 10.89786024 -13.76404924 10.89786024 -16.328125 12.0078125 C-18.54652763 13.32434116 -18.94626013 14.66434825 -20 17 C-21.26979977 18.74528756 -22.56382592 20.47307804 -23.875 22.1875 C-26.976546 26.3790821 -29.33163766 30.36633471 -31.2109375 35.22265625 C-32 37 -32 37 -34 39 C-34.66 38.67 -35.32 38.34 -36 38 C-31.88984255 21.83338068 -19.67767753 9.77100139 -6 1 C-4 0 -4 0 0 0 Z " fill="#999999" transform="translate(54,21)"/>
<path d="M0 0 C5.625 -0.25 5.625 -0.25 9 2 C9.33 1.34 9.66 0.68 10 0 C16.40818182 -0.36272727 16.40818182 -0.36272727 18.9375 1.1875 C20.40319823 3.68780874 20.49852135 5.15130656 20 8 C17.62130509 10.65315971 16.32875347 10.98103345 12.75 11.1875 C11.8425 11.125625 10.935 11.06375 10 11 C9.67 10.01 9.34 9.02 9 8 C8.01 8 7.02 8 6 8 C6 6.35 6 4.7 6 3 C4.68 2.67 3.36 2.34 2 2 C2 4.64 2 7.28 2 10 C1.34 10 0.68 10 0 10 C0 6.7 0 3.4 0 0 Z " fill="#C2C2C2" transform="translate(51,96)"/>
<path d="M0 0 C3.5625 0.3125 3.5625 0.3125 5.5 1.4375 C7.06672245 4.20230433 6.95226435 6.19438517 6.5625 9.3125 C5.5 11.1875 5.5 11.1875 3.5625 12.3125 C0 12.625 0 12.625 -3.4375 12.3125 C-5.4375 10.3125 -5.4375 10.3125 -5.703125 8.4375 C-5.69796875 7.73625 -5.6928125 7.035 -5.6875 6.3125 C-5.69265625 5.61125 -5.6978125 4.91 -5.703125 4.1875 C-5.17728713 0.47570326 -3.48462745 0.31678431 0 0 Z " fill="#F5F5F5" transform="translate(102.4375,49.6875)"/>
<path d="M0 0 C0.99 0 1.98 0 3 0 C3.33 1.65 3.66 3.3 4 5 C4.66 3.35 5.32 1.7 6 0 C6.66 0 7.32 0 8 0 C8.66 1.32 9.32 2.64 10 4 C10.66 2.68 11.32 1.36 12 0 C15.3 0 18.6 0 22 0 C20.68 0.33 19.36 0.66 18 1 C18 1.99 18 2.98 18 4 C18.99 4 19.98 4 21 4 C21 4.66 21 5.32 21 6 C20.01 6 19.02 6 18 6 C18 6.99 18 7.98 18 9 C19.32 9.33 20.64 9.66 22 10 C19.69 10 17.38 10 15 10 C14.67 9.01 14.34 8.02 14 7 C13.01 8.485 13.01 8.485 12 10 C11.01 10 10.02 10 9 10 C8.67 8.35 8.34 6.7 8 5 C7.34 5 6.68 5 6 5 C5.67 6.65 5.34 8.3 5 10 C4.34 10 3.68 10 3 10 C2.01 6.7 1.02 3.4 0 0 Z " fill="#C2C2C2" transform="translate(27,96)"/>
<path d="M0 0 C1.95803507 -0.05389087 3.91648909 -0.09274217 5.875 -0.125 C7.51082031 -0.15980469 7.51082031 -0.15980469 9.1796875 -0.1953125 C12 0 12 0 14 2 C14.125 5.125 14.125 5.125 14 8 C11.23547967 9.38226016 8.9538637 9.09525387 5.875 9.0625 C4.77929688 9.05347656 3.68359375 9.04445313 2.5546875 9.03515625 C1.29011719 9.01775391 1.29011719 9.01775391 0 9 C0 6.03 0 3.06 0 0 Z " fill="#C5C5C5" transform="translate(84,114)"/>
<path d="M0 0 C0 5.28 0 10.56 0 16 C-3.96 16 -7.92 16 -12 16 C-10.38653114 11.96632785 -8.95365813 9.22255006 -6.5 5.75 C-5.8915625 4.87859375 -5.283125 4.0071875 -4.65625 3.109375 C-2.21481481 0 -2.21481481 0 0 0 Z " fill="#F2F2F2" transform="translate(60,55)"/>
<path d="M0 0 C2.475 0.495 2.475 0.495 5 1 C5 2.65 5 4.3 5 6 C6.50559539 4.03617993 7.89131683 2.21736634 9 0 C12.63 0 16.26 0 20 0 C19.01 0.33 18.02 0.66 17 1 C17 3.31 17 5.62 17 8 C15.35 8.33 13.7 8.66 12 9 C12 8.34 12 7.68 12 7 C10.68 7 9.36 7 8 7 C8 7.66 8 8.32 8 9 C6.35 8.67 4.7 8.34 3 8 C2.06576355 4.98968256 1.95550089 4.13349732 3 1 C2.34 1 1.68 1 1 1 C1 3.31 1 5.62 1 8 C0.67 8 0.34 8 0 8 C0 5.36 0 2.72 0 0 Z " fill="#CCCCCC" transform="translate(63,114)"/>
<path d="M0 0 C0 3.3 0 6.6 0 10 C0.66 10 1.32 10 2 10 C2 7.36 2 4.72 2 2 C3.65 2.33 5.3 2.66 7 3 C7 5.66666667 7 8.33333333 7 11 C2.05 11 -2.9 11 -8 11 C-7.34 10.34 -6.68 9.68 -6 9 C-6 8.01 -6 7.02 -6 6 C-5.01 6 -4.02 6 -3 6 C-3 5.34 -3 4.68 -3 4 C-3.99 4 -4.98 4 -6 4 C-6 3.01 -6 2.02 -6 1 C-3.92446352 0.4465236 -2.15634036 0 0 0 Z " fill="#CECECE" transform="translate(51,96)"/>
<path d="M0 0 C1.03676844 3.20101121 0.90175636 5.19341011 0.0703125 8.4296875 C-1.29501254 14.67805737 -1.22129077 20.75499503 -1.125 27.125 C-1.11597656 28.27226563 -1.10695313 29.41953125 -1.09765625 30.6015625 C-1.07432538 33.40126748 -1.04159232 36.20051695 -1 39 C-3 38 -3 38 -4 35 C-4.26097351 30.96281886 -4.23148875 26.91970774 -4.25 22.875 C-4.2809375 21.21984375 -4.2809375 21.21984375 -4.3125 19.53125 C-4.34418018 12.86257314 -3.82109795 7.10991398 -1 1 C-0.67 0.67 -0.34 0.34 0 0 Z " fill="#888888" transform="translate(19,58)"/>
<path d="M0 0 C2.97 0 5.94 0 9 0 C8.979375 0.763125 8.95875 1.52625 8.9375 2.3125 C8.87057159 5.10185786 8.87057159 5.10185786 10 8 C9.38125 8.103125 8.7625 8.20625 8.125 8.3125 C5.63473516 8.87525373 5.63473516 8.87525373 4 12 C3.34 12 2.68 12 2 12 C1.67 10.68 1.34 9.36 1 8 C-0.32 7.67 -1.64 7.34 -3 7 C-2.01 4.69 -1.02 2.38 0 0 Z " fill="#8F8F8F" transform="translate(35,124)"/>
<path d="M0 0 C0.66 0 1.32 0 2 0 C2.12375 0.804375 2.2475 1.60875 2.375 2.4375 C2.58125 3.283125 2.7875 4.12875 3 5 C3.66 5.33 4.32 5.66 5 6 C5 6.66 5 7.32 5 8 C4.01 8.495 4.01 8.495 3 9 C2.67 10.32 2.34 11.64 2 13 C-0.97 12.01 -3.94 11.02 -7 10 C-6.67 7.36 -6.34 4.72 -6 2 C-4.02 2 -2.04 2 0 2 C0 1.34 0 0.68 0 0 Z " fill="#919191" transform="translate(59,134)"/>
<path d="M0 0 C0.66 0 1.32 0 2 0 C2.309375 0.78375 2.61875 1.5675 2.9375 2.375 C3.92875038 4.92330128 3.92875038 4.92330128 5 7 C4.195625 7.45375 3.39125 7.9075 2.5625 8.375 C-0.08856572 9.74725665 -0.08856572 9.74725665 -1 12 C-1.66 12 -2.32 12 -3 12 C-3.33 11.01 -3.66 10.02 -4 9 C-6.01508358 8.26676204 -6.01508358 8.26676204 -8 8 C-7.34 5.69 -6.68 3.38 -6 1 C-4.7934375 1.0309375 -4.7934375 1.0309375 -3.5625 1.0625 C-1.06645115 1.29633621 -1.06645115 1.29633621 0 0 Z " fill="#898989" transform="translate(123,124)"/>
<path d="M0 0 C0.66 0 1.32 0 2 0 C2.33 1.32 2.66 2.64 3 4 C4.32 4 5.64 4 7 4 C7 4.66 7 5.32 7 6 C6.34 6 5.68 6 5 6 C5 7.98 5 9.96 5 12 C2.36 12 -0.28 12 -3 12 C-3.66 9.36 -4.32 6.72 -5 4 C-3.68 4 -2.36 4 -1 4 C-0.67 2.68 -0.34 1.36 0 0 Z " fill="#878787" transform="translate(79,138)"/>
<path d="M0 0 C0.66 0 1.32 0 2 0 C2.33 0.66 2.66 1.32 3 2 C5.02463255 2.65213292 5.02463255 2.65213292 7 3 C7.66 5.31 8.32 7.62 9 10 C6 11 3 12 0 13 C-0.12375 12.360625 -0.2475 11.72125 -0.375 11.0625 C-0.58125 10.381875 -0.7875 9.70125 -1 9 C-1.66 8.67 -2.32 8.34 -3 8 C-2.5359375 7.13375 -2.5359375 7.13375 -2.0625 6.25 C-1.07416636 4.15705816 -0.4831387 2.25464725 0 0 Z " fill="#8B8B8B" transform="translate(99,134)"/>
<path d="M0 0 C0.99 0.33 1.98 0.66 3 1 C0.37938066 9.82062118 -2.65262256 19.04266694 -10 25 C-10.66 25 -11.32 25 -12 25 C-10.57250019 21.20950293 -8.83763458 17.72877544 -6.875 14.1875 C-6.33617187 13.21167969 -5.79734375 12.23585938 -5.2421875 11.23046875 C-4.62730469 10.12638672 -4.62730469 10.12638672 -4 9 C-3.34 9 -2.68 9 -2 9 C-1.34 6.03 -0.68 3.06 0 0 Z " fill="#9C9C9C" transform="translate(140,98)"/>
<path d="M0 0 C0.66 0 1.32 0 2 0 C2.66 1.98 3.32 3.96 4 6 C4.66 4.02 5.32 2.04 6 0 C9 1 9 1 11 4 C11.99 2.68 12.98 1.36 14 0 C13.745504 1.48206495 13.47088238 2.96068615 13.1875 4.4375 C13.03667969 5.26121094 12.88585937 6.08492188 12.73046875 6.93359375 C12.36888672 7.95646484 12.36888672 7.95646484 12 9 C11.01 9.33 10.02 9.66 9 10 C8.67 9.01 8.34 8.02 8 7 C7.34 7 6.68 7 6 7 C5.67 7.99 5.34 8.98 5 10 C4.01 10 3.02 10 2 10 C0.68373308 6.38026598 0 3.90432869 0 0 Z " fill="#B8B8B8" transform="translate(97,96)"/>
<path d="M0 0 C2.31 0.33 4.62 0.66 7 1 C6.979375 2.093125 6.95875 3.18625 6.9375 4.3125 C6.81455548 7.94384191 6.81455548 7.94384191 8 11 C6.68 10.34 5.36 9.68 4 9 C4 8.34 4 7.68 4 7 C3.34 7 2.68 7 2 7 C2 7.99 2 8.98 2 10 C1.34 10 0.68 10 0 10 C0 6.7 0 3.4 0 0 Z " fill="#BABABA" transform="translate(117,96)"/>
<path d="M0 0 C0.66 0 1.32 0 2 0 C5 3.46153846 5 3.46153846 5 6 C5.66 6 6.32 6 7 6 C7 4.02 7 2.04 7 0 C7.66 0 8.32 0 9 0 C9 3.3 9 6.6 9 10 C8.01 10 7.02 10 6 10 C4.3125 8 4.3125 8 3 6 C2.67 7.65 2.34 9.3 2 11 C1.34 11 0.68 11 0 11 C0 7.37 0 3.74 0 0 Z " fill="#A3A3A3" transform="translate(77,96)"/>
<path d="M0 0 C3 0.125 3 0.125 4 1.125 C3.71269945 3.46444736 3.38063221 5.7989143 3 8.125 C0.625 8.25 0.625 8.25 -2 8.125 C-4 6.125 -4 6.125 -4.1875 3.5625 C-3.91067812 -0.03618446 -3.67800108 0.15325004 0 0 Z " fill="#898989" transform="translate(79,78.875)"/>
<path d="M0 0 C1.99954746 -0.04254356 4.00041636 -0.04080783 6 0 C7 1 7 1 7.0625 4.0625 C7.041875 5.031875 7.02125 6.00125 7 7 C1.25 8.125 1.25 8.125 -1 7 C-0.67 4.69 -0.34 2.38 0 0 Z " fill="#8D8D8D" transform="translate(77,9)"/>
<path d="M0 0 C0.99 0 1.98 0 3 0 C3.33 1.65 3.66 3.3 4 5 C4.66 3.35 5.32 1.7 6 0 C6.66 0 7.32 0 8 0 C8.33 1.98 8.66 3.96 9 6 C9.99 6 10.98 6 12 6 C12 7.32 12 8.64 12 10 C11.01 10 10.02 10 9 10 C8.67 8.35 8.34 6.7 8 5 C7.34 5 6.68 5 6 5 C5.67 6.65 5.34 8.3 5 10 C4.34 10 3.68 10 3 10 C2.01 6.7 1.02 3.4 0 0 Z " fill="#A0A0A0" transform="translate(27,96)"/>
<path d="M0 0 C0.33 0.66 0.66 1.32 1 2 C-0.98 2 -2.96 2 -5 2 C-5 3.98 -5 5.96 -5 8 C-3.68 8.33 -2.36 8.66 -1 9 C-1.33 7.68 -1.66 6.36 -2 5 C-1.01 5 -0.02 5 1 5 C1.042721 6.66611905 1.04063832 8.33382885 1 10 C0 11 0 11 -2.9375 11.25 C-3.948125 11.1675 -4.95875 11.085 -6 11 C-8.30019361 7.54970958 -8.43132515 6.05445642 -8 2 C-4.77208445 -0.1519437 -3.71599191 -0.20086443 0 0 Z " fill="#ABAAAB" transform="translate(95,96)"/>
<path d="M0 0 C2.33944736 0.28730055 4.6739143 0.61936779 7 1 C6.25 5.75 6.25 5.75 4 8 C1.525 7.01 1.525 7.01 -1 6 C-1.042721 4.33388095 -1.04063832 2.66617115 -1 1 C-0.67 0.67 -0.34 0.34 0 0 Z " fill="#898989" transform="translate(67,14)"/>
<path d="M0 0 C2.475 0.495 2.475 0.495 5 1 C5 2.65 5 4.3 5 6 C6.50559539 4.03617993 7.89131683 2.21736634 9 0 C9.66 0 10.32 0 11 0 C10.01 2.97 9.02 5.94 8 9 C6.35 8.67 4.7 8.34 3 8 C2.06576355 4.98968256 1.95550089 4.13349732 3 1 C2.34 1 1.68 1 1 1 C1 3.31 1 5.62 1 8 C0.67 8 0.34 8 0 8 C0 5.36 0 2.72 0 0 Z " fill="#ADADAD" transform="translate(63,114)"/>
<path d="M0 0 C5.625 -0.25 5.625 -0.25 9 2 C9.1875 5.125 9.1875 5.125 9 8 C8.01 8 7.02 8 6 8 C6 6.35 6 4.7 6 3 C4.68 2.67 3.36 2.34 2 2 C2 4.64 2 7.28 2 10 C1.34 10 0.68 10 0 10 C0 6.7 0 3.4 0 0 Z " fill="#A0A0A0" transform="translate(51,96)"/>
<path d="M0 0 C0.66 0 1.32 0 2 0 C2.63934602 5.11476819 0.40533547 8.67254378 -2 13 C-2.99 12.67 -3.98 12.34 -5 12 C-4.54738642 10.56068883 -4.08767021 9.12361001 -3.625 7.6875 C-3.24214844 6.48673828 -3.24214844 6.48673828 -2.8515625 5.26171875 C-2 3 -2 3 0 0 Z " fill="#ABABAB" transform="translate(23,47)"/>
<path d="M0 0 C0.33 0 0.66 0 1 0 C1.08172936 2.5215021 1.14083373 5.04029917 1.1875 7.5625 C1.22520508 8.61920898 1.22520508 8.61920898 1.26367188 9.69726562 C1.33532304 14.88003315 0.32172598 18.36264182 -2 23 C-2.96804074 19.89484695 -2.98121797 17.6488104 -2.44140625 14.453125 C-2.30283203 13.60878906 -2.16425781 12.76445313 -2.02148438 11.89453125 C-1.87001953 11.02183594 -1.71855469 10.14914063 -1.5625 9.25 C-1.34110352 7.91775391 -1.34110352 7.91775391 -1.11523438 6.55859375 C-0.75064986 4.37108664 -0.37867934 2.18510358 0 0 Z " fill="#868686" transform="translate(144,77)"/>
<path d="M0 0 C0.66 0.33 1.32 0.66 2 1 C2.59355614 3.64860427 2.74209269 6.29197322 3 9 C2.01 9.66 1.02 10.32 0 11 C-2.30163882 7.54754176 -2.34490322 6.05261287 -2 2 C-1.34 1.34 -0.68 0.68 0 0 Z " fill="#818181" transform="translate(6,98)"/>
<path d="M0 0 C5.42857143 -0.36190476 5.42857143 -0.36190476 7.875 1.1875 C9.34781139 3.56036279 9.22223194 5.25913944 9 8 C8.34 8 7.68 8 7 8 C6.67 6.02 6.34 4.04 6 2 C4.35 2 2.7 2 1 2 C1.33 4.64 1.66 7.28 2 10 C1.34 10 0.68 10 0 10 C0 6.7 0 3.4 0 0 Z " fill="#9F9F9F" transform="translate(62,96)"/>
<path d="M0 0 C1.13732426 3.40401948 0.83989957 5.77456664 0.0625 9.25 C-0.13214844 10.14203125 -0.32679687 11.0340625 -0.52734375 11.953125 C-0.68332031 12.62859375 -0.83929687 13.3040625 -1 14 C-1.99 14 -2.98 14 -4 14 C-3.66009167 8.62007164 -3.31442207 4.46726453 0 0 Z " fill="#939393" transform="translate(19,58)"/>
<path d="M0 0 C2.40072955 2.88087546 4.47291037 5.56404834 6 9 C6.33 8.34 6.66 7.68 7 7 C7.66 7.33 8.32 7.66 9 8 C8.67 9.65 8.34 11.3 8 13 C7.01 13.33 6.02 13.66 5 14 C3.66666667 11.33333333 2.33333333 8.66666667 1 6 C0.60554688 5.29359375 0.21109375 4.5871875 -0.1953125 3.859375 C-0.46085937 3.24578125 -0.72640625 2.6321875 -1 2 C-0.67 1.34 -0.34 0.68 0 0 Z " fill="#9F9F9F" transform="translate(72,20)"/>
<path d="M0 0 C1.98 0 3.96 0 6 0 C4.68 0.33 3.36 0.66 2 1 C2 1.99 2 2.98 2 4 C2.99 4 3.98 4 5 4 C5 4.66 5 5.32 5 6 C4.01 6 3.02 6 2 6 C2 6.99 2 7.98 2 9 C3.32 9.33 4.64 9.66 6 10 C4.02 10 2.04 10 0 10 C0 6.7 0 3.4 0 0 Z " fill="#969696" transform="translate(43,96)"/>
<path d="M0 0 C1.67542976 0.28604898 3.34385343 0.61781233 5 1 C5 2.65 5 4.3 5 6 C3.02 6 1.04 6 -1 6 C-1.042721 4.33388095 -1.04063832 2.66617115 -1 1 C-0.67 0.67 -0.34 0.34 0 0 Z " fill="#888888" transform="translate(78,18)"/>
<path d="M0 0 C0.99 0 1.98 0 3 0 C3 3.63 3 7.26 3 11 C2.01 11 1.02 11 0 11 C0 7.37 0 3.74 0 0 Z " fill="#B2B2B2" transform="translate(72,96)"/>
<path d="M0 0 C1.98 0 3.96 0 6 0 C4.68 0.33 3.36 0.66 2 1 C2 3.64 2 6.28 2 9 C3.32 9 4.64 9 6 9 C6 9.66 6 10.32 6 11 C4.33388095 11.042721 2.66617115 11.04063832 1 11 C0 10 0 10 -0.09765625 7.71484375 C-0.08605469 6.79832031 -0.07445313 5.88179688 -0.0625 4.9375 C-0.05347656 4.01839844 -0.04445313 3.09929687 -0.03515625 2.15234375 C-0.02355469 1.44207031 -0.01195313 0.73179688 0 0 Z " fill="#B1B1B1" transform="translate(126,96)"/>
<path d="M0 0 C0.99 0.33 1.98 0.66 3 1 C1.92492371 2.29854721 0.83956264 3.58858361 -0.25 4.875 C-0.85328125 5.59429687 -1.4565625 6.31359375 -2.078125 7.0546875 C-3.97087634 8.97052118 -5.53657727 9.96449045 -8 11 C-8 8 -8 8 -6.25 5.95703125 C-5.5075 5.24933594 -4.765 4.54164063 -4 3.8125 C-2.88625 2.73935547 -2.88625 2.73935547 -1.75 1.64453125 C-1.1725 1.10183594 -0.595 0.55914062 0 0 Z " fill="#989898" transform="translate(136,128)"/>
<path d="M0 0 C0.928125 1.175625 0.928125 1.175625 1.875 2.375 C3.89858661 4.96837647 3.89858661 4.96837647 6 7 C6 7.99 6 8.98 6 10 C2.73058318 9.05358987 1.33177722 8.58815053 -0.375 5.5625 C-1 3 -1 3 0 0 Z " fill="#B1B1B1" transform="translate(26,113)"/>
<path d="M0 0 C0.12375 0.639375 0.2475 1.27875 0.375 1.9375 C0.684375 2.9584375 0.684375 2.9584375 1 4 C1.66 4.33 2.32 4.66 3 5 C1.68 7.64 0.36 10.28 -1 13 C-1.33 13 -1.66 13 -2 13 C-2 11.35 -2 9.7 -2 8 C-2.66 8 -3.32 8 -4 8 C-4.33 7.01 -4.66 6.02 -5 5 C-3.35 5 -1.7 5 0 5 C0 3.35 0 1.7 0 0 Z " fill="#DFDFDF" transform="translate(83,19)"/>
<path d="M0 0 C1.65 0 3.3 0 5 0 C4.67 1.65 4.34 3.3 4 5 C3.34 5 2.68 5 2 5 C2 5.99 2 6.98 2 8 C2.99 8.33 3.98 8.66 5 9 C3.35 9 1.7 9 0 9 C0 6.03 0 3.06 0 0 Z " fill="#BDBDBD" transform="translate(84,114)"/>
<path d="M0 0 C1.65 0 3.3 0 5 0 C5 2.31 5 4.62 5 7 C3.35 7 1.7 7 0 7 C0 6.01 0 5.02 0 4 C0.99 4 1.98 4 3 4 C3 3.34 3 2.68 3 2 C2.01 2 1.02 2 0 2 C0 1.34 0 0.68 0 0 Z " fill="#F0F0F0" transform="translate(45,98)"/>
<path d="M0 0 C2.475 0.495 2.475 0.495 5 1 C5 2.65 5 4.3 5 6 C3.35 6 1.7 6 0 6 C0 4.02 0 2.04 0 0 Z " fill="#EFEFEF" transform="translate(53,98)"/>
<path d="M0 0 C0.66 1.32 1.32 2.64 2 4 C1.38125 4.9075 0.7625 5.815 0.125 6.75 C-1.44389611 9.14948817 -2.80443821 11.40961612 -4 14 C-5.06528748 11.26980214 -5.07998186 10.20701188 -4.00390625 7.421875 C-3.52824219 6.54015625 -3.05257812 5.6584375 -2.5625 4.75 C-2.08941406 3.85796875 -1.61632812 2.9659375 -1.12890625 2.046875 C-0.75636719 1.37140625 -0.38382812 0.6959375 0 0 Z " fill="#A4A4A4" transform="translate(87,19)"/>
<path d="M0 0 C5.75 1.75 5.75 1.75 8 4 C6.25 5.125 6.25 5.125 4 6 C1.75 5.125 1.75 5.125 0 4 C0 2.68 0 1.36 0 0 Z " fill="#AEAEAE" transform="translate(106,20)"/>
<path d="M0 0 C0 0.99 0 1.98 0 3 C-2.8125 4.125 -2.8125 4.125 -6 5 C-6.99 4.34 -7.98 3.68 -9 3 C-5.55930376 0.70620251 -4.27709699 0 0 0 Z " fill="#B5B5B5" transform="translate(54,21)"/>
<path d="M0 0 C2.12046792 3.53411321 2.53199289 6.94393835 3 11 C2.01 11.33 1.02 11.66 0 12 C-0.92844389 7.66726186 -0.92844389 4.33273814 0 0 Z " fill="#F5F5F5" transform="translate(84,11)"/>
<path d="M0 0 C1.32 0 2.64 0 4 0 C4 1.98 4 3.96 4 6 C2.68 6 1.36 6 0 6 C0 4.02 0 2.04 0 0 Z " fill="#F8F8F8" transform="translate(64,98)"/>
<path d="M0 0 C0.66 0 1.32 0 2 0 C2.33 1.98 2.66 3.96 3 6 C3.99 6 4.98 6 6 6 C6 7.32 6 8.64 6 10 C5.01 10 4.02 10 3 10 C2.67 7.69 2.34 5.38 2 3 C1.34 3 0.68 3 0 3 C0 2.01 0 1.02 0 0 Z " fill="#979797" transform="translate(33,96)"/>
<path d="M0 0 C0.33 0.66 0.66 1.32 1 2 C-0.70135776 5.23257974 -2.76039553 8.12050853 -5 11 C-5.66 10.67 -6.32 10.34 -7 10 C-3.535 5.05 -3.535 5.05 0 0 Z " fill="#9C9C9C" transform="translate(57,47)"/>
<path d="M0 0 C1.32 0 2.64 0 4 0 C4 1.65 4 3.3 4 5 C2.68 5 1.36 5 0 5 C0 3.35 0 1.7 0 0 Z " fill="#FBFBFB" transform="translate(92,116)"/>
<path d="M0 0 C1.39195915 4.17587745 -0.17676781 6.13474776 -2 10 C-2.66 10 -3.32 10 -4 10 C-3.29445932 6.33118845 -1.72264494 3.29549466 0 0 Z " fill="#A9A9A9" transform="translate(110,96)"/>
<path d="M0 0 C3.78611227 0.54087318 5.55400767 2.11722332 8 5 C8 5.66 8 6.32 8 7 C4.2047869 5.50902342 2.38957269 3.24299151 0 0 Z " fill="#8C8C8C" transform="translate(123,33)"/>
<path d="M0 0 C1.65 1.32 3.3 2.64 5 4 C4.01 4.33 3.02 4.66 2 5 C2 5.99 2 6.98 2 8 C1.34 8 0.68 8 0 8 C0 5.36 0 2.72 0 0 Z " fill="#B1B1B1" transform="translate(117,98)"/>
<path d="M0 0 C0.66 0.33 1.32 0.66 2 1 C0.71937515 2.7074998 -0.61767557 4.37373596 -2 6 C-2.66 6 -3.32 6 -4 6 C-2.25 1.125 -2.25 1.125 0 0 Z " fill="#9B9B9B" transform="translate(132,117)"/>
<path d="M0 0 C2.5 1.3125 2.5 1.3125 5 3 C5 3.99 5 4.98 5 6 C4.01 5.67 3.02 5.34 2 5 C0.8125 2.4375 0.8125 2.4375 0 0 Z " fill="#929292" transform="translate(27,117)"/>
<path d="M0 0 C-0.33 1.65 -0.66 3.3 -1 5 C-1.99 5.33 -2.98 5.66 -4 6 C-4 5.34 -4 4.68 -4 4 C-3.34 4 -2.68 4 -2 4 C-2 3.34 -2 2.68 -2 2 C-2.66 1.67 -3.32 1.34 -4 1 C-2 0 -2 0 0 0 Z " fill="#F8F8F8" transform="translate(90,115)"/>
<path d="M0 0 C0.6875 1.8125 0.6875 1.8125 1 4 C-0.4375 5.75 -0.4375 5.75 -2 7 C-2.66 6.67 -3.32 6.34 -4 6 C-3.67 5.01 -3.34 4.02 -3 3 C-2.01 3 -1.02 3 0 3 C0 2.01 0 1.02 0 0 Z " fill="#B5B5B5" transform="translate(22,53)"/>
<path d="M0 0 C0.66 0 1.32 0 2 0 C1.6875 1.9375 1.6875 1.9375 1 4 C0.01 4.33 -0.98 4.66 -2 5 C-1.125 1.125 -1.125 1.125 0 0 Z " fill="#949494" transform="translate(33,34)"/>
<path d="M0 0 C0.33 1.32 0.66 2.64 1 4 C0.01 4.66 -0.98 5.32 -2 6 C-2.66 5.67 -3.32 5.34 -4 5 C-2.68 3.35 -1.36 1.7 0 0 Z " fill="#9B9B9B" transform="translate(23,23)"/>
<path d="M0 0 C0.99 0.33 1.98 0.66 3 1 C2.34 2.32 1.68 3.64 1 5 C0.01 5 -0.98 5 -2 5 C-1.34 3.35 -0.68 1.7 0 0 Z " fill="#ACACAC" transform="translate(133,113)"/>
<path d="M0 0 C0.99 0 1.98 0 3 0 C3 1.65 3 3.3 3 5 C2.01 4.67 1.02 4.34 0 4 C0 2.68 0 1.36 0 0 Z " fill="#9E9E9E" transform="translate(93,101)"/>
<path d="M0 0 C0.33 0.66 0.66 1.32 1 2 C-0.65 2.66 -2.3 3.32 -4 4 C-4 3.01 -4 2.02 -4 1 C-2.68 0.67 -1.36 0.34 0 0 Z " fill="#E0E0E0" transform="translate(45,131)"/>
<path d="M0 0 C0.33 0.66 0.66 1.32 1 2 C0.67 2.99 0.34 3.98 0 5 C-0.99 5 -1.98 5 -3 5 C-2.625 3.0625 -2.625 3.0625 -2 1 C-1.34 0.67 -0.68 0.34 0 0 Z " fill="#9B9B9B" transform="translate(22,51)"/>
<path d="M0 0 C1.32 0 2.64 0 4 0 C4 0.99 4 1.98 4 3 C2.68 3 1.36 3 0 3 C0 2.01 0 1.02 0 0 Z " fill="#A3A3A3" transform="translate(50,21)"/>
<path d="M0 0 C0 1.65 0 3.3 0 5 C-1.65 4.67 -3.3 4.34 -5 4 C-1.125 0 -1.125 0 0 0 Z " fill="#9A9A9A" transform="translate(84,145)"/>
<path d="M0 0 C1.98 0.495 1.98 0.495 4 1 C4 1.66 4 2.32 4 3 C2.35 2.67 0.7 2.34 -1 2 C-0.67 1.34 -0.34 0.68 0 0 Z " fill="#D3D3D3" transform="translate(67,120)"/>
<path d="M0 0 C1.98 0.495 1.98 0.495 4 1 C1.525 2.485 1.525 2.485 -1 4 C-0.67 2.68 -0.34 1.36 0 0 Z " fill="#8E8E8E" transform="translate(78,18)"/>
<path d="M0 0 C0.33 0 0.66 0 1 0 C1 1.65 1 3.3 1 5 C0.01 5.33 -0.98 5.66 -2 6 C-1.34 4.02 -0.68 2.04 0 0 Z " fill="#A4A4A4" transform="translate(117,126)"/>
<path d="M0 0 C0.99 0 1.98 0 3 0 C3 0.99 3 1.98 3 3 C2.01 3 1.02 3 0 3 C0 2.01 0 1.02 0 0 Z " fill="#EBEBEB" transform="translate(119,98)"/>
<path d="M0 0 C1.32 0.66 2.64 1.32 4 2 C3.01 2.33 2.02 2.66 1 3 C0.34 2.34 -0.32 1.68 -1 1 C-0.67 0.67 -0.34 0.34 0 0 Z " fill="#A6A6A6" transform="translate(42,26)"/>
<path d="M0 0 C0.66 0 1.32 0 2 0 C1.67 0.99 1.34 1.98 1 3 C0.34 3 -0.32 3 -1 3 C-0.67 2.01 -0.34 1.02 0 0 Z " fill="#909090" transform="translate(129,120)"/>
<path d="M0 0 C0.99 0.99 1.98 1.98 3 3 C2.01 3 1.02 3 0 3 C0 2.01 0 1.02 0 0 Z " fill="#909090" transform="translate(131,41)"/>
<path d="M0 0 C0.66 0.99 1.32 1.98 2 3 C1.34 3.66 0.68 4.32 0 5 C-0.33 4.01 -0.66 3.02 -1 2 C-0.67 1.34 -0.34 0.68 0 0 Z " fill="#AFAFAF" transform="translate(72,20)"/>
</svg>
